<svg width="403" height="342" viewBox="0 0 403 342" fill="none" xmlns="http://www.w3.org/2000/svg">
<path d="M136.768 1.48767H363.878C385.17 1.48767 402.518 19.625 402.431 41.8804V272.408C402.431 294.664 385.082 312.801 363.79 312.801H338.906" stroke="#333333"/>
<path d="M66.9344 1.48767H40.1228C18.8311 1.48767 1.48242 19.625 1.48242 41.8804V272.408C1.48242 294.664 18.8311 312.801 40.1228 312.801H68.9497V340.367L108.762 312.801H269.073" stroke="#333333"/>
<path d="M93.8858 10.0201H97.1475V19H88.0469V10.8658L92.8388 1H97.1073L93.8858 10.0201ZM107.577 10.0201H110.839V19H101.738V10.8658L106.53 1H110.799L107.577 10.0201Z" fill="#333333"/>
<path d="M312.953 303.98H309.691V295H318.792V303.134L314 313H309.732L312.953 303.98ZM299.262 303.98H296V295H305.101V303.134L300.309 313H296.04L299.262 303.98Z" fill="#333333"/>
</svg>
