<svg width="49" height="60" viewBox="0 0 49 60" fill="none" xmlns="http://www.w3.org/2000/svg">
<path d="M41.5575 0H40.86H7.74H7.0425V0.6975V2.085C7.0425 4.815 4.8225 7.0425 2.085 7.0425H0.6975H0V7.74V30.1425C0 41.07 6.0675 50.8875 15.8325 55.77L23.985 59.85L24.3 60L24.6075 59.8425L32.76 55.7625C42.525 50.88 48.5925 41.0625 48.5925 30.135V7.7325V7.035H47.895H46.5075C43.7775 7.035 41.55 4.815 41.55 2.0775V0.69V0H41.5575ZM46.515 7.7325H47.9025V30.135C47.9025 40.7925 41.985 50.3775 32.4525 55.14L24.3 59.22L16.1475 55.14C6.6225 50.3775 0.6975 40.7925 0.6975 30.135V7.7325H2.085C5.1975 7.7325 7.7325 5.1975 7.7325 2.085V0.6975H40.86V2.085C40.86 5.1975 43.395 7.7325 46.515 7.7325Z" fill="white"/>
<path d="M24.3 2.20496H9.12746C9.12746 6.11246 5.96246 9.24746 2.08496 9.24746V30.2625C2.08496 40.3275 7.75496 49.515 16.7625 54.0225L24.3 57.795L31.83 54.03C40.845 49.5225 46.5075 40.335 46.5075 30.27V9.24746C42.6375 9.24746 39.465 6.11246 39.465 2.20496H24.3V2.20496Z" fill="white"/>
<path d="M19.4595 11.7442C19.4595 11.3349 19.8 11 20.2162 11H27.7838C28.2 11 28.5405 11.3349 28.5405 11.7442C28.5405 12.1535 28.2 12.4884 27.7838 12.4884H25.1351V14.014C24.7568 13.9767 24.3784 13.9767 24 13.9767C23.6216 13.9767 23.2432 13.9767 22.8649 14.014V12.4884H20.2162C19.8 12.4884 19.4595 12.1535 19.4595 11.7442ZM35.7297 19.2605L36.827 18.1814L35.2378 16.6186L34.1405 17.6977C34.7081 18.1814 35.2378 18.7023 35.7297 19.2605ZM38 29.2326C38 36.8233 31.7189 43 24 43C16.2811 43 10 36.8233 10 29.2326C10 21.6419 16.2811 15.4651 24 15.4651C31.7189 15.4651 38 21.6419 38 29.2326ZM35.7297 29.2326C35.7297 22.8698 30.4703 17.6977 24 17.6977C17.5297 17.6977 12.2703 22.8698 12.2703 29.2326C12.2703 35.5953 17.5297 40.7674 24 40.7674C30.4703 40.7674 35.7297 35.5953 35.7297 29.2326ZM34.2162 29.2326C34.2162 34.7767 29.6378 39.2791 24 39.2791C18.3622 39.2791 13.7838 34.7767 13.7838 29.2326C13.7838 23.6884 18.3622 19.186 24 19.186C29.6378 19.186 34.2162 23.6884 34.2162 29.2326ZM26.6486 29.2326C26.6486 28.0419 25.8541 27.0744 24.7568 26.7395V22.1628C24.7568 21.7535 24.4162 21.4186 24 21.4186C23.5838 21.4186 23.2432 21.7535 23.2432 22.1628V26.7395C22.1459 27.0744 21.3514 28.0419 21.3514 29.2326C21.3514 30.6837 22.5243 31.8372 24 31.8372C25.4757 31.8372 26.6486 30.6837 26.6486 29.2326ZM24 28.1163C23.3568 28.1163 22.8649 28.6 22.8649 29.2326C22.8649 29.8279 23.3568 30.3488 24 30.3488C24.6432 30.3488 25.1351 29.8279 25.1351 29.2326C25.1351 28.6 24.6432 28.1163 24 28.1163Z" fill="#3F7280"/>
</svg>
