<svg width="54" height="61" viewBox="0 0 54 61" fill="none" xmlns="http://www.w3.org/2000/svg">
<path fill-rule="evenodd" clip-rule="evenodd" d="M53.2495 0H13.335V3.17936H49.87C50.1698 3.17936 50.4167 3.42386 50.4167 3.72197V52.1293H53.2495V0ZM16.9511 55.7306L16.9733 55.735H16.9842H17.0134L17.0355 55.7394H17.0493H17.058H17.08L17.1026 55.7436H17.1113H17.1223H17.1444H17.167H17.1736H17.1867L17.2093 55.748H17.2314H17.2358H17.254H17.2761H17.298H17.3002H17.3206H17.3425H17.3651H17.3872H17.4091H17.4141H17.4317H17.4536H17.4624H17.4762H17.4983H17.5115L17.5209 55.7436H17.543H17.5605H17.5649H17.5875H17.6094L17.632 55.7394H17.6541H17.6585H17.676H17.6986L17.7074 55.735H17.7184H17.7409L17.7563 55.7306H17.7629H17.7854H17.8052L17.8273 55.726H17.8499H17.8543L17.8718 55.7217H17.8944L17.9032 55.7173C18.8279 55.6193 19.7485 55.2416 20.4687 54.6458L20.4869 54.6324L20.5133 54.6099L20.5176 54.6055L20.5468 54.5833L20.5578 54.5744L20.5753 54.5567C21.4961 53.7296 22.0698 52.7512 22.2475 51.4262L22.2497 51.395L22.2519 51.3859L22.2541 51.3505L22.2563 51.3325L22.2585 51.3102L22.2607 51.2702L22.2651 51.2301L22.2673 51.208L22.2695 51.1903L22.2717 51.15V51.1456L22.2739 51.1101V51.0834L22.2767 51.0699L22.2789 51.0301V51.0209V50.99L22.2811 50.9588V50.95V50.9098V50.8924L22.2833 50.8699V50.8298L22.2811 50.7677V50.7057V50.701L22.2789 50.6433V50.6389L22.2739 50.5812V50.5767L22.2717 50.5189V50.5145L22.2673 50.4568V50.4524L22.2607 50.3947V50.3902C22.1831 49.6162 21.9895 49.0162 21.6007 48.3315L21.5847 48.3003L21.5693 48.278C21.3668 47.9443 21.127 47.6375 20.8537 47.3619L20.8421 47.353C20.731 47.2415 20.6154 47.1348 20.4933 47.0372H20.4912C20.3706 46.9348 20.2441 46.8414 20.1133 46.7527L19.913 46.6235L19.8641 46.5927C19.3882 46.3257 18.9483 46.1389 18.4141 46.0232L18.3563 46.0143H18.3541L18.2942 46.0011L18.2342 45.9877L18.1743 45.9789L18.1122 45.9698L18.0522 45.9609H18.05L17.9895 45.9519L17.9295 45.9428H17.9273L17.8673 45.9384L17.8052 45.9297L17.7431 45.9253L17.6811 45.9207L17.6184 45.9163H17.6162H17.5539L17.4919 45.912H17.4897H17.4276H17.3656H17.3007H17.2362C16.2005 45.9565 15.2753 46.2544 14.4216 46.8903L14.3749 46.926L14.3282 46.9616L14.2815 46.9972L14.2348 47.0373L14.1907 47.0729L14.1462 47.113L14.1017 47.153L14.0572 47.1886L14.0125 47.2287L13.9724 47.2685L13.9284 47.3132L13.8882 47.3533L13.8437 47.3931L13.8036 47.4378L13.7635 47.4821L13.7238 47.5221L13.6837 47.5666L13.6458 47.611H13.6436L13.6083 47.6553L13.5682 47.7L13.4967 47.7932H13.4945L13.4235 47.8868L13.3876 47.9359L13.3547 47.9849L13.2876 48.0826H13.2854L13.2524 48.1315L13.221 48.1805L13.1902 48.2296L13.1588 48.2787L13.1275 48.3321L13.0966 48.381L13.0696 48.4344H13.0674L13.0389 48.4877C12.7187 49.0879 12.5493 49.6437 12.4717 50.3286L12.4651 50.3908L12.4607 50.453L12.4563 50.5151L12.4519 50.5773L12.4497 50.6395L12.4475 50.7016V50.7685V50.8306V50.8707V50.8931V50.9105V50.9552V50.995L12.4497 51.0174V51.0351L12.4519 51.0751V51.0798L12.4541 51.1154L12.4563 51.142V51.1597L12.4607 51.1953V51.2043L12.4629 51.2402L12.4651 51.2668V51.28L12.4695 51.3201L12.4717 51.329L12.4739 51.36L12.4783 51.3911V51.4002L12.4826 51.4401L12.4848 51.4492L12.487 51.4803L12.4914 51.5113V51.5157C12.8334 53.8139 14.6788 55.5438 16.9511 55.7306ZM19.7257 60.9422V57.9584V57.9449V56.3574C18.8522 56.7312 17.938 56.8823 17.0112 56.8332L16.9957 56.8288H16.9731H16.9709L16.8955 56.8244H16.8933L16.8664 56.8202H16.8576H16.84L16.8175 56.8158H16.8153L16.7107 56.8067H16.7019C16.1062 56.7401 15.5325 56.5887 14.999 56.3575V57.9451V57.9586V61L17.0958 59.0968C17.3071 58.9012 17.6361 58.9056 17.8428 59.1057L19.7257 60.9422ZM18.8053 49.3896C18.4362 49.0205 17.9246 48.7935 17.3648 48.7935C16.8131 48.7935 16.3153 49.0114 15.9484 49.3629L15.9236 49.3896C15.5545 49.7585 15.3257 50.27 15.3257 50.8301C15.3257 51.3903 15.5545 51.9019 15.9192 52.271C16.2905 52.6399 16.7999 52.8667 17.3648 52.8667C17.9248 52.8667 18.4362 52.6401 18.8031 52.271C19.1722 51.9019 19.4011 51.3903 19.4011 50.8301C19.4011 50.27 19.17 49.7585 18.8053 49.3896ZM17.3648 47.6998C18.2251 47.6998 19.0078 48.0509 19.5744 48.6156C20.1415 49.1805 20.493 49.9676 20.493 50.8303C20.493 51.693 20.1415 52.4754 19.5766 53.0404C19.0078 53.6095 18.2251 53.9611 17.3648 53.9611C16.4994 53.9611 15.7191 53.6095 15.1525 53.0448C14.5854 52.4754 14.2338 51.693 14.2338 50.8303C14.2338 49.9676 14.5854 49.1807 15.1503 48.6156L15.1811 48.589C15.7459 48.0377 16.5156 47.6998 17.3648 47.6998ZM42.5042 9.71554H14.2273V12.8907H42.5042V9.71554ZM13.6806 8.62137H43.0515C43.3512 8.62137 43.5962 8.86604 43.5962 9.16838V13.4372C43.5962 13.7397 43.3512 13.9842 43.0515 13.9842H13.6806C13.3801 13.9842 13.1337 13.7395 13.1337 13.4372V9.16838C13.1337 8.86604 13.3801 8.62137 13.6806 8.62137ZM3.9356 19.1826V18.1999H0V19.1826H3.9356ZM3.9356 17.1059V13.4685C3.9356 13.3707 3.89093 13.2772 3.82605 13.2106L3.8063 13.1883C3.74407 13.1349 3.65928 13.1038 3.57088 13.1038H0.0423186L0.00877732 13.1128L0 13.1436V17.1057L3.9356 17.1059ZM0 44.5335H1.4186V22.4866C1.4186 22.1841 1.66562 21.9396 1.96529 21.9396C2.26779 21.9396 2.51261 22.1842 2.51261 22.4866V44.5335H3.9356V20.2765H0V44.5335ZM3.9356 45.6273H0V47.8418L1.96545 51.9864L3.93576 47.8418L3.9356 45.6273ZM13.6806 20.1345C13.3801 20.1345 13.1337 19.8853 13.1337 19.5875C13.1337 19.285 13.3801 19.0405 13.6806 19.0405H24.4369C24.7394 19.0405 24.9843 19.2851 24.9843 19.5875C24.9843 19.8853 24.7394 20.1345 24.4369 20.1345H13.6806ZM13.6806 23.8875C13.3801 23.8875 13.1337 23.6428 13.1337 23.3447C13.1337 23.0425 13.3801 22.798 13.6806 22.798H41.1945C41.497 22.798 41.7418 23.0427 41.7418 23.3447C41.7418 23.6428 41.4969 23.8875 41.1945 23.8875H13.6806ZM13.6806 27.6449C13.3801 27.6449 13.1337 27.4004 13.1337 27.0979C13.1337 26.8001 13.3801 26.5512 13.6806 26.5512H41.1945C41.497 26.5512 41.7418 26.8001 41.7418 27.0979C41.7418 27.4005 41.4969 27.6449 41.1945 27.6449H13.6806ZM13.6806 31.4023C13.3801 31.4023 13.1337 31.1578 13.1337 30.8553C13.1337 30.5529 13.3801 30.3086 13.6806 30.3086H41.1945C41.497 30.3086 41.7418 30.5531 41.7418 30.8553C41.7418 31.1579 41.4969 31.4023 41.1945 31.4023H13.6806ZM13.6806 35.1598C13.3801 35.1598 13.1337 34.9151 13.1337 34.6131C13.1337 34.3105 13.3801 34.0661 13.6806 34.0661H41.1945C41.497 34.0661 41.7418 34.3106 41.7418 34.6131C41.7418 34.9153 41.4969 35.1598 41.1945 35.1598H13.6806ZM13.6806 38.9171C13.3801 38.9171 13.1337 38.6725 13.1337 38.3704C13.1337 38.0679 13.3801 37.8234 13.6806 37.8234H41.1945C41.497 37.8234 41.7418 38.068 41.7418 38.3704C41.7418 38.6727 41.4969 38.9171 41.1945 38.9171H13.6806ZM30.438 42.6749C30.1355 42.6749 29.8913 42.4257 29.8913 42.1279C29.8913 41.8256 30.1355 41.5809 30.438 41.5809H41.1945C41.497 41.5809 41.7418 41.8257 41.7418 42.1279C41.7418 42.4257 41.4969 42.6749 41.1945 42.6749H30.438ZM35.5206 53.5026C35.2626 53.6583 34.927 53.5825 34.7692 53.3249C34.6092 53.0713 34.6888 52.7334 34.9446 52.5732C34.9556 52.5689 39.0669 50.0253 40.2566 52.7332C40.3366 52.9155 40.432 53.0625 40.5367 53.1735C40.7632 53.4137 41.0635 53.5161 41.3926 53.5203C41.782 53.5293 42.2243 53.405 42.6622 53.2134C43.3228 52.9244 43.9585 52.4752 44.4207 52.044C44.6413 51.8351 44.9856 51.8486 45.1925 52.0663C45.3972 52.2843 45.3883 52.6312 45.1682 52.8355C44.6233 53.347 43.8763 53.8716 43.1028 54.214C42.5357 54.4632 41.9423 54.6189 41.3795 54.6098C40.7613 54.6008 40.1897 54.3965 39.7432 53.9206C39.554 53.7206 39.3894 53.467 39.2585 53.1735C38.5713 51.6085 35.5295 53.4982 35.5206 53.5026ZM48.3227 5.26866H11.775H8.40865V57.3983H13.9049V55.7483C13.6227 55.5485 13.3582 55.3259 13.1133 55.0814L13.0826 55.0458L13.0469 55.0099L13.0314 54.9968L13.0177 54.9791L12.9623 54.9212L12.9336 54.8902H12.9314C12.0684 53.9252 11.5393 52.7735 11.3929 51.5238L11.3907 51.5149L11.3857 51.4749L11.3835 51.4392L11.3813 51.426L11.3769 51.377L11.3747 51.3635L11.3725 51.3279L11.3703 51.288L11.3681 51.2789L11.3659 51.2298L11.3637 51.2122L11.3615 51.1765L11.3593 51.1365V51.1278L11.3571 51.0787V51.0608L11.3549 51.0298L11.3527 50.9808V50.9317V50.9051V50.8784V50.8293V50.7538V50.7494V50.6737L11.3571 50.5982L11.3593 50.5229V50.5184L11.3637 50.443L11.3703 50.3675L11.3747 50.2919L11.3835 50.2164L11.3929 50.1407L11.4017 50.0651L11.4104 49.9896L11.4214 49.9143L11.4324 49.843V49.8388L11.4462 49.7675L11.4593 49.6919L11.4725 49.6208L11.4901 49.5454L11.506 49.4744L11.5214 49.4031V49.3987L11.5615 49.2565L11.6237 49.0432L11.6457 48.9763V48.9719L11.6683 48.9051V48.9007L11.6924 48.8341C11.9927 47.9757 12.4861 47.2064 13.1132 46.5795C13.3492 46.3438 13.6072 46.1257 13.8828 45.9303L14.0625 45.8057L14.1224 45.7657C15.0945 45.1654 16.057 44.8584 17.2088 44.8228L17.2842 44.8186H17.3645H17.4398L17.5179 44.8228H17.5955L17.6709 44.8274L17.7489 44.8316L17.8243 44.836H17.8265L17.9024 44.8451L17.9756 44.8495H17.9778L18.0514 44.8582H18.0536L18.1268 44.8675H18.129L18.2022 44.8764H18.205L18.276 44.8896H18.2782L18.3514 44.8987H18.3536L18.4273 44.9118L18.4983 44.9253H18.5027L18.5737 44.9429L18.6453 44.9563H18.6497L18.7207 44.9742L18.7923 44.9918H18.7945L18.9343 45.0277H18.9387L19.15 45.0897H19.1522L19.2193 45.112H19.2214L19.2901 45.1344L19.3589 45.161C20.2175 45.4588 20.9886 45.9526 21.6157 46.5795L21.6377 46.6061L21.696 46.6641L21.7135 46.6817L21.7444 46.7176L21.7626 46.735L21.7933 46.7709L21.8115 46.7884L21.84 46.8242L21.8604 46.8419L21.8867 46.8778L21.9071 46.8951L21.9358 46.931C22.8121 47.9534 23.2675 49.1452 23.3632 50.4439V50.4483L23.3675 50.5193V50.5239L23.3697 50.5991L23.3719 50.6747V50.6794L23.3741 50.7504V50.7547V50.8303V50.8793V50.906V50.9284L23.3719 50.9773V50.9861V51.0264L23.3697 51.0619V51.0751L23.3675 51.1242V51.1376L23.3654 51.1732L23.3632 51.2177V51.222L23.3588 51.271V51.2934L23.3544 51.3201L23.35 51.3691L23.3456 51.4135C23.3121 51.8091 23.2208 52.2451 23.1052 52.6185L23.1008 52.6229L23.0876 52.6674L23.0832 52.6896L23.0745 52.7117L23.0585 52.7564V52.7606L23.0429 52.8008C22.7405 53.668 22.2471 54.4504 21.6156 55.082L21.5914 55.1044L21.5798 55.1132L21.5733 55.1223L21.5425 55.149L21.5287 55.1621L21.5134 55.1801L21.4825 55.2068L21.4776 55.211L21.4513 55.2378L21.4244 55.2601L21.42 55.2645L21.387 55.2955L21.3711 55.309L21.3557 55.3221L21.3222 55.3533H21.3178L21.2914 55.38L21.2645 55.4024L21.2601 55.4066L21.227 55.4333L21.2088 55.4467L21.1598 55.4914L21.1532 55.4957L21.1269 55.5181L21.0999 55.5402L21.0955 55.5447L21.0604 55.5714L21.0422 55.5847L21.0269 55.5934L20.9933 55.6201L20.9867 55.6248L20.9582 55.6469L20.9291 55.6692L20.9247 55.6735L20.8911 55.696L20.8714 55.7094L20.856 55.7226L20.8203 55.7492V57.3992H48.3231V53.6904L48.3227 5.26866Z" fill="white"/>
</svg>
