<svg width="59" height="60" viewBox="0 0 59 60" fill="none" xmlns="http://www.w3.org/2000/svg">
<path d="M45.2239 18.1056C45.125 16.2178 44.6856 14.3634 43.927 12.632H34.0323L38.8207 21.6098C38.9044 21.7669 38.9468 21.9428 38.9441 22.1208C38.9413 22.2988 38.8934 22.4732 38.8049 22.6277L35.4976 28.4213H35.7892C36.3475 28.4213 36.883 28.6431 37.2778 29.0379C37.6726 29.4328 37.8944 29.9682 37.8944 30.5266V31.5792C37.8933 31.9471 37.7955 32.3082 37.6107 32.6264C37.426 32.9445 37.1608 33.2085 36.8418 33.3918V37.895H55.789V12.632H46.2102C46.8644 14.3771 47.2406 16.2142 47.3249 18.0761C48.0301 18.316 48.6279 18.7975 49.0125 19.4355C49.397 20.0734 49.5437 20.8268 49.4266 21.5625C49.3094 22.2981 48.936 22.9687 48.3722 23.4556C47.8085 23.9425 47.0908 24.2145 46.3459 24.2234C45.601 24.2324 44.877 23.9777 44.3017 23.5044C43.7264 23.0312 43.337 22.3698 43.2022 21.6371C43.0675 20.9045 43.196 20.1478 43.5652 19.5008C43.9343 18.8538 44.5204 18.3581 45.2196 18.1014L45.2239 18.1056Z" fill="white"/>
<path d="M24.2104 33.6846H34.7367V37.8951H24.2104V33.6846Z" fill="white"/>
<path d="M35.7903 31.579L35.7892 30.5264H23.1577V31.579H35.7903Z" fill="white"/>
<path d="M46.3154 22.1057C46.8968 22.1057 47.3681 21.6345 47.3681 21.0531C47.3681 20.4718 46.8968 20.0005 46.3154 20.0005C45.7341 20.0005 45.2628 20.4718 45.2628 21.0531C45.2628 21.6345 45.7341 22.1057 46.3154 22.1057Z" fill="white"/>
<path d="M57.8944 47.3687C58.1735 47.3687 58.4413 47.2578 58.6387 47.0604C58.8361 46.863 58.947 46.5953 58.947 46.3161V43.1582H0V46.3161C0 46.5953 0.110901 46.863 0.308307 47.0604C0.505712 47.2578 0.773451 47.3687 1.05262 47.3687H57.8944ZM51.5786 44.2108H53.6839C53.963 44.2108 54.2308 44.3217 54.4282 44.5191C54.6256 44.7165 54.7365 44.9843 54.7365 45.2635C54.7365 45.5426 54.6256 45.8104 54.4282 46.0078C54.2308 46.2052 53.963 46.3161 53.6839 46.3161H51.5786C51.2994 46.3161 51.0317 46.2052 50.8343 46.0078C50.6369 45.8104 50.526 45.5426 50.526 45.2635C50.526 44.9843 50.6369 44.7165 50.8343 44.5191C51.0317 44.3217 51.2994 44.2108 51.5786 44.2108Z" fill="white"/>
<path d="M42.105 56.8422C42.105 56.563 41.9941 56.2953 41.7967 56.0979C41.5993 55.9005 41.3316 55.7896 41.0524 55.7896H17.8947C17.6155 55.7896 17.3478 55.9005 17.1503 56.0979C16.9529 56.2953 16.842 56.563 16.842 56.8422V60H42.105V56.8422Z" fill="white"/>
<path d="M24.2104 49.4739H34.7367V53.6844H24.2104V49.4739Z" fill="white"/>
<path d="M32.3503 9.474L32.9124 10.5266H42.8166C42.5892 10.1666 42.3513 9.814 42.0955 9.474H32.3503Z" fill="white"/>
<path d="M12.6315 22.1057C13.2128 22.1057 13.6841 21.6345 13.6841 21.0531C13.6841 20.4718 13.2128 20.0005 12.6315 20.0005C12.0501 20.0005 11.5789 20.4718 11.5789 21.0531C11.5789 21.6345 12.0501 22.1057 12.6315 22.1057Z" fill="white"/>
<path d="M13.723 18.1056C14.4223 18.3623 15.0083 18.858 15.3775 19.505C15.7467 20.152 15.8752 20.9087 15.7404 21.6414C15.6057 22.374 15.2162 23.0354 14.641 23.5087C14.0657 23.9819 13.3417 24.2366 12.5968 24.2277C11.8519 24.2187 11.1342 23.9467 10.5705 23.4598C10.0067 22.9729 9.63327 22.3023 9.51611 21.5667C9.39895 20.831 9.54563 20.0776 9.93021 19.4397C10.3148 18.8017 10.9125 18.3202 11.6178 18.0803C11.7025 16.2167 12.0801 14.3781 12.7367 12.632H3.15784V37.895H22.1051V33.3918C21.7861 33.2085 21.5209 32.9445 21.3362 32.6264C21.1514 32.3082 21.0536 31.9471 21.0525 31.5792V30.5266C21.0525 29.9682 21.2743 29.4328 21.6691 29.0379C22.0639 28.6431 22.5994 28.4213 23.1577 28.4213H23.4493L20.1388 22.6319C20.0504 22.4773 20.0028 22.3029 20.0002 22.1248C19.9976 21.9468 20.0402 21.7711 20.124 21.614L24.9124 12.632H15.0178C14.2599 14.3636 13.8212 16.2179 13.723 18.1056Z" fill="white"/>
<path d="M29.4735 21.053C30.0549 21.053 30.5261 20.5817 30.5261 20.0004C30.5261 19.419 30.0549 18.9478 29.4735 18.9478C28.8922 18.9478 28.4209 19.419 28.4209 20.0004C28.4209 20.5817 28.8922 21.053 29.4735 21.053Z" fill="white"/>
<path d="M0 10.5266V41.0527H58.947V10.5266C58.947 10.2475 58.8361 9.97971 58.6387 9.78231C58.4413 9.5849 58.1735 9.474 57.8944 9.474H44.6418C44.8523 9.8161 45.0513 10.1698 45.2429 10.5266H56.8417C57.1209 10.5266 57.3887 10.6375 57.5861 10.8349C57.7835 11.0323 57.8944 11.3001 57.8944 11.5792V38.9475C57.8944 39.2267 57.7835 39.4944 57.5861 39.6918C57.3887 39.8892 57.1209 40.0001 56.8417 40.0001H2.10525C1.82608 40.0001 1.55834 39.8892 1.36093 39.6918C1.16353 39.4944 1.05262 39.2267 1.05262 38.9475V11.5792C1.05262 11.3001 1.16353 11.0323 1.36093 10.8349C1.55834 10.6375 1.82608 10.5266 2.10525 10.5266H13.7052C13.8957 10.1698 14.0904 9.8161 14.3052 9.474H1.05262C0.773451 9.474 0.505712 9.5849 0.308307 9.78231C0.110901 9.97971 0 10.2475 0 10.5266Z" fill="white"/>
<path d="M25.8736 28.4213H28.4209V22.9645C27.7186 22.7162 27.1267 22.2276 26.7497 21.585C26.3728 20.9425 26.2352 20.1874 26.3611 19.4532C26.4871 18.719 26.8686 18.053 27.4381 17.5728C28.0077 17.0927 28.7286 16.8293 29.4735 16.8293C30.2185 16.8293 30.9394 17.0927 31.509 17.5728C32.0785 18.053 32.46 18.719 32.5859 19.4532C32.7119 20.1874 32.5743 20.9425 32.1973 21.585C31.8204 22.2276 31.2285 22.7162 30.5262 22.9645V28.4213H33.0735L36.6914 22.0876L29.4735 8.55298L22.2546 22.0876L25.8736 28.4213Z" fill="white"/>
<path d="M16.1304 10.5266H26.0345L26.5966 9.474H16.8514C16.5956 9.814 16.3577 10.1666 16.1304 10.5266Z" fill="white"/>
<path d="M52.6313 0.000395019C52.2531 0.00149457 51.8823 0.104789 51.5581 0.299349C51.2338 0.49391 50.9681 0.772501 50.7892 1.10565C50.7041 1.07684 50.6157 1.05915 50.5261 1.05302H31.5788C31.4892 1.05915 31.4007 1.07684 31.3157 1.10565C31.1377 0.771684 30.8723 0.492385 30.5478 0.297632C30.2233 0.102879 29.852 0 29.4736 0C29.0951 0 28.7238 0.102879 28.3993 0.297632C28.0749 0.492385 27.8094 0.771684 27.6315 1.10565C27.5464 1.07684 27.4579 1.05915 27.3683 1.05302H8.42107C8.33145 1.05915 8.243 1.07684 8.15791 1.10565C7.93533 0.69329 7.58153 0.366978 7.15255 0.178397C6.72357 -0.0101839 6.24394 -0.0502525 5.78961 0.0645372C5.33529 0.179327 4.93225 0.442413 4.64433 0.812126C4.35641 1.18184 4.20007 1.63704 4.20007 2.10564C4.20007 2.57424 4.35641 3.02945 4.64433 3.39916C4.93225 3.76888 5.33529 4.03196 5.78961 4.14675C6.24394 4.26154 6.72357 4.22147 7.15255 4.03289C7.58153 3.84431 7.93533 3.518 8.15791 3.10564C8.243 3.13445 8.33145 3.15214 8.42107 3.15827H21.0684C19.0798 4.22214 17.3091 5.65046 15.8484 7.36877H18.7484C21.1645 5.1161 24.2302 3.68382 27.5083 3.27616C27.5712 3.2617 27.6325 3.24125 27.6915 3.21511C27.8788 3.51943 28.1409 3.77071 28.4529 3.94502C28.7648 4.11932 29.1162 4.21083 29.4736 4.21083C29.8309 4.21083 30.1823 4.11932 30.4943 3.94502C30.8062 3.77071 31.0683 3.51943 31.2557 3.21511C31.3146 3.24125 31.376 3.2617 31.4388 3.27616C34.7128 3.68422 37.774 5.11665 40.1851 7.36877H43.0524C41.5959 5.65385 39.832 4.22589 37.8514 3.15827H50.5261C50.6157 3.15214 50.7041 3.13445 50.7892 3.10564C50.9662 3.43347 51.227 3.70847 51.545 3.90257C51.863 4.09667 52.2268 4.2029 52.5992 4.21044C52.9717 4.21797 53.3395 4.12653 53.6651 3.94545C53.9906 3.76437 54.2623 3.50013 54.4524 3.17972C54.6425 2.85931 54.7441 2.4942 54.747 2.12166C54.7498 1.74913 54.6537 1.38251 54.4686 1.05924C54.2834 0.735966 54.0158 0.467622 53.693 0.281599C53.3702 0.0955772 53.0038 -0.00145993 52.6313 0.000395019Z" fill="white"/>
</svg>
