<svg width="53" height="60" viewBox="0 0 53 60" fill="none" xmlns="http://www.w3.org/2000/svg">
<path d="M14.6831 2.49209C14.6831 1.12665 13.5565 0 12.1788 0H11.7502C10.3725 0 9.24585 1.12665 9.24585 2.49209V7.21911H14.6831V2.49209Z" fill="white"/>
<path d="M43.4162 2.49209C43.4162 1.12665 42.2895 0 40.9118 0H40.4832C39.1055 0 37.9789 1.12665 37.9789 2.49209V7.21911H43.4162V2.49209Z" fill="white"/>
<path d="M47.9192 7.21899H43.8902V12.4726C43.8902 13.838 42.7636 14.9647 41.3981 14.9647H40.9512C39.5857 14.9647 38.4591 13.838 38.4591 12.4726V7.21899H14.6832V12.4726C14.6832 13.838 13.5565 14.9647 12.1788 14.9647H11.7502C10.3725 14.9647 9.24586 13.838 9.24586 12.4726V7.21899H4.83724C2.1737 7.21899 7.62939e-06 9.39269 7.62939e-06 12.0562V55.1627C7.62939e-06 57.8262 2.1737 59.9999 4.83724 59.9999H37.0446L52.7626 44.0371V12.0562C52.7565 9.39269 50.5889 7.21899 47.9192 7.21899ZM50.4113 44.2636L40.9144 44.233C38.2509 44.2146 36.5854 45.9781 36.6038 48.6294L36.6528 57.6242H4.69029C3.48404 57.6242 2.21656 56.8282 2.21656 55.4015V17.0404L50.4113 17.022V44.2636Z" fill="white"/>
<path d="M18.3316 28.8164H18.1206L13.9722 31.6758V28.3828L18.3433 25.3711H21.8706V42.2812H18.3316V28.8164ZM34.5152 28.5V28.2773H26.1362V25.3594H38.0542V28.3125L30.9878 42.2812H27.2847L34.5152 28.5Z" fill="white"/>
</svg>
