<svg width="37" height="60" viewBox="0 0 37 60" fill="none" xmlns="http://www.w3.org/2000/svg">
<path d="M0.00547448 51.0706L0.830026 55.8375C0.8342 55.8667 0.853213 55.8918 0.880111 55.9038C0.907009 55.9159 0.93808 55.9136 0.963123 55.8973L5.16476 53.5105C5.24685 53.4534 5.31502 53.3783 5.36418 53.2911L6.60053 50.6783L5.75604 47.4673L8.59465 46.4433L9.25967 45.0604L8.42213 42.5539L8.92762 41.4701L11.0154 40.9187L10.1046 38.8574L10.9691 37.0223L13.0036 37.122L15.6627 31.5106L16.5202 31.9094L17.4045 30.0478L17.737 30.3933L17.7366 30.3943C18.2472 30.9257 18.851 31.3584 19.5183 31.6705C20.8813 32.3161 22.4348 32.4343 23.8799 32.003L23.7603 30.6735C22.0077 29.9816 20.4806 28.8185 19.3472 27.3131C18.2138 25.8082 17.5186 24.0191 17.3377 22.1436C17.1666 20.2125 17.5566 18.2731 18.4614 16.5587C17.9605 16.0931 17.6197 15.4809 17.4884 14.8094C17.3572 14.1384 17.4416 13.4427 17.73 12.8228C18.0983 12.0502 18.7577 11.4548 19.5637 11.1672C20.3697 10.8792 21.2573 10.9224 22.0313 11.2869C22.4306 11.4751 22.7863 11.7446 23.0752 12.078C23.6108 11.8211 24.1664 11.6101 24.7373 11.4464C24.1437 10.8022 23.4328 10.2768 22.6429 9.89745C21.0101 9.12808 19.1383 9.03766 17.4387 9.64564C15.7386 10.2536 14.3492 11.5109 13.5747 13.1418C13.3586 13.6005 13.1958 14.0823 13.0896 14.5776L13.0099 14.963L12.6444 14.8169H12.644C10.6503 14.0772 8.41549 14.4186 6.73345 15.7203C5.0519 17.0221 4.16102 19.0997 4.37709 21.2153C4.59366 23.3309 5.88662 25.1851 7.79731 26.1195C8.46372 26.4354 9.18254 26.6269 9.91801 26.6844L10.4036 26.7243L9.48579 28.5992L10.3368 28.9981L0.0451289 50.7785C0.00524594 50.8704 -0.00866545 50.9719 0.00524623 51.0712L0.00547448 51.0706Z" fill="white"/>
<path d="M36.8848 20.3493C36.6938 18.3779 35.8864 16.5174 34.5776 15.0305C34.4515 15.1965 34.3318 15.3695 34.1987 15.529C33.1191 16.8313 31.7358 17.8473 30.1701 18.4878C29.9326 19.0517 29.5473 19.5414 29.0548 19.9041C28.5618 20.2672 27.9802 20.4898 27.3708 20.5487H27.0583C26.6437 20.5441 26.2337 20.4629 25.8484 20.3094L25.5428 20.1564C25.4431 20.1031 25.3369 20.0567 25.2437 19.9969C24.4237 19.4784 23.8663 18.6321 23.7137 17.674C23.5607 16.7159 23.8273 15.7387 24.4455 14.9907C24.881 14.4629 25.4681 14.0822 26.1275 13.9004C26.237 13.8712 26.3478 13.8489 26.4601 13.8341C26.5533 13.8341 26.6395 13.7942 26.7327 13.7877V13.7872C26.7504 13.784 26.7684 13.784 26.7861 13.7872C27.3959 13.7376 28.0081 13.8573 28.5544 14.1332C29.3637 13.784 30.0793 13.2488 30.6422 12.5708C30.6923 12.5091 30.7387 12.4447 30.7818 12.3779C29.4333 11.8613 27.9849 11.6591 26.5468 11.7862C26.321 11.7862 26.0947 11.846 25.8818 11.8859L25.5293 11.9457C25.4125 11.9675 25.297 11.9962 25.1838 12.0324C24.5796 12.1771 23.9915 12.3821 23.4286 12.6441C23.3289 12.6905 23.2291 12.7373 23.1359 12.7902L22.8368 12.9432C21.3728 13.7617 20.1508 14.9517 19.2932 16.3935C19.2334 16.4932 19.1736 16.5794 19.1203 16.6791C19.0669 16.7788 19.0206 16.8786 18.9742 16.9783V16.9787C18.1696 18.5578 17.8287 20.3326 17.9901 22.0976C18.1594 23.884 18.8295 25.586 19.9235 27.0078C21.017 28.4297 22.4903 29.5138 24.1733 30.1358L24.3662 30.2091L24.5123 31.7849V32.0905H24.6584L25.4431 32.0172V32.0705L27.6436 56.0046V56.0041C27.651 56.1048 27.6909 56.2003 27.7567 56.2768L30.888 59.9664C30.9079 59.9891 30.9376 60.0012 30.9677 59.9998C30.9932 59.998 31.016 59.9827 31.0276 59.9599L33.4409 55.7514C33.4891 55.6647 33.51 55.565 33.5007 55.4657L33.235 52.5938L30.9078 50.2267L32.8426 47.9066L32.703 46.3841L30.7084 44.6488L30.5953 43.4588L32.1113 41.903L30.2833 40.5734L30.0973 38.5788L31.899 37.6281L31.3272 31.4519L32.2644 31.3657L32.0984 29.4842L32.2779 29.378L32.2774 29.3775C33.8162 28.4574 35.0646 27.1228 35.8794 25.5261C36.6942 23.9289 37.0425 22.1352 36.8848 20.3493L36.8848 20.3493Z" fill="white"/>
<path d="M25.4889 0.0384284C23.3835 0.165495 21.3972 1.05869 19.9044 2.54878C18.4116 4.03931 17.5156 6.02408 17.3848 8.12912C18.041 7.97561 18.7074 7.86895 19.3789 7.81006C19.5983 4.61896 22.038 2.30534 25.6947 1.9728H25.6952C27.3976 1.81467 29.0991 2.2863 30.4774 3.29867C31.8556 4.31058 32.8151 5.79323 33.1736 7.46505C33.5321 9.13735 33.265 10.8824 32.4233 12.3711C32.37 12.4643 32.3101 12.557 32.2503 12.6502C32.1905 12.7435 32.1307 12.8432 32.0644 12.9359C31.998 13.0291 31.8385 13.255 31.7119 13.408C31.1503 14.0684 30.4751 14.6225 29.7173 15.0436L29.4182 15.1967L29.0991 15.3428C28.5996 15.5658 28.0751 15.7267 27.5367 15.8213C27.667 16.4562 27.7621 17.0976 27.8224 17.7427C28.4893 17.6277 29.1408 17.4362 29.7637 17.1709L30.0962 17.0248C30.2094 16.9785 30.3156 16.9117 30.4287 16.8588C31.4796 16.3097 32.4103 15.557 33.1676 14.6449C33.3272 14.452 33.4732 14.2526 33.6198 14.0467L33.8127 13.761L33.9857 13.4818V13.4813C35.1126 11.5855 35.4975 9.33907 35.0658 7.17574C34.634 5.01277 33.4166 3.08641 31.6479 1.76838C29.8792 0.449984 27.6851 -0.166413 25.4888 0.0386175L25.4889 0.0384284Z" fill="white"/>
</svg>
