<svg width="44" height="60" viewBox="0 0 44 60" fill="none" xmlns="http://www.w3.org/2000/svg">
<path d="M21.4816 0.0571032C21.3757 0.0803685 20.7879 0.750779 20.1763 1.55037C18.4473 3.78445 18.0597 3.8671 15.6842 2.50302C13.3914 1.17445 13.2028 1.24486 12.5679 3.62037C12.121 5.32547 11.8859 5.85445 11.4389 6.14894C10.8273 6.54874 10.4746 6.572 8.65199 6.32527C7.05281 6.1018 6.87648 6.09017 6.6175 6.26649C6.10015 6.60751 6.06464 6.80711 6.27648 8.35976C6.54709 10.3 6.53546 10.8057 6.22934 11.3114C5.86505 11.8991 5.41811 12.1226 3.71301 12.5579C1.24383 13.2045 1.1728 13.393 2.47811 15.6387C3.2777 17.0028 3.32485 17.1204 3.33648 17.814C3.33648 18.7428 3.2073 18.9191 1.50219 20.2251C-0.520053 21.7771 -0.50842 21.9302 1.58485 23.5532C3.1724 24.7753 3.39587 25.0814 3.39587 25.9869C3.39587 26.41 3.24281 26.7632 2.51362 28.0092C1.52607 29.691 1.43178 30.1379 1.91362 30.5255C2.06668 30.643 2.94832 30.9485 3.86607 31.1959C6.52383 31.9134 6.72342 32.2306 6.32362 35.0647C6.11179 36.6755 6.10015 36.8285 6.27648 37.0875C6.60587 37.5932 6.8526 37.6287 8.68689 37.3936C10.4275 37.1702 10.921 37.1934 11.4506 37.5345C11.9208 37.8406 12.0855 38.2049 12.5557 39.9455C12.8024 40.8626 13.0969 41.7094 13.2144 41.8385C13.591 42.2616 14.0728 42.1441 15.6487 41.2269C16.8597 40.5332 17.2008 40.3802 17.742 40.3453C18.6242 40.2749 18.9646 40.5216 20.2351 42.1918C21.7755 44.2147 21.9402 44.2147 23.5161 42.1685C24.1277 41.3806 24.7742 40.6398 24.9744 40.5222C25.1979 40.393 25.5506 40.3104 25.9155 40.3104C26.4328 40.3104 26.6918 40.4163 28.032 41.1926C29.7255 42.1685 30.1485 42.2745 30.5251 41.792C30.6542 41.6389 30.9481 40.7806 31.1955 39.8867C31.7012 38.0408 31.9602 37.6055 32.7126 37.3116C33.2067 37.1236 33.3242 37.1236 35.0293 37.3704C36.6757 37.5938 36.8404 37.6055 37.111 37.4292C37.6051 37.0998 37.64 36.853 37.4049 35.0187C37.1814 33.2781 37.2046 32.7847 37.5463 32.2551C37.8634 31.7726 38.24 31.5963 39.9689 31.1377C40.8744 30.9026 41.7212 30.6087 41.8504 30.4912C42.2734 30.103 42.1559 29.6328 41.2387 28.0569C40.5451 26.8459 40.392 26.5049 40.3565 25.9636C40.2861 25.0814 40.5328 24.7404 42.1436 23.5177C44.2369 21.9302 44.2369 21.7655 42.1204 20.143C40.5444 18.9198 40.321 18.6143 40.321 17.7087C40.321 17.2973 40.4857 16.9208 41.2032 15.6743C42.1442 14.0396 42.2618 13.581 41.8498 13.2051C41.7206 13.0875 40.8971 12.7936 40.0271 12.5463C38.063 12.0057 37.7575 11.8287 37.3926 11.1118L37.122 10.5589L37.3693 8.72466C37.6044 7.03119 37.6161 6.86649 37.4398 6.59588C37.0987 6.09017 36.8636 6.0669 35.041 6.302C33.2887 6.5371 32.7953 6.51384 32.2657 6.16057C31.7955 5.85506 31.6308 5.49017 31.16 3.75017C30.9132 2.83302 30.6193 1.98629 30.5018 1.8571C30.1253 1.43343 29.6434 1.55098 28.0675 2.46874C26.8565 3.16241 26.5155 3.31547 25.9742 3.35098C25.092 3.42139 24.751 3.17466 23.5283 1.56384C22.3755 0.0448589 22.152 -0.119223 21.4816 0.0571032ZM24.1277 7.2069C28.5022 7.86568 32.3122 10.464 34.6522 14.3916C36.8747 18.1312 37.2744 22.7996 35.734 27.0332C34.9932 29.1032 33.3236 31.5253 31.7006 32.9249C29.6428 34.7004 27.4081 35.8177 24.7975 36.3822C23.3275 36.7 20.1995 36.6883 18.7412 36.3467C14.2497 35.3004 10.6044 32.4547 8.58158 28.4561C8.01709 27.3271 7.4177 25.4218 7.2175 24.1165C6.25321 17.7081 9.47546 11.4871 15.2844 8.55935C16.3314 8.03037 18.2949 7.39486 19.471 7.21853C20.8583 6.99507 22.7281 6.99507 24.1277 7.2069Z" fill="white"/>
<path d="M21.1406 10.3465L20.6232 11.4399L20.0943 11.522C19.8004 11.5575 19.2591 11.6279 18.8832 11.675C18.4596 11.7222 18.1779 11.8165 18.1308 11.9218C18.0953 12.0161 18.4247 12.4159 18.9775 12.9332L19.883 13.7916L19.6479 14.9677C19.5187 15.6142 19.4361 16.1787 19.46 16.2259C19.5775 16.4138 19.9185 16.3079 20.8124 15.7905C21.3181 15.4967 21.7883 15.2616 21.8594 15.2616C21.9298 15.2616 22.4122 15.5083 22.9296 15.8022C23.4469 16.0961 23.9643 16.3195 24.0702 16.2963C24.2936 16.2491 24.2936 16.1432 24.0114 14.732L23.8351 13.791L24.7406 12.9326C25.2934 12.4152 25.6228 12.0154 25.5873 11.9212C25.5402 11.8152 25.2579 11.721 24.8349 11.6744C24.4583 11.6273 23.9177 11.5569 23.6238 11.5214L23.0949 11.4393L22.5775 10.3459C22.2249 9.6283 21.9898 9.26402 21.8606 9.26402C21.7289 9.26463 21.4932 9.62891 21.1406 10.3465Z" fill="white"/>
<path d="M12.9444 16.285L12.3916 17.4373L11.2393 17.5665C10.6044 17.6369 10.0161 17.7667 9.94565 17.8487C9.83973 17.9546 10.0161 18.1781 10.7452 18.8485L11.674 19.7069L11.4744 20.7655C11.2393 22.0236 11.2277 22.1883 11.4273 22.2704C11.5216 22.2936 12.015 22.0824 12.533 21.7885C13.062 21.4946 13.5677 21.2595 13.662 21.2595C13.7563 21.2595 14.2614 21.4946 14.7793 21.7885C16.1667 22.5765 16.1905 22.5526 15.8612 20.9418L15.6144 19.7895L16.5083 18.9312C16.9901 18.461 17.3905 18.0024 17.3905 17.9197C17.3905 17.7195 17.1316 17.6608 15.9444 17.5555C15.4387 17.5083 14.9685 17.4024 14.8981 17.332C14.8393 17.2616 14.5571 16.7559 14.2865 16.203C14.0275 15.6618 13.7336 15.1916 13.6516 15.1683C13.5677 15.1444 13.2854 15.5914 12.9444 16.285Z" fill="white"/>
<path d="M29.8663 15.2971C29.7959 15.3913 29.5492 15.8732 29.3134 16.3905C29.09 16.8962 28.8432 17.3548 28.7722 17.3903C28.7018 17.4375 28.2432 17.5079 27.7492 17.555C26.5853 17.6609 26.3263 17.7197 26.3263 17.9193C26.3263 18.002 26.7261 18.4605 27.2085 18.9307L28.0908 19.7891L27.8557 20.953C27.5379 22.5638 27.5496 22.5638 28.9375 21.7881C29.4549 21.4942 29.9606 21.2591 30.0549 21.2591C30.1492 21.2591 30.6543 21.4942 31.1838 21.7881C31.7012 22.082 32.1953 22.2938 32.2896 22.2699C32.4898 22.1879 32.4775 22.0232 32.2424 20.765L32.0422 19.7064L32.971 18.8481C33.7002 18.1777 33.8765 17.9542 33.7706 17.8483C33.7002 17.7662 33.1124 17.6364 32.4769 17.566L31.3247 17.4369L30.7718 16.2846C30.4663 15.6613 30.1602 15.144 30.1014 15.144C30.0543 15.1446 29.9483 15.215 29.8663 15.2971Z" fill="white"/>
<path d="M16.5897 24.9281C16.5309 25.0101 16.2842 25.5042 16.0485 26.0215C15.8134 26.5273 15.5544 26.9858 15.484 27.033C15.4014 27.0801 14.9079 27.1622 14.3667 27.1977C13.8377 27.2448 13.3081 27.3507 13.1905 27.4444C12.9903 27.5858 13.0491 27.6679 13.8958 28.5146L14.8014 29.4434L14.5662 30.6079C14.4016 31.4191 14.366 31.8073 14.4487 31.8899C14.543 31.9842 14.9073 31.8428 15.6836 31.4313L16.8009 30.8436L17.8473 31.3964C18.4234 31.7136 18.953 31.9609 19.0234 31.9609C19.1997 31.9609 19.1881 31.6315 18.953 30.4205L18.7528 29.3858L19.6938 28.5042C20.3875 27.8454 20.5877 27.5987 20.4934 27.4928C20.423 27.4224 19.9405 27.3042 19.4348 27.246C17.9299 27.0581 18.0475 27.1401 17.4591 25.9052C16.9307 24.7873 16.8132 24.6575 16.5897 24.9281Z" fill="white"/>
<path d="M26.2558 25.8923C25.6681 27.1388 25.7856 27.0568 24.2801 27.2447C23.7744 27.3035 23.2926 27.4211 23.2215 27.4915C23.1273 27.5974 23.3158 27.8441 24.0095 28.4913L24.9266 29.3496L24.7264 30.5962C24.6089 31.2782 24.5501 31.8782 24.6089 31.9254C24.656 31.9725 25.1966 31.749 25.8083 31.4313L26.914 30.8435L28.0313 31.4313C28.7605 31.8194 29.1836 31.9719 29.2546 31.9015C29.3366 31.8194 29.2901 31.3841 29.1487 30.6194C29.0195 29.9729 28.9491 29.4201 28.9724 29.3845C29.0079 29.349 29.4193 28.926 29.8779 28.4558C30.6658 27.6678 30.7246 27.5858 30.5244 27.4443C30.4069 27.3501 29.8656 27.2447 29.3134 27.1976C28.7605 27.1505 28.2548 27.0568 28.1844 26.9741C28.1024 26.8921 27.8317 26.3864 27.5728 25.8452C27.3022 25.3039 27.0199 24.8337 26.9379 24.8105C26.8442 24.7872 26.5852 25.1986 26.2558 25.8923Z" fill="white"/>
<path d="M34.0412 40.298C34.0057 40.4039 33.9003 40.8269 33.8061 41.2622C33.4063 43.0261 32.8185 44.0143 31.8071 44.602C30.5373 45.3429 29.1261 45.1898 27.421 44.1318L26.9152 43.8257L27.2208 44.6841C27.3971 45.1543 28.2205 47.4239 29.055 49.7173C29.8901 52.0102 30.5483 53.9743 30.525 54.0686C30.5018 54.1629 30.2195 54.6331 29.9134 55.1155C29.5252 55.7271 29.3257 55.939 29.2669 55.8208C29.2197 55.7265 28.291 53.2218 27.2091 50.2469C26.1273 47.272 25.2334 44.8255 25.2218 44.8022C25.1985 44.7906 24.8575 45.0845 24.4693 45.4726L23.7518 46.1663L26.2216 52.9751C27.5857 56.7147 28.7379 59.8427 28.785 59.9369C28.8793 60.09 29.0556 59.831 32.1248 55.1271C32.7481 54.1861 33.3242 53.4104 33.4185 53.3865C33.5128 53.3633 35.265 53.8567 37.3228 54.48C39.3689 55.1033 41.074 55.5973 41.0973 55.5618C41.1444 55.5147 35.6997 40.4626 35.5938 40.3684C35.5583 40.3329 35.2173 40.2624 34.8181 40.2153C34.2052 40.1333 34.0877 40.1449 34.0412 40.298Z" fill="white"/>
<path d="M8.41688 40.2979C8.08749 40.3683 8.00545 40.5801 5.32382 47.9417C3.80668 52.1044 2.59566 55.5385 2.61892 55.5617C2.64219 55.585 4.33566 55.1032 6.37015 54.4915C8.41627 53.8683 10.1569 53.3626 10.2506 53.3626C10.3565 53.3626 11.344 54.7621 12.5201 56.5732C13.6608 58.3254 14.6722 59.8426 14.7426 59.9246C14.8601 60.0538 14.9073 60.0305 15.0132 59.7483C15.072 59.5719 16.2242 56.4317 17.5534 52.7748L19.9761 46.1307L19.3412 45.5779C19.0001 45.2724 18.6004 44.7783 18.4589 44.496C18.1534 43.8373 17.7536 43.5434 17.3067 43.6609C17.1304 43.6964 16.6479 43.9315 16.2248 44.1783C15.2373 44.7544 14.6728 44.9307 13.861 44.9307C12.9671 44.9307 12.0971 44.613 11.4622 44.0607C11.1683 43.7901 10.9216 43.6021 10.9093 43.6254C10.9093 43.637 10.204 45.5656 9.35729 47.894L7.80525 52.116L6.74668 52.4454C6.17055 52.6217 5.65321 52.7748 5.6177 52.7748C5.57055 52.7748 6.51157 50.1054 7.69933 46.836C10.1097 40.2152 10.122 40.1803 9.22811 40.2036C8.96974 40.2152 8.59321 40.2507 8.41688 40.2979Z" fill="white"/>
</svg>
