<svg width="12" height="13" viewBox="0 0 12 13" fill="none" xmlns="http://www.w3.org/2000/svg">
<path d="M2.92353 7.23833C2.80588 7.23833 2.70784 7.19912 2.62941 7.12069C2.55098 7.04227 2.51176 6.94422 2.51176 6.82656C2.51176 6.71284 2.55098 6.61677 2.62941 6.53835C2.70784 6.45992 2.80588 6.4207 2.92353 6.4207H5.58823V2.86188C5.58823 2.74816 5.62744 2.65208 5.70588 2.57364C5.78431 2.49521 5.88038 2.456 5.99411 2.456C6.11174 2.456 6.20979 2.49521 6.28826 2.57364C6.36668 2.65208 6.4059 2.74816 6.4059 2.86188V6.82656C6.4059 6.94422 6.36668 7.04227 6.28826 7.12069C6.20979 7.19912 6.11174 7.23833 5.99411 7.23833H2.92353ZM5.99999 12.6031C6.81962 12.6031 7.59118 12.4462 8.31469 12.1324C9.03823 11.8187 9.67647 11.3854 10.2294 10.8324C10.7823 10.2795 11.2157 9.6413 11.5294 8.91775C11.8431 8.19425 12 7.42268 12 6.60306C12 5.78345 11.8431 5.01188 11.5294 4.28835C11.2157 3.56482 10.7823 2.92659 10.2294 2.37365C9.67647 1.82071 9.03725 1.38737 8.31174 1.07365C7.58627 0.759924 6.81372 0.603062 5.99411 0.603062C5.1745 0.603062 4.40294 0.759924 3.67941 1.07365C2.95588 1.38737 2.31862 1.82071 1.76764 2.37365C1.21667 2.92659 0.784313 3.56482 0.470588 4.28835C0.156863 5.01188 0 5.78345 0 6.60306C0 7.42268 0.156863 8.19425 0.470588 8.91775C0.784313 9.6413 1.21764 10.2795 1.77058 10.8324C2.32353 11.3854 2.96176 11.8187 3.68529 12.1324C4.40882 12.4462 5.18039 12.6031 5.99999 12.6031Z" fill="white"/>
</svg>
