<svg width="11" height="14" viewBox="0 0 11 14" fill="none" xmlns="http://www.w3.org/2000/svg">
<path d="M4.71045 13.7175C0.737461 7.95788 0 7.36676 0 5.25C0 2.3505 2.3505 0 5.25 0C8.1495 0 10.5 2.3505 10.5 5.25C10.5 7.36676 9.76254 7.95788 5.78955 13.7175C5.52882 14.0942 4.97115 14.0941 4.71045 13.7175ZM5.25 7.4375C6.45813 7.4375 7.4375 6.45813 7.4375 5.25C7.4375 4.04187 6.45813 3.0625 5.25 3.0625C4.04187 3.0625 3.0625 4.04187 3.0625 5.25C3.0625 6.45813 4.04187 7.4375 5.25 7.4375Z" fill="#333333"/>
</svg>
