<svg width="16" height="13" viewBox="0 0 16 13" fill="none" xmlns="http://www.w3.org/2000/svg">
<path d="M15.6804 4.20582C15.8021 4.10894 15.9832 4.19957 15.9832 4.35269V10.7433C15.9832 11.5714 15.312 12.2433 14.4848 12.2433H1.49842C0.671169 12.2433 0 11.5714 0 10.7433V4.35582C0 4.19957 0.177938 4.11207 0.302807 4.20894C1.00207 4.75269 1.92922 5.44332 5.11337 7.75894C5.77206 8.24019 6.88339 9.25269 7.9916 9.24644C9.10605 9.25582 10.2392 8.22144 10.8729 7.75894C14.0571 5.44332 14.9811 4.74957 15.6804 4.20582ZM7.9916 8.24332C8.71584 8.25582 9.75849 7.33082 10.2829 6.94957C14.4255 3.94019 14.7407 3.67769 15.696 2.92769C15.8771 2.78707 15.9832 2.56832 15.9832 2.33707V1.74332C15.9832 0.915193 15.312 0.243318 14.4848 0.243318H1.49842C0.671169 0.243318 0 0.915193 0 1.74332V2.33707C0 2.56832 0.106138 2.78394 0.287198 2.92769C1.24244 3.67457 1.55774 3.94019 5.70026 6.94957C6.2247 7.33082 7.26736 8.25582 7.9916 8.24332Z" fill="white"/>
</svg>
