<svg width="12" height="13" viewBox="0 0 12 13" fill="none" xmlns="http://www.w3.org/2000/svg">
<path d="M0.435929 1.09821L2.87338 0.535724C3.13822 0.474788 3.41009 0.613066 3.5179 0.861498L4.64287 3.48644C4.74131 3.71613 4.67569 3.98565 4.48116 4.14268L3.06088 5.30515C3.90461 7.10277 5.3788 8.59805 7.21392 9.45819L8.37639 8.03791C8.53576 7.84338 8.80295 7.77776 9.03263 7.87619L11.6576 9.00117C11.9084 9.11132 12.0466 9.38319 11.9857 9.64803L11.4232 12.0855C11.3646 12.3386 11.1396 12.5214 10.8748 12.5214C4.87256 12.5214 0 7.65823 0 1.64664C0 1.38414 0.180466 1.1568 0.435929 1.09821Z" fill="white"/>
</svg>
