<svg width="17" height="13" viewBox="0 0 17 13" fill="none" xmlns="http://www.w3.org/2000/svg">
<path d="M9.25574 12.469C3.44755 12.469 0.135864 7.97259 0 0.478594H2.92108C3.01449 5.97419 5.15435 8.29925 6.85265 8.77964V0.478594H9.59541V5.21518C11.2682 5.01342 13.0345 2.85169 13.6289 0.468987H16.3631C16.1402 1.70239 15.6948 2.87052 15.0549 3.9004C14.415 4.93028 13.5942 5.79978 12.6439 6.45458C13.7044 7.05181 14.641 7.89664 15.3918 8.93335C16.1427 9.97006 16.6908 11.1751 17 12.469H13.9855C13.3402 10.192 11.7268 8.42415 9.59541 8.18396V12.469H9.26424H9.25574Z" fill="#333333"/>
</svg>
