<svg width="12" height="13" viewBox="0 0 12 13" fill="none" xmlns="http://www.w3.org/2000/svg">
<path fill-rule="evenodd" clip-rule="evenodd" d="M0.453887 12.1509L2.72475 11.5554L2.94385 11.6854C3.86506 12.2318 4.92103 12.521 5.99768 12.5214H6.00011C9.30711 12.5214 11.9987 9.83075 12 6.52358C12.0006 4.92094 11.3771 3.41404 10.2443 2.28033C9.11153 1.14662 7.60506 0.521964 6.00247 0.521408C2.69292 0.521408 0.0013149 3.2118 5.07569e-07 6.51872C-0.000463156 7.65203 0.316749 8.75573 0.917356 9.71066L1.06001 9.93759L0.453887 12.1509ZM9.38983 8.07763C9.51564 8.13841 9.60059 8.17945 9.63686 8.23998C9.68194 8.31516 9.68194 8.67617 9.53171 9.09742C9.38134 9.51858 8.66075 9.90298 8.31417 9.95473C8.00343 10.0012 7.61018 10.0205 7.17811 9.88328C6.91613 9.80019 6.58017 9.68925 6.14983 9.50347C4.45887 8.77358 3.31613 7.13527 3.10016 6.82563C3.08503 6.80394 3.07444 6.78877 3.06854 6.78088L3.06709 6.77894C2.97163 6.65163 2.33203 5.79855 2.33203 4.91566C2.33203 4.08512 2.74016 3.64979 2.92802 3.4494C2.94089 3.43568 2.95272 3.42305 2.96332 3.41148C3.12865 3.23096 3.32408 3.18583 3.44432 3.18583C3.56455 3.18583 3.68493 3.18694 3.79002 3.19222C3.80299 3.19287 3.81647 3.19279 3.83042 3.19271C3.93553 3.19209 4.06657 3.19132 4.19585 3.50173C4.24558 3.62119 4.31835 3.7983 4.3951 3.98508C4.55031 4.36281 4.7218 4.78015 4.75197 4.84054C4.79707 4.9308 4.82713 5.03605 4.767 5.15644C4.75798 5.17449 4.74963 5.19153 4.74166 5.2078C4.6965 5.29996 4.66328 5.36776 4.58664 5.45721C4.5565 5.49239 4.52535 5.53031 4.4942 5.56823C4.43215 5.64377 4.3701 5.71931 4.31607 5.77312C4.22577 5.86303 4.13178 5.96058 4.23699 6.14109C4.34221 6.32161 4.7042 6.91204 5.24042 7.39016C5.81683 7.90411 6.3178 8.12133 6.57173 8.23144C6.62132 8.25294 6.66149 8.27036 6.69095 8.2851C6.87126 8.37539 6.97648 8.36028 7.0817 8.23998C7.18693 8.11964 7.5326 7.71346 7.65283 7.53298C7.77305 7.35253 7.89335 7.38259 8.05865 7.44273C8.22402 7.50296 9.11082 7.93911 9.29119 8.02936C9.3264 8.04698 9.35932 8.06289 9.38983 8.07763Z" fill="white"/>
</svg>
