<svg width="15" height="20" viewBox="0 0 15 20" fill="none" xmlns="http://www.w3.org/2000/svg">
<g clip-path="url(#clip0_112_767)">
<path d="M4.4789 5.39761C4.61015 5.98606 4.90489 6.5745 5.22726 7.04951C5.30554 7.16531 5.38153 7.26693 5.46212 7.37091C5.58186 7.52688 5.70851 7.66868 5.83976 7.81283C5.86278 7.83883 5.8812 7.85537 5.90423 7.88137C6.07463 8.0657 6.35555 8.32329 6.56509 8.47926C6.58121 8.49108 6.58351 8.49344 6.60193 8.50762C6.61575 8.51944 6.62496 8.5218 6.63877 8.53362L6.86443 8.69905C6.9266 8.74631 7.10851 8.84793 7.17529 8.8881L7.6266 9.11025C7.68417 9.13624 7.74174 9.15515 7.7993 9.17878C8.16082 9.32294 8.59602 9.43401 8.97825 9.33475C9.1947 9.27804 9.30753 9.23786 9.49404 9.11261C9.64602 9.01099 9.77957 8.87156 9.88779 8.71559C9.95687 8.61397 10.0167 8.49581 10.0444 8.37292C10.0835 8.18386 10.0444 8.05152 9.92694 7.905C9.88319 7.85065 9.82332 7.80102 9.76806 7.75848C9.68747 7.69704 9.59306 7.63559 9.50556 7.58596C9.29141 7.46308 9.06575 7.352 8.83319 7.27402C8.65819 7.21494 8.4993 7.26693 8.36575 7.404C8.33351 7.43944 8.31279 7.46308 8.28516 7.50089C8.26904 7.51979 8.26213 7.53397 8.24601 7.55288C8.16542 7.66159 8.09404 7.81756 8.04108 7.94517C7.99272 8.05861 7.91213 8.06334 7.82233 8.00426C7.80391 7.99244 7.79009 7.98062 7.76937 7.96881C7.7141 7.93336 7.65424 7.905 7.60358 7.8601L7.28581 7.6285C7.21443 7.57651 7.14535 7.51743 7.07858 7.45835C7.04404 7.42763 7.0118 7.40163 6.97956 7.37091C6.84831 7.24093 6.71936 7.12986 6.59272 6.99043C6.55818 6.95498 6.53515 6.92662 6.50061 6.88881C6.46838 6.85336 6.44075 6.82028 6.41081 6.78483C6.25423 6.60759 6.11377 6.4138 5.97331 6.22002C5.88811 6.09949 5.80982 5.97661 5.73844 5.84426C5.65555 5.69538 5.84897 5.60322 5.95489 5.51578C6.12298 5.37635 6.35785 5.24164 6.4039 5.00059C6.43614 4.84226 6.36246 4.67447 6.29798 4.53504C6.17364 4.27272 6.04469 4.00095 5.8766 3.76699C5.7914 3.65119 5.71772 3.56848 5.59107 3.51648C5.5243 3.49049 5.45061 3.48813 5.37923 3.50231L5.31936 3.51885C5.22265 3.54957 5.13054 3.60392 5.06146 3.663C4.96475 3.74335 4.87265 3.83552 4.79436 3.93714L4.59633 4.26327C4.51804 4.41451 4.47199 4.59648 4.44896 4.76663C4.42363 4.95333 4.43054 5.16129 4.4835 5.39525L4.4789 5.39761Z" fill="#ED1C24"/>
<path fill-rule="evenodd" clip-rule="evenodd" d="M0.861186 10.2327L7.25791 19.9999L13.5188 10.5706C16.526 6.04268 12.98 -0.0520879 7.38686 -9.68441e-05C1.76612 0.0518942 -1.70856 5.39515 0.858883 10.2327H0.861186ZM7.21186 2.3135C9.70792 2.3135 11.7319 4.51603 11.7319 6.86035C11.7319 9.20704 9.70792 11.1071 7.21186 11.1071C4.7158 11.1071 2.69178 9.20468 2.69178 6.86035C2.69178 4.51367 4.7158 2.3135 7.21186 2.3135Z" fill="#ED1C24"/>
</g>
<defs>
<clipPath id="clip0_112_767">
<rect width="14.6154" height="20" rx="2" fill="white"/>
</clipPath>
</defs>
</svg>
