<svg width="26" height="25" viewBox="0 0 26 25" fill="none" xmlns="http://www.w3.org/2000/svg">
<path fill-rule="evenodd" clip-rule="evenodd" d="M17.6959 9.82143C17.6959 14.2242 14.3006 17.6429 10.2939 17.6429C6.28716 17.6429 2.89178 14.2242 2.89178 9.82143C2.89178 5.41863 6.28716 2 10.2939 2C14.3006 2 17.6959 5.41863 17.6959 9.82143ZM16.5011 17.1984C14.8452 18.72 12.6727 19.6429 10.2939 19.6429C5.10124 19.6429 0.891785 15.2457 0.891785 9.82143C0.891785 4.3972 5.10124 0 10.2939 0C15.4865 0 19.6959 4.3972 19.6959 9.82143C19.6959 12.0243 19.0017 14.0578 17.8292 15.6962L25.3527 23.5553L23.9697 25L16.5011 17.1984Z" fill="black"/>
</svg>
