<svg width="19" height="20" viewBox="0 0 19 20" fill="none" xmlns="http://www.w3.org/2000/svg">
<g clip-path="url(#clip0_112_762)">
<path d="M0.156876 6.46856C0.588168 8.47201 1.54784 10.4755 2.60647 12.0936C2.86225 12.4847 3.11057 12.8336 3.3757 13.1883C3.77151 13.7155 4.18413 14.2005 4.61169 14.6933C4.68638 14.7795 4.74425 14.8351 4.82267 14.9233C5.38092 15.5522 6.30139 16.4302 6.98286 16.9613C7.03514 17.0035 7.04634 17.0054 7.10049 17.0552C7.14903 17.0993 7.1733 17.107 7.21998 17.1453L7.95747 17.709C8.15911 17.8681 8.75844 18.2132 8.97316 18.3493L10.4463 19.1085C10.633 19.1948 10.8253 19.2657 11.0101 19.3424C12.1957 19.8332 13.6184 20.209 14.8675 19.8696C15.5751 19.6779 15.9466 19.538 16.5534 19.1162C17.0538 18.7673 17.4907 18.2956 17.838 17.7646C18.0639 17.4195 18.2637 17.013 18.3477 16.5989C18.4784 15.9567 18.344 15.5023 17.9649 15.0096C17.8193 14.8217 17.627 14.6549 17.444 14.5111C17.1808 14.3041 16.869 14.0893 16.5852 13.9206C15.8813 13.5046 15.1457 13.1231 14.3839 12.8566C13.8107 12.6553 13.2898 12.8317 12.8585 13.3033C12.7502 13.4222 12.683 13.5065 12.5915 13.6311C12.543 13.6963 12.5131 13.7404 12.4646 13.8094C12.2032 14.1795 11.9698 14.7105 11.7943 15.1476C11.6375 15.5349 11.3705 15.5483 11.0773 15.347C11.0157 15.3048 10.969 15.2703 10.9056 15.2282C10.7245 15.1093 10.5322 15.0077 10.3641 14.8601L9.3279 14.0683C9.09265 13.8938 8.86487 13.6887 8.65015 13.4874C8.53626 13.38 8.43357 13.2976 8.32528 13.1883C7.89586 12.7492 7.4739 12.3639 7.05755 11.8961C6.94739 11.7734 6.86524 11.6775 6.75695 11.551C6.65053 11.4283 6.56091 11.3209 6.46009 11.2002C5.94664 10.5943 5.48735 9.94057 5.02992 9.27531C4.74799 8.86504 4.4978 8.44517 4.25882 7.99655C3.98996 7.49042 4.62103 7.176 4.96643 6.87884C5.51909 6.40338 6.28272 5.94325 6.43768 5.12462C6.54037 4.58781 6.30325 4.01266 6.09041 3.54103C5.68712 2.64763 5.2633 1.72163 4.71438 0.929833C4.43806 0.532978 4.19534 0.251152 3.77898 0.0786063C3.56054 -0.0134182 3.31968 -0.0172526 3.08257 0.0325941L2.88652 0.086275C2.57099 0.189803 2.27039 0.379603 2.04448 0.575156C1.72521 0.849312 1.43021 1.15989 1.17256 1.50882L0.522821 2.61503C0.265166 3.12692 0.119535 3.75 0.0429853 4.33091C-0.0391656 4.96358 -0.0186279 5.67293 0.153142 6.47048L0.156876 6.46856Z" fill="#ED1C24"/>
</g>
<defs>
<clipPath id="clip0_112_762">
<rect width="18.4" height="20" rx="2" fill="white"/>
</clipPath>
</defs>
</svg>
