<svg width="178" height="83" viewBox="0 0 178 83" fill="none" xmlns="http://www.w3.org/2000/svg">
<path opacity="0.83" d="M46.1781 73.556L36.9339 64.8639C31.8798 60.0412 26.342 55.7721 20.4637 52.1168L9.75053 45.33L18.4013 36.1012C23.2012 31.0557 27.4468 25.5241 31.0783 19.6496L37.8216 8.94374L47.0658 17.6359C52.1199 22.4585 57.6577 26.7277 63.536 30.383L74.2492 37.1698L65.5984 46.3986C60.7985 51.4441 56.5529 56.9756 52.9214 62.8501L46.1781 73.556Z" fill="#006699" stroke="#003366" stroke-miterlimit="10"/>
<path opacity="0.69" d="M37.7677 73.5456L31.0901 62.7376C27.3908 56.8871 23.1843 51.2437 18.4942 46.1537L9.83507 36.8667L20.6071 30.2148C26.4379 26.5293 32.0602 22.3352 37.1283 17.6552L46.375 9.01411L53.0526 19.8222C56.7519 25.6726 60.9584 31.3161 65.6485 36.4061L74.3076 45.6931L63.5356 52.345C57.7048 56.0305 52.0825 60.2245 47.0144 64.9046L37.7677 73.5456Z" fill="#33CCFF" stroke="#006699" stroke-miterlimit="10"/>
<g opacity="0.51">
<mask id="mask0_293_454" style="mask-type:alpha" maskUnits="userSpaceOnUse" x="9" y="9" width="66" height="65">
<path d="M37.7885 73.5515L31.1061 62.7363C27.4041 56.8819 23.1953 51.2343 18.5033 46.14L9.84066 36.8449L20.6059 30.1982C26.4328 26.5154 32.0512 22.3238 37.1151 17.6457L46.3541 9.00826L53.0366 19.8234C56.7385 25.6778 60.9474 31.3255 65.6394 36.4198L74.302 45.7148L63.5368 52.3616C57.7098 56.0444 52.0915 60.2359 47.0276 64.914L37.7885 73.5515Z" fill="black"/>
</mask>
<g mask="url(#mask0_293_454)">
<path d="M99.3486 43.481C48.8271 34.6194 -12.8865 22.7181 -12.8865 22.7181" stroke="white" stroke-width="3" stroke-miterlimit="10"/>
</g>
<mask id="mask1_293_454" style="mask-type:alpha" maskUnits="userSpaceOnUse" x="9" y="9" width="66" height="65">
<path d="M37.7885 73.5515L31.1061 62.7363C27.4041 56.8819 23.1953 51.2343 18.5033 46.14L9.84066 36.8449L20.6059 30.1982C26.4328 26.5154 32.0512 22.3238 37.1151 17.6457L46.3541 9.00826L53.0366 19.8234C56.7385 25.6778 60.9474 31.3255 65.6394 36.4198L74.302 45.7148L63.5368 52.3616C57.7098 56.0444 52.0915 60.2359 47.0276 64.914L37.7885 73.5515Z" fill="black"/>
</mask>
<g mask="url(#mask1_293_454)">
<path d="M104.333 55.6692C53.8116 46.8076 -7.90201 34.9063 -7.90201 34.9063" stroke="white" stroke-width="12" stroke-miterlimit="10"/>
</g>
</g>
<path d="M45.8785 79.4279L46.2516 80.3674L46.2485 80.3695L45.9146 79.6099L45.9139 79.6084C44.2384 75.8142 42.6671 71.9638 41.0897 68.0981C41.0896 68.0978 41.0895 68.0976 41.0895 68.0974L41.0893 68.0971C39.5063 64.2175 37.8661 60.4854 35.9548 56.7499C34.0437 53.0148 31.9738 49.4958 29.6377 45.9816L22.7989 35.4819L22.0416 34.2836L23.3568 33.7549L35.0458 29.2405C38.9964 27.7572 42.7339 26.1142 46.469 24.2031C50.1823 22.3032 53.7576 20.3403 57.2836 17.997C60.8208 15.7871 64.3441 13.586 67.919 11.4913L67.9205 11.4905L68.6356 11.0699L68.6369 11.0733L67.7847 11.617L57.4436 18.2145L57.4356 18.2196L57.4278 18.2248C53.9741 20.5209 50.4135 22.6072 46.746 24.4837C43.0791 26.3599 39.2985 28.03 35.4529 29.5993L24.0567 34.1244L22.9316 34.5711L23.5827 35.5917L30.1802 45.9328L30.1853 45.9407L30.1905 45.9485C32.4773 49.3883 34.4573 52.9979 36.3436 56.6845C38.2201 60.352 39.8872 64.127 41.3449 68.0097L41.3482 68.0186L41.3516 68.0273L45.8785 79.4279Z" fill="#D9D9D9" stroke="black" stroke-width="2"/>
<path d="M72.4375 60V48.7266H77.3672C78.4558 48.7266 79.3125 48.9766 79.9375 49.4766C80.5521 49.9766 80.8594 50.6641 80.8594 51.5391C80.8594 52.138 80.6641 52.6667 80.2735 53.125C79.8829 53.5833 79.3985 53.8568 78.8204 53.9453V54.0859C79.5651 54.1432 80.1823 54.4219 80.6719 54.9219C81.1563 55.4323 81.3985 56.0495 81.3985 56.7734C81.3985 57.763 81.0495 58.5469 80.3516 59.125C79.6537 59.7083 78.7032 60 77.5 60H72.4375ZM74.7969 53.3984H76.5704C77.2058 53.3984 77.6927 53.2734 78.0313 53.0234C78.3698 52.7734 78.5391 52.4219 78.5391 51.9688C78.5391 51.5156 78.3855 51.1641 78.0782 50.9141C77.7657 50.6589 77.3282 50.5312 76.7657 50.5312H74.7969V53.3984ZM76.8985 58.1953C78.2943 58.1953 78.9922 57.6536 78.9922 56.5703C78.9922 55.5182 78.2761 54.9922 76.8438 54.9922H74.7969V58.1953H76.8985ZM91.1719 52.5312H91.0313L85.961 60H83.6875V48.7266H86.0391V56.2031H86.1797L91.25 48.7266H93.5235V60H91.1719V52.5312ZM99.1563 60V50.7422H95.7735V48.7266H104.898V50.7422H101.516V60H99.1563ZM111.844 48.7266C113.005 48.7266 113.945 49.0833 114.664 49.7969C115.388 50.5156 115.75 51.4583 115.75 52.625C115.75 53.7812 115.378 54.7161 114.633 55.4297C113.888 56.1432 112.919 56.5 111.727 56.5H109.5V60H107.141V48.7266H111.844ZM109.5 54.5859H111.211C111.893 54.5859 112.419 54.4193 112.789 54.0859C113.164 53.7474 113.352 53.263 113.352 52.6328C113.352 51.9974 113.167 51.5078 112.797 51.1641C112.427 50.8307 111.901 50.6641 111.219 50.6641H109.5V54.5859ZM123.453 57.3125H119.492L118.625 60H116.258L120.172 48.7266H122.945L126.859 60H124.305L123.453 57.3125ZM120 55.4922H122.953L121.555 51.0703H121.414L120 55.4922ZM133.641 48.7266C134.802 48.7266 135.742 49.0833 136.461 49.7969C137.185 50.5156 137.547 51.4583 137.547 52.625C137.547 53.7812 137.175 54.7161 136.43 55.4297C135.685 56.1432 134.716 56.5 133.523 56.5H131.297V60H128.938V48.7266H133.641ZM131.297 54.5859H133.008C133.69 54.5859 134.216 54.4193 134.586 54.0859C134.961 53.7474 135.148 53.263 135.148 52.6328C135.148 51.9974 134.964 51.5078 134.594 51.1641C134.224 50.8307 133.698 50.6641 133.016 50.6641H131.297V54.5859ZM147.359 52.5312H147.219L142.148 60H139.875V48.7266H142.227V56.2031H142.367L147.438 48.7266H149.711V60H147.359V52.5312ZM154.203 60.1016C153.776 60.1016 153.453 60.0651 153.234 59.9922V58C153.375 58.0469 153.604 58.0703 153.922 58.0703C154.635 58.0703 155.164 57.8073 155.508 57.2812L151.766 48.7266H154.273L156.695 54.8906H156.836L159.172 48.7266H161.656L158.203 56.7734C157.708 57.9193 157.195 58.737 156.664 59.2266C156.029 59.8099 155.208 60.1016 154.203 60.1016ZM163.703 60V48.7266H166.484L169.602 56.3047H169.742L172.867 48.7266H175.641V60H173.453V52.4609H173.328L170.461 59.3516H168.891L166.016 52.4609H165.891V60H163.703Z" fill="#333333"/>
</svg>
