<?xml version="1.0" encoding="utf-8"?>
<!-- Generator: Adobe Illustrator 21.1.0, SVG Export Plug-In . SVG Version: 6.00 Build 0)  -->
<svg version="1.1" id="Слой_1" xmlns="http://www.w3.org/2000/svg" xmlns:xlink="http://www.w3.org/1999/xlink" x="0px" y="0px"
	 viewBox="0 0 167.4 74.5" style="enable-background:new 0 0 167.4 74.5;" xml:space="preserve">
<style type="text/css">
	.st0{opacity:0.83;enable-background:new    ;}
	.st1{fill:#006699;}
	.st2{fill:#003366;}
	.st3{opacity:0.69;enable-background:new    ;}
	.st4{fill:#33CCFF;}
	.st5{opacity:0.74;clip-path:url(#SVGID_2_);fill:#FDFFFF;}
	.st6{fill:#333333;}
</style>
<g class="st0">
	<path class="st1" d="M28.4,57.8c-5-4.8-10.5-9-16.4-12.7L0.8,38l9.1-9.7c4.7-5,9-10.5,12.6-16.4l7.1-11.2l9.7,9.1
		c5,4.8,10.5,9,16.4,12.7l11.2,7.1l-9.1,9.7c-4.7,5-9,10.5-12.6,16.4L38.1,67L28.4,57.8z"/>
	<path class="st2" d="M29.6,1.6l9.2,8.7c5.1,4.8,10.6,9.1,16.5,12.7l10.7,6.8L57.4,39c-4.8,5-9,10.6-12.7,16.5L38,66.2l-9.2-8.7
		c-5.1-4.8-10.6-9.1-16.5-12.7L1.6,37.9l8.7-9.2c4.8-5,9-10.6,12.7-16.5L29.6,1.6 M29.4,0l-0.6,1L22,11.7
		C18.4,17.6,14.2,23.1,9.5,28l-8.7,9.2L0,38.1l1,0.6l10.7,6.8c5.9,3.7,11.4,7.9,16.3,12.6l9.2,8.7l0.9,0.8l0.6-1L45.6,56
		c3.6-5.9,7.9-11.4,12.6-16.3l8.7-9.2l0.8-0.9l-1-0.6l-10.7-6.8C50,18.5,44.5,14.3,39.6,9.5l-9.2-8.7L29.4,0L29.4,0z"/>
</g>
<g class="st3">
	<path class="st4" d="M22.5,55.6c-3.9-6.1-8.1-11.7-12.5-16.5l-9.1-9.7l11.3-7c6.1-3.9,11.6-8.1,16.4-12.5l9.7-9.1l7,11.3
		c3.9,6.1,8.1,11.7,12.5,16.5l9.1,9.7l-11.3,7c-6.1,3.9-11.6,8.1-16.4,12.5l-9.7,9.1L22.5,55.6z"/>
	<path class="st1" d="M38.2,1.6l6.7,10.8c3.7,5.9,7.9,11.5,12.6,16.6l8.7,9.3L55.3,45c-5.8,3.7-11.5,7.9-16.5,12.6l-9.2,8.6
		l-6.7-10.8c-3.7-5.9-7.9-11.5-12.6-16.6l-8.7-9.3l10.8-6.7c5.8-3.7,11.5-7.9,16.5-12.6L38.2,1.6 M38.4,0.1l-0.9,0.8l-9.2,8.6
		C23.5,13.9,18,18.1,11.9,22L1.1,28.6l-1,0.6l0.8,0.9l8.7,9.3c4.4,4.8,8.6,10.3,12.5,16.4l6.7,10.8l0.6,1l0.9-0.8l9.2-8.6
		c4.8-4.4,10.3-8.6,16.4-12.4l10.8-6.6l1-0.6l-0.8-0.9l-8.7-9.3c-4.4-4.8-8.6-10.3-12.5-16.4L39,1.1L38.4,0.1L38.4,0.1z"/>
</g>
<g>
	<defs>
		<path id="SVGID_1_" d="M29.6,66.2l-6.7-10.8c-3.7-5.9-7.9-11.5-12.6-16.6l-8.7-9.3l10.8-6.7c5.8-3.7,11.5-7.9,16.5-12.6l9.2-8.6
			l6.7,10.8c3.7,5.9,7.9,11.5,12.6,16.6l8.7,9.3L55.3,45c-5.8,3.7-11.5,7.9-16.5,12.6L29.6,66.2z"/>
	</defs>
	<clipPath id="SVGID_2_">
		<use xlink:href="#SVGID_1_"  style="overflow:visible;"/>
	</clipPath>
	<rect x="6.1" y="25.4" transform="matrix(0.9909 0.1342 -0.1342 0.9909 3.9343 -4.4047)" class="st5" width="57.1" height="3.2"/>
	<rect x="-2.6" y="33.1" transform="matrix(0.9909 0.1342 -0.1342 0.9909 5.4038 -3.96)" class="st5" width="69.3" height="10"/>
</g>
<path class="st6" d="M71.7,54.4c-3.9,1.7-7.6,3.5-11.2,5.5c-3.6,2-7.1,4.2-10.6,6.5l-10.5,7l-1.7,1.1L37,72.6
	c-1.7-3.8-3.3-7.7-4.8-11.5l0,0c-1.6-3.9-3.2-7.6-5.1-11.3c-1.9-3.7-3.9-7.2-6.3-10.7l-6.8-10.5l-1.4-2.2l2.4-1l11.7-4.5
	c3.9-1.5,7.6-3.1,11.3-5c3.7-1.9,7.2-3.8,10.7-6.2l0,0c3.5-2.2,7.1-4.4,10.7-6.5l1.7-1l0.7,1.9l4.4,11.8c1.5,3.9,3,7.7,4.8,11.4
	c1.8,3.8,3.6,7.4,5.9,11l-0.6,0.3c-2.3-3.5-4.4-7.1-6.3-10.8c-1.9-3.7-3.6-7.5-5.2-11.4L60.3,5.1L50,11.7c-3.5,2.3-7.1,4.4-10.8,6.3
	c-3.7,1.9-7.5,3.6-11.4,5.2l-11.4,4.5L23,38c2.3,3.5,4.3,7.1,6.2,10.8c1.9,3.7,3.6,7.5,5,11.4l4.5,11.4l10.3-6.6
	c3.5-2.3,7.1-4.3,10.8-6.2c3.7-1.9,7.5-3.6,11.4-5L71.7,54.4z"/>
<path class="st6" d="M64.2,52.6V41.3h4.9c1.1,0,1.9,0.3,2.6,0.8c0.6,0.5,0.9,1.2,0.9,2.1c0,0.6-0.2,1.1-0.6,1.6s-0.9,0.7-1.5,0.8
	v0.1c0.7,0.1,1.4,0.3,1.9,0.8c0.5,0.5,0.7,1.1,0.7,1.9c0,1-0.3,1.8-1,2.4c-0.7,0.6-1.6,0.9-2.9,0.9H64.2z M66.6,46h1.8
	c0.6,0,1.1-0.1,1.5-0.4c0.3-0.3,0.5-0.6,0.5-1.1c0-0.5-0.2-0.8-0.5-1.1c-0.3-0.3-0.8-0.4-1.3-0.4h-2V46z M68.7,50.8
	c1.4,0,2.1-0.5,2.1-1.6c0-1.1-0.7-1.6-2.1-1.6h-2v3.2H68.7z"/>
<path class="st6" d="M83,45.1h-0.1l-5.1,7.5h-2.3V41.3h2.4v7.5H78l5.1-7.5h2.3v11.3H83V45.1z"/>
<path class="st6" d="M91,52.6v-9.3h-3.4v-2h9.1v2h-3.4v9.3H91z"/>
<path class="st6" d="M103.6,41.3c1.2,0,2.1,0.4,2.8,1.1c0.7,0.7,1.1,1.7,1.1,2.8c0,1.2-0.4,2.1-1.1,2.8c-0.7,0.7-1.7,1.1-2.9,1.1
	h-2.2v3.5h-2.4V41.3H103.6z M101.3,47.2h1.7c0.7,0,1.2-0.2,1.6-0.5c0.4-0.3,0.6-0.8,0.6-1.5c0-0.6-0.2-1.1-0.6-1.5
	c-0.4-0.3-0.9-0.5-1.6-0.5h-1.7V47.2z"/>
<path class="st6" d="M115.3,49.9h-4l-0.9,2.7h-2.4l3.9-11.3h2.8l3.9,11.3h-2.6L115.3,49.9z M111.8,48.1h3l-1.4-4.4h-0.1L111.8,48.1z
	"/>
<path class="st6" d="M125.4,41.3c1.2,0,2.1,0.4,2.8,1.1c0.7,0.7,1.1,1.7,1.1,2.8c0,1.2-0.4,2.1-1.1,2.8c-0.7,0.7-1.7,1.1-2.9,1.1
	h-2.2v3.5h-2.4V41.3H125.4z M123.1,47.2h1.7c0.7,0,1.2-0.2,1.6-0.5c0.4-0.3,0.6-0.8,0.6-1.5c0-0.6-0.2-1.1-0.6-1.5
	c-0.4-0.3-0.9-0.5-1.6-0.5h-1.7V47.2z"/>
<path class="st6" d="M139.2,45.1H139l-5.1,7.5h-2.3V41.3h2.4v7.5h0.1l5.1-7.5h2.3v11.3h-2.4V45.1z"/>
<path class="st6" d="M146,52.7c-0.4,0-0.8,0-1-0.1v-2c0.1,0,0.4,0.1,0.7,0.1c0.7,0,1.2-0.3,1.6-0.8l-3.7-8.6h2.5l2.4,6.2h0.1
	l2.3-6.2h2.5l-3.5,8c-0.5,1.1-1,2-1.5,2.5C147.8,52.4,147,52.7,146,52.7z"/>
<path class="st6" d="M155.5,52.6V41.3h2.8l3.1,7.6h0.1l3.1-7.6h2.8v11.3h-2.2v-7.5h-0.1l-2.9,6.9h-1.6l-2.9-6.9h-0.1v7.5H155.5z"/>
</svg>
