<svg width="195" height="49" viewBox="0 0 195 49" fill="none" xmlns="http://www.w3.org/2000/svg">
<path fill-rule="evenodd" clip-rule="evenodd" d="M59.6958 19.9325H63.0323C63.4764 19.4623 62.8753 19.19 61.9705 18.8924C61.0944 18.6044 61.7353 18.0684 59.8157 17.9736C58.5714 17.5715 56.0939 16.8897 53.2443 16.7504C49.1483 16.5502 28.8813 16.7504 28.8813 16.7504C28.8813 16.7504 28.7597 16.855 28.3914 16.9656L32.4718 19.6297H37.7556C38.5215 19.6297 38.7824 20.083 39.0661 20.5759C39.1037 20.6413 39.142 20.7078 39.1832 20.7733L40.1647 22.3349C40.2409 22.4559 40.2839 22.5803 40.2976 22.7055L41.935 23.7138H56.9723L58.0336 23.116C58.0284 23.0709 58.0257 23.0251 58.0257 22.9786H58.0234C58.0234 22.9516 58.026 22.9117 58.0315 22.8586L58.1928 21.297C58.2314 20.924 58.4003 20.5819 58.6625 20.3358C58.928 20.0867 59.284 19.9323 59.6958 19.9323V19.9325ZM101.255 30.874H98.7978V17.7618H101.255V30.874ZM107.078 30.874H104.302L101.356 25.779L104.032 21.8078H106.843L104.015 25.7602L107.078 30.874ZM118.809 30.874H115.998V21.808H118.271V28.1955L121.855 21.808H124.666V30.874H122.394V24.318L118.809 30.874ZM114.618 30.7431C113.631 30.9552 112.711 31.0614 111.858 31.0614C111.443 31.0614 111.112 31.0552 110.865 31.0426C110.618 31.0303 110.307 30.9959 109.931 30.9396C109.555 30.8835 109.252 30.7866 109.022 30.6494C108.792 30.512 108.562 30.3341 108.332 30.1155C108.102 29.8969 107.931 29.6035 107.819 29.2351C107.707 28.8666 107.65 28.4328 107.65 27.9332V24.9174C107.65 24.4678 107.698 24.0713 107.793 23.7279C107.889 23.3846 108.007 23.0972 108.147 22.8663C108.287 22.6353 108.484 22.4386 108.736 22.2763C108.988 22.114 109.221 21.9923 109.434 21.911C109.648 21.8299 109.926 21.7644 110.268 21.7145C110.61 21.6645 110.896 21.6364 111.126 21.6302C111.356 21.6238 111.656 21.6209 112.026 21.6209C112.644 21.6209 113.468 21.7333 114.501 21.9581V23.7563C113.334 23.4567 112.447 23.3066 111.841 23.3066C110.708 23.3066 110.142 23.7312 110.142 24.5804V27.9145C110.142 28.8761 110.764 29.3568 112.01 29.3568C112.593 29.3568 113.463 29.2195 114.618 28.9447V30.7431ZM94.1863 28.5514V26.7905H92.5033C91.9647 26.7905 91.6282 26.8592 91.4935 26.9966C91.3588 27.1338 91.2915 27.5023 91.2915 28.1018C91.2915 28.6888 91.3616 29.0445 91.5018 29.1695C91.6421 29.2944 91.9983 29.3568 92.5704 29.3568C92.8511 29.3568 93.0586 29.3537 93.1933 29.3476C93.328 29.3412 93.4738 29.3256 93.6309 29.3007C93.7879 29.2758 93.8976 29.2351 93.9591 29.179C94.0207 29.1228 94.0741 29.0447 94.1189 28.9447C94.1637 28.8449 94.1863 28.7138 94.1863 28.5514ZM96.6436 30.8742H94.2368V30.0501C94.0573 30.4122 93.7993 30.6712 93.4627 30.8274C93.1262 30.9835 92.5089 31.0616 91.6114 31.0616C90.5117 31.0616 89.7825 30.8742 89.4235 30.4996C89.0644 30.1251 88.8849 29.3445 88.8849 28.1582C88.8849 27.0841 89.0701 26.3381 89.4403 25.9198C89.8105 25.5015 90.4726 25.2922 91.4262 25.2922H94.1865V24.6741C94.1865 24.1248 94.0715 23.7595 93.8414 23.5784C93.6114 23.3974 93.1262 23.3068 92.3857 23.3068C91.6899 23.3068 90.7363 23.3817 89.5243 23.5316V21.8083C90.4558 21.6833 91.4937 21.6209 92.638 21.6209C94.1414 21.6209 95.1849 21.8239 95.7683 22.2297C96.3518 22.6355 96.6436 23.4379 96.6436 24.6367V30.8744V30.8742ZM87.892 20.7965H84.5426V30.8742H81.9171V20.7965H78.5511V18.7172H87.892V20.7965ZM192.543 28.5514V26.7905H190.86C190.321 26.7905 189.985 26.8592 189.85 26.9966C189.716 27.1338 189.648 27.5023 189.648 28.1018C189.648 28.6888 189.718 29.0445 189.859 29.1695C189.999 29.2944 190.355 29.3568 190.927 29.3568C191.208 29.3568 191.415 29.3537 191.55 29.3476C191.685 29.3412 191.831 29.3256 191.988 29.3007C192.145 29.2758 192.254 29.2351 192.316 29.179C192.378 29.1228 192.431 29.0447 192.476 28.9447C192.521 28.8449 192.543 28.7138 192.543 28.5514ZM195 30.8742H192.594V30.0501C192.414 30.4122 192.156 30.6712 191.819 30.8274C191.483 30.9835 190.866 31.0616 189.968 31.0616C188.869 31.0616 188.139 30.8742 187.78 30.4996C187.421 30.1251 187.242 29.3445 187.242 28.1582C187.242 27.0841 187.427 26.3381 187.797 25.9198C188.167 25.5015 188.829 25.2922 189.783 25.2922H192.543V24.6741C192.543 24.1248 192.428 23.7595 192.198 23.5784C191.968 23.3974 191.483 23.3068 190.742 23.3068C190.047 23.3068 189.093 23.3817 187.881 23.5316V21.8083C188.813 21.6833 189.85 21.6209 190.995 21.6209C192.498 21.6209 193.542 21.8239 194.125 22.2297C194.709 22.6355 195 23.4379 195 24.6367V30.8744V30.8742ZM177.48 21.8266H180.022V24.8612C180.022 25.5481 180.089 25.9695 180.223 26.1257C180.358 26.2817 180.728 26.3598 181.334 26.3598C182.052 26.3598 182.504 26.2881 182.689 26.1445C182.874 26.0008 182.967 25.6355 182.967 25.0486V21.8266H185.508V30.8742H182.967V26.8844C182.787 27.7959 182.013 28.2517 180.644 28.2517C179.769 28.2517 179.096 28.1363 178.625 27.9052C178.153 27.6743 177.845 27.3683 177.699 26.9874C177.553 26.6065 177.48 26.0726 177.48 25.3858V21.8266H177.48ZM173.424 25.5169V24.2057C173.424 23.9185 173.32 23.6967 173.113 23.5408C172.905 23.3846 172.532 23.3065 171.993 23.3065C171.399 23.3065 170.998 23.3846 170.79 23.5408C170.582 23.6968 170.478 23.9185 170.478 24.2057V25.5169H173.424ZM175.763 27.0716H170.478V27.8957C170.478 28.4078 170.641 28.7793 170.967 29.0103C171.292 29.2414 171.903 29.3568 172.801 29.3568C173.609 29.3568 174.518 29.2258 175.528 28.9635V30.7056C174.495 30.9428 173.429 31.0616 172.33 31.0616C169.446 31.0616 168.004 30.0812 168.004 28.1207V24.8613C168.004 23.7 168.341 22.8696 169.014 22.37C169.688 21.8705 170.692 21.6208 172.027 21.6208C173.284 21.6208 174.221 21.858 174.838 22.3324C175.455 22.807 175.763 23.6501 175.763 24.8612V27.0716ZM163.864 28.0082V24.6553C163.864 24.0682 163.766 23.6968 163.57 23.5408C163.373 23.3846 162.888 23.3065 162.114 23.3065C161.418 23.3065 160.967 23.4063 160.759 23.6062C160.552 23.806 160.448 24.1557 160.448 24.6552V28.0081C160.448 28.5452 160.549 28.904 160.751 29.0852C160.953 29.2661 161.412 29.3566 162.131 29.3566C162.849 29.3566 163.317 29.2661 163.536 29.0852C163.755 28.904 163.864 28.545 163.864 28.0081V28.0082ZM166.322 24.674V27.6524C166.322 29.0013 166.052 29.9064 165.514 30.3686C164.975 30.8306 164.1 31.0617 162.888 31.0617C162.125 31.0617 161.556 30.9931 161.18 30.8557C160.804 30.7183 160.56 30.4187 160.448 29.9567V34.7706H157.99V21.8083H160.313V22.7073C160.459 22.3076 160.748 22.0269 161.18 21.8644C161.612 21.7021 162.243 21.6209 163.073 21.6209C163.769 21.6209 164.336 21.6833 164.773 21.8083C165.211 21.9332 165.542 22.1362 165.766 22.4171C165.991 22.698 166.139 23.0071 166.212 23.3442C166.285 23.6814 166.322 24.1248 166.322 24.6741V24.674ZM156.408 23.4939H153.901V30.8742H151.443V23.4939H148.919V21.8082H156.408V23.4939H156.408ZM148.111 30.7432C147.124 30.9554 146.204 31.0616 145.351 31.0616C144.936 31.0616 144.605 31.0553 144.358 31.0428C144.111 31.0304 143.8 30.996 143.424 30.9398C143.048 30.8837 142.745 30.7868 142.515 30.6495C142.285 30.5121 142.055 30.3342 141.825 30.1156C141.595 29.8971 141.424 29.6036 141.312 29.2353C141.199 28.8668 141.143 28.433 141.143 27.9333V24.9176C141.143 24.4679 141.191 24.0715 141.286 23.728C141.382 23.3847 141.499 23.0974 141.64 22.8664C141.78 22.6355 141.976 22.4388 142.229 22.2765C142.481 22.1141 142.714 21.9925 142.927 21.9112C143.14 21.83 143.418 21.7646 143.76 21.7146C144.103 21.6646 144.389 21.6365 144.619 21.6304C144.849 21.624 145.149 21.6211 145.519 21.6211C146.136 21.6211 146.961 21.7334 147.993 21.9582V23.7564C146.826 23.4569 145.94 23.3068 145.334 23.3068C144.201 23.3068 143.634 23.7314 143.634 24.5806V27.9147C143.634 28.8762 144.257 29.3569 145.502 29.3569C146.086 29.3569 146.955 29.2197 148.111 28.9449V30.7432ZM137.053 27.7648V26.7907C137.053 26.341 136.95 26.0227 136.742 25.8354C136.535 25.648 136.167 25.5543 135.64 25.5543H133.418V28.7949H135.286C135.926 28.7949 136.38 28.7138 136.65 28.5514C136.919 28.3891 137.053 28.1268 137.053 27.7648ZM136.666 22.4449V21.8454C136.666 21.4458 136.582 21.1711 136.414 21.0213C136.246 20.8714 135.831 20.7965 135.169 20.7965H133.418V23.6624H135.219C135.836 23.6624 136.232 23.5752 136.406 23.4002C136.579 23.2253 136.666 22.9069 136.666 22.4449H136.666ZM139.679 26.2849V28.158C139.679 29.1697 139.314 29.8751 138.585 30.2747C137.856 30.6744 136.773 30.8742 135.337 30.8742H130.793V18.7172H135.219C136.767 18.7172 137.817 18.9107 138.366 19.2979C138.916 19.6852 139.191 20.3594 139.191 21.3209V22.8195C139.191 23.1692 139.068 23.4939 138.821 23.7936C138.574 24.0932 138.293 24.2931 137.979 24.393V24.4867C138.383 24.5367 138.767 24.7365 139.132 25.0862C139.497 25.4357 139.679 25.8354 139.679 26.2849ZM58.3485 15.0484H59.2767C59.3822 15.0484 59.5554 15.1295 59.6616 15.2283L60.4356 15.9495C60.5418 16.0484 60.5422 16.1294 60.437 16.1294H57.9618C57.8566 16.1294 57.4707 16.0484 57.5769 15.9495C57.6849 15.8488 58.2431 15.0484 58.3485 15.0484ZM55.8526 12.9663H57.122C57.2276 12.9663 57.4974 13.0064 57.5069 13.1462L57.5556 13.8675C57.565 14.0073 57.6619 14.0474 57.5571 14.0474H56.9165C56.3239 14.0474 55.7473 12.9663 55.8524 12.9663H55.8526ZM53.4239 10.8044H55.2804C55.3859 10.8044 55.5591 10.8854 55.6653 10.9843L56.4392 11.7055C56.5454 11.8046 56.5461 11.8854 56.4407 11.8854H54.5843C54.4787 11.8854 54.3056 11.8044 54.1994 11.7055L53.4254 10.9843C53.3192 10.8852 53.3185 10.8044 53.4239 10.8044ZM30.6037 9.34288H45.2386C45.2386 9.34288 49.8465 9.38277 50.7853 10.4638C51.724 11.5449 55.3933 14.868 55.3933 14.868C55.3933 14.868 56.1899 15.5538 55.914 15.8557C55.7314 16.0554 54.9349 16.0198 53.644 15.7488C53.644 15.7488 52.876 15.5888 50.7 15.6289C49.1141 15.6579 44.4228 15.6871 41.9956 15.7008C39.6279 15.714 39.9192 15.4682 37.4732 14.3476L28.385 10.1835C26.5485 9.34196 30.1083 9.34273 30.6036 9.34273L30.6037 9.34288ZM50.4006 32.7656H55.1414C55.1414 32.7656 55.1092 33.3825 55.4949 33.6659C55.7628 33.8627 56.1668 33.6109 56.1843 34.0868C56.1843 34.0868 56.3648 34.8876 55.5442 34.8876H49.8032C49.8032 34.8876 49.1206 35.0477 48.9926 34.2869C48.8645 33.5262 49.0779 33.8262 49.3978 33.7062C49.7177 33.5862 49.5258 33.3059 49.5258 33.1858C49.5258 33.0657 49.3765 32.6452 50.4005 32.7655L50.4006 32.7656ZM33.419 32.7656H42.0804C42.0804 32.7656 43.4032 32.9258 43.4458 34.0868C43.4458 34.0868 43.6165 35.0078 42.8057 34.8876C41.9951 34.7674 32.8216 34.8876 32.8216 34.8876C32.8216 34.8876 32.139 35.0477 32.011 34.2869C31.883 33.5262 32.0963 33.8262 32.4162 33.7062C32.7361 33.5862 32.5442 33.3059 32.5442 33.1858C32.5442 33.0657 32.3949 32.6452 33.4189 32.7655L33.419 32.7656ZM23.0434 26.196C22.5582 27.1875 22.4218 28.3601 22.4538 29.4424C22.4964 30.8835 23.0512 34.247 24.5873 34.247C26.1232 34.247 26.3792 31.284 26.2939 30.2832C26.1263 28.317 25.8463 28.1316 25.3604 26.4893C24.9037 24.9443 24.2842 23.6583 23.0434 26.196ZM18.9449 32.8148L20.0114 34.6968C20.0114 34.6968 20.0116 35.4976 21.5048 35.3774C22.9981 35.2573 21.9316 34.8168 21.6329 34.5365C21.3342 34.2562 20.9929 33.9358 21.1209 33.2952C21.2488 32.6547 21.1635 32.4946 20.0543 32.6547C18.9449 32.8148 18.9449 32.8148 18.9449 32.8148ZM16.0399 20.0049C15.9664 20.8501 15.8224 22.0805 16.108 23.6259C16.6625 26.6288 17.7721 29.9121 17.7721 29.9121C17.7721 29.9121 17.9854 30.9531 16.8334 30.7128C15.6814 30.4727 14.3587 24.2264 14.3587 24.2264C14.3587 24.2264 14.0088 21.7773 14.573 19.7423C14.7766 19.0078 15.1273 17.7601 16.0866 17.7601C17.0368 17.7601 16.1347 18.9171 16.04 20.0049H16.0399ZM66.004 26.0373C65.9854 27.2012 65.8324 29.1776 65.0563 29.5406C65.0563 29.5406 64.2846 30.5734 63.5502 30.5826L59.743 30.6293C59.743 30.6293 30.4202 31.4365 28.7134 30.9561C28.7134 30.9561 27.0491 30.4557 26.8146 26.9723C26.8146 26.9723 26.3387 24.3183 27.8993 23.9437C28.1697 24.029 28.352 24.0212 28.6228 24.0212H38.7371C39.0267 24.0212 39.344 23.9298 39.6065 23.7844C39.6697 23.7494 39.731 23.7106 39.7891 23.6684L41.5975 24.782H57.2805L58.6097 24.0332C58.8317 24.1876 59.1026 24.2891 59.3873 24.3154C59.4477 24.321 59.4967 24.3238 59.5345 24.3238H60.8364H64.4672L65.5225 24.3123C66.1219 24.3443 66.0289 24.4329 66.0038 26.0375L66.004 26.0373ZM63.89 35.6698C64.8093 35.1423 66.3563 34.306 67.0822 31.9831L72.6876 31.2537L67.3503 30.8202C67.4987 29.8832 67.5308 28.7602 67.3921 27.4068L69.9604 27.038L68.2999 28.5962C67.7269 29.1341 67.7269 30.0137 68.2999 30.5512L68.3 30.5514C68.873 31.0892 69.8104 31.0892 70.3834 30.5514L75.939 25.3379C76.256 25.0405 76.3977 24.6385 76.364 24.2475C76.3977 23.8567 76.2562 23.4546 75.939 23.1571L71.6378 19.1209L76.2282 18.6244L71.02 18.5411L70.3834 17.9437C69.8104 17.4058 68.873 17.4058 68.3 17.9437L68.2999 17.9438C68.1306 18.1026 68.0114 18.2911 67.9422 18.4919L63.7227 18.4245C63.547 17.7572 63.3409 17.101 63.107 16.457L70.5208 15.7521L62.6443 15.2848C61.9348 13.6226 61.0325 12.0526 59.9637 10.5985L67.8635 9.84741L58.955 9.31888C54.2743 3.77343 47.0359 0.215393 38.9117 0.215393C30.7171 0.215393 23.4238 3.83533 18.747 9.46347L9.72323 9.99888L17.7403 10.7611C16.5459 12.4149 15.5674 14.2163 14.839 16.1296L7.68044 16.4932L14.5098 17.0491C14.5098 17.0491 13.5677 17.682 12.6387 18.9683L9.49651 19.1693C9.57941 18.7377 9.44423 18.2756 9.09062 17.9438L9.09046 17.9437C8.51746 17.4058 7.58011 17.4058 7.00712 17.9437L5.42348 19.4298L0.000366211 19.7764L4.65079 20.1549L1.45143 23.1571C1.13447 23.4546 0.992768 23.8567 1.02648 24.2475C0.992768 24.6383 1.13431 25.0403 1.45143 25.3379L7.00712 30.5514C7.58011 31.0892 8.51746 31.0892 9.09046 30.5514L9.09062 30.5512C9.66362 30.0137 9.66362 29.1341 9.09062 28.5962L8.39596 27.9443H11.3367C11.5 28.5178 11.7074 29.1142 11.9668 29.7346C11.9668 29.7346 12.0726 30.2249 12.1853 30.9393L4.31429 31.9047L12.3801 32.467C12.404 32.7213 12.4234 32.9802 12.4363 33.2379C12.4815 34.1528 12.756 35.045 13.256 35.6623L8.96521 36.1886L17.1372 36.7584C21.6356 43.6121 29.7048 48.1815 38.912 48.1815C48.163 48.1815 56.2633 43.568 60.7484 36.6596L68.4331 36.4053L63.8903 35.67L63.89 35.6698ZM67.339 26.0014V25.5441H71.5525L70.7404 26.3062L67.339 26.0014ZM18.1216 16.147H20.8522C20.8522 16.147 21.5562 15.5463 20.8735 15.146C20.8735 15.146 20.5963 15.086 20.383 15.086C20.1696 15.086 20.0416 14.946 19.9562 14.7658C19.8709 14.5856 19.5723 14.5856 19.1456 14.5856C18.7189 14.5856 18.4628 14.5055 18.2494 14.9259C18.2494 14.9259 18.1216 15.166 17.9296 15.2261C17.7375 15.2862 17.695 15.3663 17.7589 15.7065C17.8227 16.0469 17.7374 16.1869 18.1216 16.147ZM21.7482 37.0018C21.7697 37.0021 51.381 37.3644 56.0648 37.0119C52.0483 41.7418 45.858 44.7741 38.9119 44.7741C31.9603 44.7741 25.765 41.7377 21.7482 37.0018ZM26.954 21.8873C26.9483 21.8876 26.2392 21.9297 26.2392 22.5676C26.2392 23.2082 25.7271 23.3682 25.6844 22.5276C25.6419 21.6868 24.5324 20.0853 23.423 20.5256C22.3137 20.966 22.143 21.847 22.1857 22.9681C22.2283 24.0889 21.85 25.61 21.4632 26.4509C21.2775 23.6467 21.4864 21.2944 21.7726 19.554C22.2617 19.3821 22.3316 19.0639 22.2904 18.3119C22.2477 17.531 22.2904 17.4711 22.2904 17.4711C22.6956 17.231 22.8238 16.9106 22.8238 16.9106C22.76 16.23 23.0797 16.2499 23.0797 16.2499C23.6558 16.2898 23.6558 17.1909 23.6558 17.1909H24.957C25.6803 17.2299 26.2766 17.229 26.7669 17.2042L30.4816 19.6297H28.5492C28.1373 19.6297 27.7813 19.7841 27.5159 20.0332C27.2537 20.2793 27.0848 20.6213 27.0462 20.9944L26.954 21.8872V21.8873ZM20.8999 30.8606L19.0547 30.8366C17.5106 26.935 17.1947 23.444 17.2584 20.9498C17.4375 19.8923 17.7025 18.8619 18.0462 17.8645C18.3819 17.8717 18.9208 17.8564 19.7526 17.7717C20.33 17.713 20.705 17.7734 20.9481 17.8802C20.3846 20.3806 19.759 25.025 20.9001 30.8606H20.8999ZM11.6359 20.7231C11.3569 21.3615 11.1259 22.0846 10.9867 22.8929C10.8077 22.82 10.6104 22.7792 10.4037 22.7792H6.02139L8.48538 20.4668L11.6359 20.7231ZM10.8783 25.47C10.9161 25.9407 10.9854 26.4321 11.0906 26.9432H7.32928L5.83832 25.5441H10.4037C10.5697 25.5441 10.7293 25.518 10.8783 25.47ZM67.7337 19.8733C67.8037 20.0132 67.9081 20.138 68.0228 20.2591L70.1203 22.4767H67.3392H67.1705C67.1508 22.4292 67.1265 22.3819 67.0972 22.3352L66.2769 21.0763C66.2359 21.0109 66.1973 20.9443 66.1597 20.8789C65.8759 20.3861 65.9771 20.4763 65.873 20.116L67.7337 19.8735V19.8733ZM66.1742 23.0106C66.0649 23.079 65.9658 23.1602 65.8795 23.2527C65.8627 23.2547 65.8465 23.2559 65.8308 23.2559H64.4478H60.8157H59.4967C59.4018 23.2475 59.3116 23.2064 59.2456 23.1454C59.193 23.0969 59.1593 23.0378 59.1593 22.9788H59.1615L59.1606 22.9589L59.3218 21.3973C59.3344 21.2753 59.3868 21.1661 59.4671 21.0907C59.5266 21.0349 59.6055 21.0002 59.6961 21.0002H60.5747H64.2425H64.8493C64.9389 21.0002 65.0448 21.1839 65.1596 21.3834C65.2044 21.4614 65.2503 21.541 65.299 21.6185L66.174 23.0106H66.1742ZM37.7561 20.6977H28.5495C28.4591 20.6977 28.38 20.7324 28.3205 20.7882C28.2402 20.8636 28.1878 20.9729 28.1753 21.0948L28.0309 22.4984L28.0148 22.6762C28.0148 22.7367 28.0476 22.7955 28.0989 22.8427C28.165 22.9036 28.2549 22.9445 28.3502 22.9533H38.7377C38.8264 22.9533 38.9334 22.9196 39.0293 22.8666C39.0712 22.8435 39.1075 22.8188 39.1352 22.7943L38.206 21.316C38.1573 21.2384 38.1113 21.1589 38.0667 21.0811C37.9517 20.8815 37.8462 20.6977 37.7563 20.6977H37.7561ZM26.3633 7.3252C27.655 7.32856 29.0945 7.34216 29.0945 7.34216C29.0945 7.34216 31.1425 7.30227 31.7398 6.50137C32.3371 5.70063 33.2757 4.97997 33.2757 4.97997H40.7426L42.7052 6.74164C42.7052 6.74164 43.3452 7.66252 47.6119 7.98288C51.38 8.26579 51.3085 9.00708 53.8088 9.10246C49.8978 5.70216 44.664 3.62273 38.912 3.62273C34.2447 3.62273 29.9185 4.99251 26.3633 7.3252Z" fill="black"/>
</svg>
