<svg width="50" height="48" viewBox="0 0 50 48" fill="none" xmlns="http://www.w3.org/2000/svg">
<mask id="mask0_116_32" style="mask-type:luminance" maskUnits="userSpaceOnUse" x="0" y="0" width="50" height="48">
<path d="M11.1774 0.215393H38.5792C44.7269 0.215393 49.7561 4.9459 49.7561 10.7273V36.7291C49.7561 42.5105 44.7263 47.241 38.5792 47.241H11.1774C5.02971 47.241 0 42.5105 0 36.7291V10.7273C0 4.94536 5.02971 0.215393 11.1774 0.215393Z" fill="white"/>
</mask>
<g mask="url(#mask0_116_32)">
<path d="M45.6641 0.264343H4.04714C1.7699 0.264343 -0.0761719 2.35598 -0.0761719 4.93613V42.4899C-0.0761719 45.07 1.7699 47.1617 4.04714 47.1617H45.6641C47.9413 47.1617 49.7874 45.07 49.7874 42.4899V4.93613C49.7874 2.35598 47.9413 0.264343 45.6641 0.264343Z" fill="#158BD9"/>
<path fill-rule="evenodd" clip-rule="evenodd" d="M14.8912 26.4569C14.9825 26.4586 16.0825 25.7768 16.2525 25.6789C17.5751 24.9145 18.9937 24.0561 20.3111 23.2732C22.1181 22.1989 23.9158 21.1398 25.7223 20.0655C26.1807 19.7931 26.6177 19.524 27.0744 19.263C27.5403 18.9972 27.9681 18.7215 28.427 18.4611C28.8901 18.1985 29.3219 17.9126 29.7797 17.6592C30.245 17.4015 30.6826 17.1177 31.1329 16.8573C32.0526 16.3245 32.9324 15.7873 33.8389 15.254C34.1498 15.0708 36.3118 13.7649 36.5725 13.6561C37.4725 13.281 38.0766 13.5816 37.5569 14.1128L35.8158 15.5862C35.6199 15.7525 35.432 15.9004 35.2349 16.0771C35.0482 16.2446 34.8343 16.399 34.6528 16.567L32.9093 18.0381C32.5723 18.3045 32.1012 18.7324 31.7497 19.0217C30.963 19.6686 30.2063 20.3314 29.4219 20.9811C28.8687 21.4394 28.227 22.0168 27.6825 22.456C27.49 22.6115 27.29 22.773 27.1004 22.9459C26.8079 23.2139 26.2605 23.6434 25.9356 23.9245L24.7754 24.9075C24.5708 25.0684 24.3991 25.2358 24.1956 25.3989L23.0332 26.3797C22.7487 26.6418 22.1869 27.0805 21.8695 27.3594L20.7082 28.3413C20.5932 28.4316 20.1717 28.7681 20.1232 28.8622L20.2619 28.9589C20.3504 28.9877 24.9147 32.1807 25.4928 32.5787C25.5714 32.6325 25.7974 32.7772 25.8454 32.8359C25.9344 32.869 28.0733 34.3674 28.2114 34.4631C29.0091 35.0127 29.7803 35.5613 30.5809 36.1093L32.94 37.7452C33.3336 38.0247 33.7336 38.2851 34.1256 38.5678C34.3684 38.7434 35.0967 39.2632 35.3297 39.3735C36.5592 39.9575 37.565 39.834 38.15 38.894C38.4142 38.47 38.5333 37.9747 38.6541 37.431C38.7743 36.8884 38.8894 36.3725 39.0148 35.8321C39.5102 33.7036 39.9721 31.5637 40.4582 29.439C41.434 25.1755 42.3624 20.9131 43.3381 16.6719L44.4156 11.8941C44.5353 11.3564 44.6735 10.8312 44.7758 10.2919C45.011 9.05013 44.5792 7.97474 43.4774 7.7377C42.8271 7.59797 42.3057 7.82903 41.793 8.01769C40.3299 8.55538 38.7928 9.08601 37.3488 9.63023C35.4303 10.3533 33.3631 11.0748 31.4185 11.7832C30.4352 12.1415 29.445 12.5128 28.4461 12.8613C27.453 13.2081 26.4796 13.5806 25.4882 13.934C22.5164 14.9925 19.5422 16.1021 16.5681 17.1704C14.6351 17.8647 12.5506 18.609 10.6407 19.3212C9.63658 19.6958 8.67237 20.034 7.66481 20.4015C6.66187 20.7674 5.60749 21.0778 4.84271 21.6199C4.56351 21.8178 4.01609 22.3196 4.28084 22.8779C4.46466 23.2661 4.97336 23.5238 5.47685 23.6918C5.97687 23.8582 6.53412 24.0077 7.04513 24.155L11.7511 25.5408C12.272 25.6996 12.7911 25.8497 13.3188 26.003C13.5408 26.0677 14.7796 26.4499 14.8906 26.4548L14.8912 26.4569Z" fill="#F2F9FD"/>
<path fill-rule="evenodd" clip-rule="evenodd" d="M14.8914 26.457C14.9561 26.725 15.2683 27.6373 15.3752 27.9689C15.5353 28.4631 15.7007 28.9687 15.8585 29.4678C16.1764 30.4742 16.5019 31.4691 16.8262 32.4722C17.151 33.4769 17.4759 34.4729 17.795 35.4754C17.9568 35.9832 18.1337 36.4628 18.2886 36.9689C18.4921 37.6322 18.647 37.8035 19.4835 37.8045C19.5702 36.3013 19.7101 34.8497 19.8552 33.3584C19.8986 32.9115 20.2061 29.0367 20.2604 28.9611L20.1217 28.8644C20.1702 28.7703 20.5916 28.4338 20.7067 28.3435L21.868 27.3616C22.1859 27.0827 22.7478 26.6435 23.0316 26.3819L24.1941 25.4012C24.3976 25.2381 24.5699 25.0706 24.7739 24.9097L25.9341 23.9267C26.2595 23.6456 26.807 23.2161 27.0989 22.9481C27.2879 22.7747 27.4879 22.6137 27.681 22.4583C28.2255 22.0184 28.8672 21.4416 29.4204 20.9833C30.2048 20.333 30.9615 19.6708 31.7482 19.0239C32.0997 18.7346 32.5708 18.3068 32.9078 18.0404L34.6513 16.5692C34.8333 16.4012 35.0466 16.2468 35.2334 16.0793C35.4305 15.9026 35.6178 15.7547 35.8143 15.5884L37.5554 14.115C38.0751 13.5839 37.471 13.2832 36.571 13.6583C36.3103 13.7671 34.1483 15.073 33.8373 15.2562C32.9315 15.7895 32.0517 16.3267 31.1314 16.8595C30.6817 17.1199 30.2441 17.4037 29.7782 17.6614C29.3204 17.9148 28.8886 18.2007 28.4255 18.4633C27.9666 18.7238 27.5388 18.9994 27.0729 19.2653C26.6162 19.5262 26.1792 19.7948 25.7208 20.0677C23.9143 21.142 22.1166 22.2011 20.3096 23.2754C18.9921 24.0583 17.5736 24.9167 16.251 25.6812C16.081 25.779 14.9816 26.4608 14.8896 26.4591L14.8914 26.457Z" fill="#C8DAEA"/>
<path fill-rule="evenodd" clip-rule="evenodd" d="M19.4839 37.8039C20.5007 37.7903 20.9418 37.295 21.4123 36.8726C21.9123 36.4235 22.3915 35.9739 22.891 35.5238L24.3685 34.1738C24.461 34.0917 25.7859 32.8641 25.8443 32.838C25.7957 32.7793 25.5697 32.6347 25.4917 32.5808C24.9136 32.1829 20.3492 28.9893 20.2608 28.9611C20.2065 29.0366 19.8989 32.9114 19.8556 33.3583C19.7099 34.8491 19.57 36.3012 19.4839 37.8045V37.8039Z" fill="#A9C9DD"/>
</g>
</svg>
