<svg width="50" height="48" viewBox="0 0 50 48" fill="none" xmlns="http://www.w3.org/2000/svg">
<path fill-rule="evenodd" clip-rule="evenodd" d="M10.7983 21.6811C11.2468 17.6309 13.9813 14.3627 16.4659 12.5569C16.7941 12.3186 17.1173 12.1137 17.4725 11.8947C18.141 11.4823 18.9206 11.0939 19.7129 10.7826C28.6546 7.27003 38.6051 12.6319 40.0424 21.4407C40.8319 28.0467 37.7785 33.4989 31.451 36.3091C27.4337 38.0935 21.7597 37.8625 17.8427 35.5384C17.3295 35.2338 17.3821 35.2653 16.7414 35.43L11.7893 36.6385C11.8755 36.0915 12.1524 35.3597 12.3047 34.8012C12.4706 34.1953 12.6586 33.5759 12.838 32.9693C13.0138 32.3741 13.389 31.6717 13.0515 31.1909C11.1956 28.5488 10.2779 25.041 10.7976 21.6811H10.7983ZM7.95423 26.6566C8.14075 28.2864 9.04417 30.2134 9.83725 31.6396C10.137 32.1786 9.75466 32.8629 9.5838 33.4494C9.22785 34.6754 7.65878 39.8364 7.52637 40.595C8.29239 40.4986 9.54323 40.1317 10.3185 39.9281L15.9441 38.5448C17.3166 38.2268 16.5584 38.2355 18.5675 39.0383C23.8741 41.1595 30.6985 40.597 35.4598 37.4206C37.1819 36.2716 37.9216 35.5753 39.2059 34.1826C41.0491 32.1832 43.1435 28.192 43.1976 24.5368C43.2553 18.5341 41.0697 14.5844 37.9138 11.6697C34.9878 8.96805 30.1852 6.47659 24.1297 6.90913C20.3537 7.17897 15.8387 8.90779 13.4111 11.2894C11.9338 12.739 10.9407 13.5586 9.81019 15.6289C9.23639 16.6801 8.79429 17.5579 8.41911 18.7451C7.52779 21.5673 7.5285 23.659 7.95423 26.656V26.6566Z" fill="#FDFEFE"/>
<path fill-rule="evenodd" clip-rule="evenodd" d="M16.6645 21.4969C17.0782 22.1082 16.792 22.3881 18.6223 24.7249C21.1873 27.9991 23.5737 29.8457 28.1314 31.3148C30.4721 32.0694 33.1561 31.2733 34.0225 29.7728C34.2503 29.3784 34.6433 28.0794 34.3934 27.5933C34.2069 27.2311 31.3599 26.0634 30.7975 25.8297C29.709 25.3771 29.6648 25.7433 29.1416 26.3928C28.8839 26.7122 28.1207 27.6127 27.7882 27.7775C26.9296 28.0085 23.9773 26.0085 23.1415 25.2231C22.7058 24.814 20.7353 22.8039 21.072 22.1149C21.1539 21.9475 21.791 21.2934 21.9348 21.1695C22.8867 19.9174 22.2431 19.4842 21.6522 18.0922C20.6918 15.8284 20.8677 15.8531 19.4004 15.8518C18.5547 15.8511 18.1816 16.119 17.8029 16.5328C16.236 18.2462 16.2352 19.2545 16.6645 21.4969Z" fill="#FDFEFE"/>
<mask id="mask0_116_35" style="mask-type:luminance" maskUnits="userSpaceOnUse" x="0" y="0" width="50" height="48">
<path d="M11.1771 0.215393H38.578C44.7254 0.215393 49.7551 4.94588 49.7551 10.7276V36.7288C49.7551 42.5105 44.7254 47.241 38.578 47.241H11.1771C5.02969 47.241 0 42.5105 0 36.7288V10.7276C0 4.94588 5.02969 0.215393 11.1771 0.215393Z" fill="white"/>
</mask>
<g mask="url(#mask0_116_35)">
<path fill-rule="evenodd" clip-rule="evenodd" d="M43.1977 24.3169C43.1435 27.9721 41.0491 31.9627 39.2059 33.9627C37.9216 35.3554 37.1827 36.0518 35.4598 37.2007C30.6978 40.3778 23.8741 40.9403 18.5675 38.8184C16.5592 38.0156 17.3174 38.0069 15.9441 38.3249L10.3185 39.7083C9.54324 39.9118 8.29241 40.2787 7.52638 40.3751C7.65809 39.6165 9.22786 34.4555 9.58382 33.2295C9.75397 32.6423 10.137 31.958 9.83726 31.4197C9.04419 29.9935 8.14077 28.0665 7.95425 26.4368C7.52852 23.4398 7.52781 21.3481 8.41913 18.5259C8.79431 17.3387 9.23569 16.4609 9.81021 15.4097C10.9407 13.3394 11.9339 12.5199 13.4111 11.0703C15.8387 8.6886 20.3537 6.95978 24.1297 6.68995C30.1852 6.25741 34.9878 8.74954 37.9138 11.4506C41.0697 14.3652 43.2553 18.3143 43.1977 24.3176V24.3169ZM-0.113899 23.3883C-0.0213499 25.1639 -0.106068 27.1418 -0.107492 28.9396C-0.108916 30.7635 -0.110339 32.5881 -0.111051 34.412C-0.113899 38.1395 -0.0768793 40.9403 1.95564 43.4973C5.3586 47.7792 10.3292 47.2402 15.638 47.2402C21.4849 47.2402 27.3326 47.2402 33.1796 47.2402C39.0415 47.2402 43.5543 47.952 47.3844 43.9901C48.322 43.0199 48.9941 41.7143 49.3799 40.3912C50.2371 37.4518 49.7081 33.0206 49.8662 29.8255C49.9651 27.8087 49.8712 25.5871 49.8712 23.5469C49.8712 21.4813 49.8747 19.4157 49.8726 17.3501C49.8697 13.8764 50.2421 8.69329 48.9044 5.78135C47.7098 3.18209 44.9831 0.907577 41.326 0.430176C39.3035 0.166367 36.9897 0.216585 34.8917 0.216585L15.0399 0.212567C10.4766 0.212567 7.01665 -0.0217807 3.87781 2.18645C2.66969 3.0368 1.67942 4.1302 0.910548 5.66886C-0.457754 8.40739 -0.113899 14.0351 -0.117459 17.1894C-0.119594 19.1914 -0.217839 21.413 -0.112475 23.3883H-0.113899ZM16.6638 21.2939C16.2345 19.0515 16.236 18.0431 17.8022 16.3297C18.1809 15.9152 18.554 15.6481 19.3997 15.6487C20.8677 15.6501 20.6911 15.6253 21.6515 17.8891C22.2424 19.2811 22.886 19.7144 21.9341 20.9664C21.7903 21.0903 21.1532 21.7445 21.0713 21.9119C20.7346 22.6015 22.7051 24.6109 23.1408 25.02C23.9766 25.8054 26.9289 27.8054 27.7875 27.5744C28.12 27.4097 28.8832 26.5091 29.1409 26.1897C29.6641 25.5409 29.7076 25.174 30.7968 25.6266C31.3592 25.8603 34.2062 27.0287 34.3927 27.3903C34.6426 27.8764 34.2496 29.1753 34.0218 29.5697C33.1554 31.0702 30.4714 31.8656 28.1307 31.1117C23.5723 29.6427 21.1866 27.796 18.6216 24.5218C16.7913 22.185 17.0774 21.9045 16.6638 21.2939ZM40.0424 21.2209C38.6058 12.4114 28.6546 7.04951 19.713 10.5627C18.9213 10.8741 18.1411 11.2624 17.4726 11.6749C17.1173 11.8938 16.7934 12.0987 16.4659 12.3371C13.9813 14.1429 11.2469 17.411 10.7983 21.4612C10.2779 24.8211 11.1963 28.329 13.0523 30.9711C13.3897 31.4512 13.0145 32.1542 12.8387 32.7488C12.6593 33.3554 12.4714 33.9748 12.3055 34.5807C12.1524 35.1391 11.8762 35.871 11.79 36.418L16.7421 35.2094C17.3829 35.0441 17.3302 35.0133 17.8435 35.3179C21.7611 37.6427 27.4344 37.873 31.4517 36.0886C37.7793 33.2784 40.8327 27.8261 40.0431 21.2202L40.0424 21.2209Z" fill="#2ED64B"/>
</g>
</svg>
