<svg width="70" height="81" viewBox="0 0 70 81" fill="none" xmlns="http://www.w3.org/2000/svg">
<path d="M61.2129 51.9431C59.2758 51.8139 48.2988 48.4563 44.2954 46.6483C44.1663 51.5557 44.0371 59.8207 44.0371 60.4664C43.908 61.3704 42.6166 65.5029 38.6132 70.9268C38.6132 70.9268 38.3549 67.3109 37.9675 62.9201C37.7092 59.6916 35.643 57.8836 35.643 56.2048C35.643 55.6882 37.1927 54.6551 37.1927 53.6219C37.1927 52.5888 36.8052 51.4265 34.6098 51.4265C32.4144 51.4265 32.027 52.4597 32.027 53.6219C32.027 54.6551 33.5767 55.6882 33.5767 56.2048C33.5767 57.8836 31.5104 59.6916 31.2522 62.9201C30.8647 67.3109 30.6065 70.9268 30.6065 70.9268C26.4739 65.5029 25.3117 61.3704 25.1825 60.4664C25.0534 59.8207 24.9242 51.5557 24.9242 46.6483C20.9209 48.4563 9.94387 51.8139 8.00675 51.9431C5.81135 52.0722 5.16565 52.7179 4.13252 54.6551C3.09939 56.463 0.516565 65.2446 0 71.3143C13.5598 77.2548 32.931 80.9998 54.3684 80.9998C59.5341 80.9998 64.6997 80.7416 69.6071 80.3541C68.9614 69.3771 66.5077 56.3339 65.4746 54.6551C64.054 52.7179 63.4083 52.2014 61.2129 51.9431Z" fill="white"/>
<path d="M21.3084 25.5984C21.3084 26.6315 21.5667 29.3435 21.825 31.5389C21.9541 33.7343 23.3747 33.476 23.5038 33.2177C23.5038 36.3171 26.0867 39.2874 26.0867 39.2874C27.2489 41.0953 31.2523 43.549 34.4808 43.549C28.5403 43.549 26.0867 41.2245 26.0867 41.2245C26.0867 42.9033 26.0867 45.0987 26.0867 45.8736L33.3186 50.9101H35.514L42.7459 45.8736C42.7459 44.5822 42.7459 39.2874 42.7459 39.2874C42.7459 39.2874 45.3287 36.188 45.3287 33.2177C45.587 33.476 46.8784 33.7343 47.0075 31.5389C47.1367 29.3435 47.3949 26.6315 47.5241 25.5984C47.5241 24.5653 46.2327 24.8236 46.2327 25.3401C46.2327 24.4361 46.1035 24.1778 46.2327 24.0487C46.3618 23.9196 47.1367 23.1447 47.1367 22.3699C47.1367 21.595 47.5241 21.0785 47.5241 19.6579C47.5241 18.2374 47.5241 14.6214 47.5241 13.7174C47.5241 12.8134 46.6201 13.33 46.6201 12.8134C46.6201 12.2969 46.1035 10.1015 43.1333 10.1015C43.9081 9.45576 44.4247 7.3895 44.2956 6.48551C44.0373 7.13122 42.875 7.51864 42.1002 7.51864C38.6133 7.51864 37.3219 5.32324 33.1894 5.32324C27.8946 5.45238 25.8284 8.29349 25.8284 9.97232C22.8581 9.97232 22.3416 12.1677 22.3416 12.6843C22.3416 13.2009 21.4376 12.6843 21.4376 13.5883C21.4376 14.4923 21.4376 18.1082 21.4376 19.5288C21.4376 20.9493 21.825 21.4659 21.825 22.2407C21.825 23.0156 22.5998 23.7904 22.729 23.9196C22.8581 24.0487 22.729 24.307 22.729 25.211C22.5998 24.8236 21.3084 24.5653 21.3084 25.5984Z" fill="white"/>
<path d="M18.1122 38.4267L21.7159 37.5258L20.1714 31.8629L18.2409 24.7842L14.6372 25.6851L18.1122 38.4267Z" fill="white"/>
<path d="M10.5183 29.2886C9.61737 30.833 9.48866 32.7636 10.1322 34.5654C10.9044 36.2386 12.3201 37.5256 14.122 37.9117V41.5154C14.122 42.0302 14.3794 42.4163 14.7655 42.8024L18.6266 45.3765C18.884 45.5052 19.1414 45.6339 19.3988 45.6339H27.5071C27.7645 46.1487 28.2793 46.4061 28.7941 46.4061H31.7543C32.5265 46.4061 33.17 45.7626 33.17 44.9904C33.17 44.2181 32.5265 43.5746 31.7543 43.5746H28.7941C28.2793 43.5746 27.7645 43.832 27.5071 44.3468H19.3988L15.5377 41.7728V38.2978C15.7951 38.2978 16.0525 38.2978 16.3099 38.2978L13.3498 26.9719C12.1914 27.358 11.1618 28.1303 10.5183 29.2886Z" fill="white"/>
<path d="M10.5183 29.2886C9.61737 30.833 9.48866 32.7636 10.1322 34.5654C10.9044 36.2386 12.3201 37.5256 14.122 37.9117V41.5154C14.122 42.0302 14.3794 42.4163 14.7655 42.8024L18.6266 45.3765C18.884 45.5052 19.1414 45.6339 19.3988 45.6339H27.5071C27.7645 46.1487 28.2793 46.4061 28.7941 46.4061H31.7543C32.5265 46.4061 33.17 45.7626 33.17 44.9904C33.17 44.2181 32.5265 43.5746 31.7543 43.5746H28.7941C28.2793 43.5746 27.7645 43.832 27.5071 44.3468H19.3988L15.5377 41.7728V38.2978C15.7951 38.2978 16.0525 38.2978 16.3099 38.2978L13.3498 26.9719C12.1914 27.358 11.1618 28.1303 10.5183 29.2886Z" fill="white"/>
<path d="M25.9463 45.6337H27.5071C27.7645 46.1485 28.2793 46.4059 28.7941 46.4059H31.7543C32.5265 46.4059 33.17 45.7624 33.17 44.9902C33.17 44.218 32.5265 43.5745 31.7543 43.5745H28.7941C28.2793 43.5745 27.7645 43.8319 27.5071 44.3467H25.9463V45.6337Z" fill="#185566"/>
<path d="M48.2692 31.8633L46.7246 37.5266L50.3285 38.4276L53.8037 25.6852L50.1998 24.7842L48.2692 31.8633Z" fill="white"/>
<path d="M57.7935 29.2888C57.1499 28.1304 56.1202 27.2294 54.9618 26.8433L52.0015 38.1699C54.1896 38.4273 56.3777 37.5263 57.6648 35.5957C58.8232 33.665 58.9519 31.2195 57.7935 29.2888Z" fill="white"/>
<path d="M19.142 24.7841L17.7111 18.8381C16.7095 14.7089 17.5681 10.0842 19.8574 6.61569C22.1468 2.98201 25.724 1 29.5874 1H39.6034C43.4668 1 47.044 2.98201 49.3333 6.61569C51.6227 10.0842 52.4813 14.5437 51.4796 18.8381L50.0488 24.7841" stroke="white" stroke-width="2"/>
</svg>
