<svg width="74" height="80" viewBox="0 0 74 80" fill="none" xmlns="http://www.w3.org/2000/svg">
<path fill-rule="evenodd" clip-rule="evenodd" d="M64.8456 7.41814H14.0931C13.5198 7.41662 10.8028 7.41748 11.9244 7.41748C11.9243 7.89517 11.9264 8.98118 11.9244 9.54766V77.8671C11.9259 78.434 11.9244 79.5158 11.9244 79.9995C11.9244 79.9995 13.5194 80.0007 14.0931 79.9995H64.8437C65.4174 80.0007 66.5291 79.9933 67.0124 79.9995C67.0124 79.9995 67.0109 78.434 67.0124 77.8671V9.54766C67.0106 8.98144 67.0123 7.8952 67.0123 7.41772C66.5291 7.41769 65.4187 7.41687 64.8456 7.41814ZM25.8694 69.793C25.8813 70.3068 25.6864 70.8043 25.3274 71.1762C24.9685 71.548 24.4748 71.7639 23.9548 71.7765H18.6896C18.1696 71.7639 17.676 71.548 17.317 71.1762C16.958 70.8043 16.7631 70.3068 16.775 69.793V66.3218C16.7628 65.808 16.9577 65.3104 17.3167 64.9384C17.6757 64.5665 18.1695 64.3507 18.6896 64.3384H23.9558C24.4758 64.3509 24.9694 64.5668 25.3284 64.9387C25.6874 65.3106 25.8823 65.808 25.8704 66.3218V69.7921L25.8694 69.793ZM25.8694 58.1427C25.8816 58.6567 25.6868 59.1544 25.3278 59.5265C24.9688 59.8986 24.475 60.1146 23.9548 60.1271H18.6896C18.1695 60.1146 17.6756 59.8986 17.3166 59.5265C16.9576 59.1544 16.7628 58.6567 16.775 58.1427V54.6696C16.7686 54.4149 16.813 54.1614 16.9058 53.9237C16.9985 53.6859 17.1378 53.4686 17.3156 53.284C17.4934 53.0995 17.7062 52.9514 17.942 52.8481C18.1778 52.7449 18.4318 52.6886 18.6896 52.6824H23.9558C24.4758 52.6947 24.9697 52.9105 25.3287 53.2824C25.6877 53.6544 25.8825 54.152 25.8704 54.6658V58.1361L25.8694 58.1427ZM25.8694 46.9871C25.8813 47.5008 25.6864 47.9981 25.3274 48.3699C24.9684 48.7416 24.4747 48.9573 23.9548 48.9696H18.6896C18.1698 48.9571 17.6763 48.7413 17.3173 48.3696C16.9584 47.9979 16.7633 47.5007 16.775 46.9871V43.5149C16.7687 43.2603 16.8133 43.0069 16.9061 42.7693C16.9989 42.5317 17.1382 42.3144 17.3159 42.13C17.4937 41.9455 17.7065 41.7975 17.9422 41.6943C18.1779 41.5912 18.4319 41.5349 18.6896 41.5287H23.9558C24.4761 41.5414 24.97 41.7578 25.3288 42.1303C25.6877 42.5028 25.8821 43.0008 25.8694 43.5149V46.9871ZM37.839 69.793C37.8509 70.3067 37.6561 70.804 37.2973 71.1758C36.9386 71.5477 36.4452 71.7637 35.9254 71.7765H30.6591C30.4014 71.7707 30.1472 71.7149 29.9113 71.6121C29.6753 71.5094 29.4622 71.3617 29.2841 71.1775C29.1059 70.9933 28.9662 70.7762 28.873 70.5387C28.7798 70.3011 28.7348 70.0478 28.7407 69.793V66.3218C28.7288 65.8079 28.9239 65.3103 29.283 64.9384C29.6422 64.5665 30.1361 64.3507 30.6562 64.3384H35.9225C36.4423 64.3512 36.9357 64.5672 37.2944 64.939C37.6532 65.3109 37.848 65.8082 37.8361 66.3218V69.7921L37.839 69.793ZM37.839 58.1427C37.8512 58.6565 37.6565 59.1541 37.2977 59.5261C36.9389 59.8982 36.4453 60.1143 35.9254 60.1271H30.6591C30.401 60.1214 30.1466 60.0655 29.9104 59.9624C29.6742 59.8594 29.4609 59.7114 29.2827 59.5268C29.1045 59.3422 28.9649 59.1247 28.8719 58.8867C28.7789 58.6487 28.7343 58.3949 28.7407 58.1399V54.6696C28.7343 54.4146 28.7789 54.1608 28.8719 53.9228C28.9649 53.6848 29.1045 53.4673 29.2827 53.2827C29.4609 53.0981 29.6742 52.9501 29.9104 52.8471C30.1466 52.744 30.401 52.6881 30.6591 52.6824H35.9254C36.4452 52.6949 36.9388 52.9108 37.2976 53.2827C37.6564 53.6547 37.8512 54.1521 37.839 54.6658V58.1361V58.1427ZM37.839 46.9871C37.8509 47.5006 37.6561 47.9978 37.2973 48.3695C36.9385 48.7413 36.4451 48.9571 35.9254 48.9696H30.6591C30.4012 48.9639 30.1469 48.908 29.9108 48.8051C29.6748 48.7022 29.4615 48.5543 29.2834 48.3699C29.1052 48.1855 28.9655 47.9682 28.8724 47.7305C28.7793 47.4927 28.7346 47.2391 28.7407 46.9842V43.5149C28.7288 43.0009 28.9238 42.5032 29.283 42.1312C29.6421 41.7591 30.136 41.5431 30.6562 41.5306H35.9225C36.4424 41.5433 36.936 41.7595 37.2948 42.1315C37.6536 42.5036 37.8483 43.0012 37.8361 43.5149V46.9862L37.839 46.9871ZM49.8095 69.793C49.8212 70.3069 49.626 70.8044 49.2669 71.1762C48.9078 71.5481 48.414 71.7639 47.894 71.7765H42.6278C42.1076 71.7642 41.6137 71.5484 41.2545 71.1765C40.8954 70.8046 40.7003 70.307 40.7122 69.793V66.3218C40.7062 66.0673 40.751 65.8141 40.844 65.5767C40.937 65.3393 41.0764 65.1223 41.2542 64.9381C41.4321 64.7539 41.645 64.6062 41.8806 64.5033C42.1163 64.4004 42.3702 64.3444 42.6278 64.3384H47.893C48.4133 64.3504 48.9075 64.5661 49.2669 64.938C49.6262 65.31 49.8214 65.8077 49.8095 66.3218V69.793ZM38.8518 36.3357V30.606H61.6215V36.3357H38.8518ZM49.8095 58.1399C49.8214 58.6539 49.6264 59.1516 49.2673 59.5237C48.9081 59.8957 48.4142 60.1117 47.894 60.1243H42.6278C42.1075 60.112 41.6134 59.8961 41.2542 59.5239C40.895 59.1518 40.7 58.654 40.7122 58.1399V54.6696C40.7058 54.4148 40.7503 54.1613 40.8431 53.9235C40.9359 53.6857 41.0752 53.4683 41.2531 53.2837C41.431 53.0992 41.644 52.951 41.8799 52.8479C42.1157 52.7447 42.3699 52.6885 42.6278 52.6824H47.893C48.151 52.6883 48.4052 52.7445 48.6412 52.8476C48.8772 52.9507 49.0902 53.0988 49.2682 53.2834C49.4462 53.468 49.5857 53.6854 49.6785 53.9233C49.7714 54.1611 49.8159 54.4147 49.8095 54.6696V58.1399ZM49.8095 46.9842C49.8212 47.498 49.626 47.9954 49.2668 48.3671C48.9077 48.7388 48.4139 48.9544 47.894 48.9667H42.6278C42.1078 48.9544 41.614 48.7388 41.2549 48.3671C40.8957 47.9954 40.7006 47.498 40.7122 46.9842V43.5149C40.7003 43.0009 40.8953 42.5032 41.2545 42.1312C41.6136 41.7591 42.1075 41.5431 42.6278 41.5306H47.893C48.1507 41.5365 48.4047 41.5926 48.6405 41.6955C48.8763 41.7985 49.0892 41.9463 49.2672 42.1306C49.4452 42.3148 49.5847 42.5319 49.6777 42.7695C49.7707 43.007 49.8155 43.2603 49.8095 43.5149V46.9862V46.9842ZM62.1647 70.2848C62.1712 70.5398 62.1268 70.7935 62.0339 71.0314C61.941 71.2693 61.8015 71.4868 61.6233 71.6713C61.4452 71.8559 61.2319 72.0038 60.9958 72.1068C60.7596 72.2097 60.5053 72.2655 60.2472 72.2711H54.9829C54.4632 72.2588 53.9695 72.0433 53.6104 71.6718C53.2513 71.3003 53.056 70.8032 53.0674 70.2896V54.917C53.0558 54.4032 53.2509 53.9058 53.6101 53.5341C53.9692 53.1624 54.463 52.9468 54.9829 52.9345H60.2472C60.7671 52.9468 61.2608 53.1625 61.6198 53.5342C61.9788 53.9059 62.1737 54.4033 62.1618 54.917V70.2915L62.1647 70.2848ZM62.1647 48.9638C62.1712 49.2188 62.1268 49.4726 62.0339 49.7106C61.941 49.9485 61.8015 50.1661 61.6234 50.3507C61.4453 50.5353 61.232 50.6834 60.9959 50.7864C60.7597 50.8894 60.5053 50.9454 60.2472 50.9511H54.9829C54.4628 50.9388 53.9689 50.723 53.6097 50.3511C53.2505 49.9792 53.0555 49.4816 53.0674 48.9677V43.5149C53.0555 43.0009 53.2505 42.5032 53.6097 42.1312C53.9688 41.7591 54.4627 41.5431 54.9829 41.5306H60.2472C60.5049 41.5365 60.7589 41.5926 60.9947 41.6955C61.2305 41.7985 61.4435 41.9463 61.6214 42.1306C61.7994 42.3148 61.9389 42.5319 62.0319 42.7695C62.125 43.007 62.1698 43.2603 62.1637 43.5149V48.9677L62.1647 48.9638ZM62.1647 23.0181C62.1641 23.2987 62.1075 23.5765 61.9982 23.8356C61.8889 24.0946 61.7291 24.3299 61.5278 24.5279C61.3265 24.7259 61.0877 24.8828 60.825 24.9896C60.5623 25.0964 60.281 25.1511 59.9969 25.1505H19.1535C18.5802 25.152 18.0298 24.9287 17.623 24.5296C17.2162 24.1306 16.9863 23.5883 16.9838 23.0219V16.0613C16.9844 15.7805 17.041 15.5025 17.1504 15.2432C17.2598 14.984 17.4198 14.7486 17.6213 14.5505C17.8228 14.3524 18.0618 14.1954 18.3247 14.0886C18.5876 13.9818 18.8692 13.9272 19.1535 13.928H59.996C60.28 13.9274 60.5614 13.982 60.824 14.0888C61.0867 14.1957 61.3255 14.3526 61.5268 14.5506C61.7281 14.7486 61.8879 14.9838 61.9972 15.2429C62.1065 15.5019 62.1631 15.7797 62.1637 16.0604V23.0219L62.1647 23.0181ZM44.9521 31.2678H45.4266V35.7312H44.9511V31.2716L44.9521 31.2678ZM50.3401 31.2678H50.8146V35.7312H50.3391V31.2716L50.3401 31.2678ZM55.8624 31.2678H56.3369V35.7312H55.8615V31.2716L55.8624 31.2678Z" fill="white"/>
<path fill-rule="evenodd" clip-rule="evenodd" d="M73.9978 0H18.5309V4.41817H69.3015C69.7181 4.41817 70.0612 4.75795 70.0612 5.17221V72.4411H73.9978V0ZM5.46908 26.657V25.2913H0V26.657H5.46908ZM5.46908 23.7711V18.7165C5.46908 18.5806 5.40701 18.4505 5.31684 18.358L5.28939 18.327C5.20292 18.2528 5.08509 18.2096 4.96225 18.2096H0.0588078L0.0121973 18.222L0 18.2649V23.7708L5.46908 23.7711ZM0 61.8856H1.97135V31.2483C1.97135 30.8279 2.31461 30.4882 2.73106 30.4882C3.15142 30.4882 3.49163 30.8282 3.49163 31.2483V61.8856H5.46908V28.177H0V61.8856ZM5.46908 63.4057H0V66.483L2.73128 72.2425L5.4693 66.483L5.46908 63.4057Z" fill="white"/>
</svg>
