<svg width="70" height="80" viewBox="0 0 70 80" fill="none" xmlns="http://www.w3.org/2000/svg">
<path fill-rule="evenodd" clip-rule="evenodd" d="M69.8354 0H17.4885V4.16965H65.4033C65.7965 4.16965 66.1202 4.49031 66.1202 4.88128V68.3662H69.8354V0ZM22.231 73.0893L22.26 73.095H22.2744H22.3126L22.3416 73.1008H22.3597H22.3712H22.4L22.4296 73.1064H22.4411H22.4555H22.4845H22.5141H22.5227H22.54L22.5696 73.1121H22.5985H22.6043H22.6281H22.6571H22.6859H22.6888H22.7155H22.7443H22.7739H22.8029H22.8316H22.8382H22.8612H22.89H22.9015H22.9196H22.9486H22.9659L22.9782 73.1064H23.0072H23.0302H23.036H23.0656H23.0943L23.1239 73.1008H23.1529H23.1587H23.1817H23.2113L23.2228 73.095H23.2372H23.2668L23.2869 73.0893H23.2956H23.3252H23.3511L23.3801 73.0833H23.4097H23.4154L23.4384 73.0776H23.468L23.4795 73.0718C24.6923 72.9434 25.8997 72.448 26.8443 71.6667L26.8681 71.649L26.9026 71.6196L26.9084 71.6138L26.9466 71.5846L26.961 71.5729L26.984 71.5497C28.1917 70.465 28.944 69.1819 29.1771 67.4442L29.18 67.4033L29.1828 67.3913L29.1857 67.3449L29.1886 67.3213L29.1915 67.2921L29.1943 67.2397L29.2001 67.187L29.203 67.1581L29.2059 67.1348L29.2087 67.082V67.0762L29.2116 67.0296V66.9946L29.2153 66.977L29.2182 66.9248V66.9126V66.8721L29.2211 66.8312V66.8197V66.7669V66.7441L29.2239 66.7147V66.662L29.2211 66.5807V66.4993V66.4931L29.2182 66.4174V66.4117L29.2116 66.336V66.3301L29.2087 66.2542V66.2485L29.203 66.1728V66.1671L29.1943 66.0914V66.0855C29.0926 65.0704 28.8387 64.2836 28.3288 63.3855L28.3078 63.3446L28.2876 63.3154C28.0221 62.8778 27.7076 62.4753 27.3491 62.114L27.3339 62.1023C27.1881 61.9561 27.0366 61.8161 26.8765 61.6881H26.8736C26.7156 61.5538 26.5497 61.4313 26.3781 61.315L26.1154 61.1456L26.0512 61.1051C25.4272 60.7551 24.8502 60.51 24.1497 60.3583L24.0738 60.3466H24.0709L23.9924 60.3294L23.9137 60.3117L23.8352 60.3002L23.7538 60.2882L23.675 60.2765H23.6722L23.5928 60.2648L23.5141 60.2529H23.5112L23.4325 60.2471L23.3511 60.2356L23.2697 60.2299L23.1883 60.2239L23.1061 60.2182H23.1032H23.0216L22.9402 60.2124H22.9373H22.8559H22.7745H22.6894H22.6049C21.2466 60.2708 20.0332 60.6615 18.9136 61.4955L18.8523 61.5423L18.7911 61.589L18.7298 61.6356L18.6686 61.6883L18.6108 61.7349L18.5524 61.7876L18.4941 61.84L18.4357 61.8866L18.3771 61.9393L18.3245 61.9915L18.2667 62.05L18.2141 62.1027L18.1557 62.1549L18.1031 62.2135L18.0505 62.2716L17.9985 62.324L17.9458 62.3824L17.8961 62.4406H17.8932L17.847 62.4988L17.7943 62.5573L17.7006 62.6797H17.6977L17.6046 62.8024L17.5576 62.8667L17.5144 62.931L17.4264 63.0591H17.4235L17.3802 63.1232L17.339 63.1876L17.2986 63.2519L17.2574 63.3163L17.2163 63.3863L17.1758 63.4505L17.1405 63.5206H17.1376L17.1002 63.5905C16.6803 64.3775 16.458 65.1064 16.3563 66.0047L16.3477 66.0863L16.3419 66.1679L16.3362 66.2493L16.3304 66.3309L16.3275 66.4125L16.3246 66.4939V66.5817V66.6631V66.7157V66.7451V66.7679V66.8265V66.8787L16.3275 66.9081V66.9313L16.3304 66.9837V66.9899L16.3333 67.0366L16.3362 67.0715V67.0947L16.3419 67.1414V67.1531L16.3448 67.2002L16.3477 67.2351V67.2524L16.3534 67.305L16.3563 67.3167L16.3592 67.3574L16.3649 67.3981V67.4101L16.3707 67.4625L16.3736 67.4744L16.3764 67.5151L16.3822 67.5558V67.5616C16.8307 70.5756 19.2509 72.8443 22.231 73.0893ZM25.8697 79.9242V76.011V75.9933V73.9113C24.7242 74.4016 23.5252 74.5997 22.3097 74.5354L22.2894 74.5296H22.2598H22.2569L22.158 74.5238H22.1552L22.1198 74.5183H22.1083H22.0853L22.0557 74.5126H22.0528L21.9157 74.5006H21.9042C21.1229 74.4133 20.3706 74.2147 19.6708 73.9115V75.9936V76.0112V80L22.4207 77.504C22.6978 77.2474 23.1293 77.2532 23.4004 77.5157L25.8697 79.9242ZM24.6627 64.7732C24.1786 64.2891 23.5077 63.9915 22.7735 63.9915C22.0499 63.9915 21.3971 64.2772 20.9159 64.7383L20.8834 64.7732C20.3993 65.2571 20.0992 65.9278 20.0992 66.6625C20.0992 67.3971 20.3993 68.068 20.8777 68.5521C21.3646 69.036 22.0327 69.3334 22.7735 69.3334C23.5079 69.3334 24.1786 69.0362 24.6598 68.5521C25.1439 68.068 25.444 67.3971 25.444 66.6625C25.444 65.9278 25.141 65.2571 24.6627 64.7732ZM22.7735 62.5571C23.9018 62.5571 24.9283 63.0176 25.6714 63.7582C26.4151 64.499 26.8761 65.5313 26.8761 66.6627C26.8761 67.794 26.4151 68.8202 25.6742 69.5612C24.9283 70.3075 23.9018 70.7686 22.7735 70.7686C21.6386 70.7686 20.6152 70.3075 19.8721 69.5669C19.1284 68.8202 18.6673 67.794 18.6673 66.6627C18.6673 65.5313 19.1284 64.4992 19.8692 63.7582L19.9097 63.7232C20.6503 63.0003 21.6598 62.5571 22.7735 62.5571ZM55.7432 12.7417H18.6587V16.9058H55.7432V12.7417ZM17.9417 11.3067H56.461C56.854 11.3067 57.1753 11.6276 57.1753 12.0241V17.6225C57.1753 18.0193 56.854 18.3399 56.461 18.3399H17.9417C17.5477 18.3399 17.2246 18.0191 17.2246 17.6225V12.0241C17.2246 11.6276 17.5477 11.3067 17.9417 11.3067ZM5.16145 25.1575V23.8687H0V25.1575H5.16145ZM5.16145 22.4339V17.6637C5.16145 17.5354 5.10286 17.4127 5.01777 17.3253L4.99186 17.2961C4.91026 17.226 4.79906 17.1853 4.68312 17.1853H0.0554999L0.0115112 17.1971L0 17.2375V22.4337L5.16145 22.4339ZM0 58.4046H1.86046V29.4906C1.86046 29.0939 2.18442 28.7732 2.57744 28.7732C2.97415 28.7732 3.29523 29.0941 3.29523 29.4906V58.4046H5.16145V26.5921H0V58.4046ZM5.16145 59.8391H0V62.7434L2.57764 68.1788L5.16165 62.7434L5.16145 59.8391ZM17.9417 26.4058C17.5477 26.4058 17.2246 26.079 17.2246 25.6885C17.2246 25.2917 17.5477 24.9711 17.9417 24.9711H32.0485C32.4452 24.9711 32.7663 25.292 32.7663 25.6885C32.7663 26.079 32.4452 26.4058 32.0485 26.4058H17.9417ZM17.9417 31.3278C17.5477 31.3278 17.2246 31.007 17.2246 30.616C17.2246 30.2197 17.5477 29.899 17.9417 29.899H54.0256C54.4223 29.899 54.7434 30.2199 54.7434 30.616C54.7434 31.007 54.4221 31.3278 54.0256 31.3278H17.9417ZM17.9417 36.2556C17.5477 36.2556 17.2246 35.9349 17.2246 35.5382C17.2246 35.1476 17.5477 34.8212 17.9417 34.8212H54.0256C54.4223 34.8212 54.7434 35.1476 54.7434 35.5382C54.7434 35.9351 54.4221 36.2556 54.0256 36.2556H17.9417ZM17.9417 41.1833C17.5477 41.1833 17.2246 40.8626 17.2246 40.4659C17.2246 40.0694 17.5477 39.7489 17.9417 39.7489H54.0256C54.4223 39.7489 54.7434 40.0696 54.7434 40.4659C54.7434 40.8628 54.4221 41.1833 54.0256 41.1833H17.9417ZM17.9417 46.1112C17.5477 46.1112 17.2246 45.7904 17.2246 45.3943C17.2246 44.9973 17.5477 44.6769 17.9417 44.6769H54.0256C54.4223 44.6769 54.7434 44.9975 54.7434 45.3943C54.7434 45.7906 54.4221 46.1112 54.0256 46.1112H17.9417ZM17.9417 51.0388C17.5477 51.0388 17.2246 50.7181 17.2246 50.3218C17.2246 49.9251 17.5477 49.6044 17.9417 49.6044H54.0256C54.4223 49.6044 54.7434 49.9253 54.7434 50.3218C54.7434 50.7183 54.4221 51.0388 54.0256 51.0388H17.9417ZM39.9187 55.9671C39.522 55.9671 39.2017 55.6403 39.2017 55.2497C39.2017 54.8532 39.522 54.5323 39.9187 54.5323H54.0256C54.4223 54.5323 54.7434 54.8534 54.7434 55.2497C54.7434 55.6403 54.4221 55.9671 54.0256 55.9671H39.9187ZM46.5844 70.1674C46.246 70.3715 45.8059 70.2722 45.5989 69.9343C45.3891 69.6017 45.4935 69.1585 45.829 68.9484C45.8433 68.9429 51.2352 65.6069 52.7956 69.1583C52.9004 69.3973 53.0256 69.5902 53.1629 69.7357C53.4599 70.0508 53.8538 70.185 54.2854 70.1906C54.796 70.2023 55.3761 70.0393 55.9504 69.7881C56.8168 69.4091 57.6505 68.8199 58.2567 68.2545C58.5459 67.9805 58.9975 67.9981 59.2689 68.2837C59.5373 68.5696 59.5256 69.0245 59.237 69.2925C58.5223 69.9632 57.5426 70.6512 56.5282 71.1004C55.7845 71.4272 55.0063 71.6313 54.2682 71.6194C53.4575 71.6077 52.7078 71.3396 52.1222 70.7156C51.8741 70.4533 51.6583 70.1207 51.4866 69.7357C50.5853 67.6832 46.5961 70.1616 46.5844 70.1674ZM63.374 6.90972H15.4426H11.0277V75.2764H18.2359V73.1125C17.8659 72.8504 17.5189 72.5586 17.1978 72.2379L17.1575 72.1912L17.1107 72.1442L17.0903 72.1269L17.0724 72.1037L16.9997 72.0278L16.9621 71.9871H16.9592C15.8274 70.7215 15.1335 69.2111 14.9415 67.5722L14.9386 67.5605L14.932 67.5081L14.9291 67.4612L14.9263 67.444L14.9205 67.3796L14.9176 67.362L14.9148 67.3153L14.9119 67.2629L14.909 67.251L14.9061 67.1866L14.9032 67.1636L14.9004 67.1167L14.8975 67.0643V67.0528L14.8946 66.9885V66.965L14.8917 66.9243L14.8889 66.86V66.7957V66.7607V66.7258V66.6614V66.5624V66.5566V66.4573L14.8946 66.3582L14.8975 66.2596V66.2536L14.9032 66.1547L14.9119 66.0557L14.9176 65.9566L14.9291 65.8575L14.9415 65.7582L14.953 65.6592L14.9645 65.5601L14.9789 65.4614L14.9933 65.3679V65.3623L15.0114 65.2688L15.0286 65.1697L15.0459 65.0764L15.0689 64.9775L15.0899 64.8844L15.11 64.7909V64.7851L15.1627 64.5987L15.2443 64.319L15.273 64.2312V64.2254L15.3026 64.1378V64.1321L15.3343 64.0447C15.7281 62.9189 16.3752 61.9101 17.1976 61.0878C17.5072 60.7787 17.8455 60.4928 18.2069 60.2365L18.4427 60.073L18.5212 60.0206C19.796 59.2333 21.0583 58.8307 22.5689 58.784L22.6678 58.7785H22.7731H22.8719L22.9743 58.784H23.076L23.1749 58.79L23.2773 58.7955L23.3762 58.8013H23.379L23.4785 58.8132L23.5745 58.819H23.5774L23.674 58.8305H23.6769L23.7729 58.8426H23.7757L23.8717 58.8543H23.8754L23.9686 58.8716H23.9714L24.0674 58.8835H24.0703L24.1669 58.9008L24.26 58.9184H24.2658L24.3589 58.9415L24.4528 58.9591H24.4586L24.5517 58.9826L24.6457 59.0056H24.6485L24.8319 59.0527H24.8376L25.1147 59.1341H25.1176L25.2056 59.1633H25.2085L25.2985 59.1926L25.3887 59.2276C26.5147 59.6181 27.5261 60.2656 28.3485 61.0878L28.3773 61.1228L28.4537 61.1988L28.4768 61.2219L28.5172 61.2689L28.5411 61.2918L28.5814 61.3388L28.6052 61.3618L28.6426 61.4087L28.6694 61.4319L28.7039 61.479L28.7306 61.5018L28.7682 61.5489C29.9175 62.8897 30.5148 64.4528 30.6402 66.156V66.1617L30.646 66.2549V66.2608L30.6488 66.3595L30.6517 66.4586V66.4647L30.6546 66.5578V66.5636V66.6627V66.727V66.762V66.7913L30.6517 66.8555V66.867V66.9198L30.6488 66.9665V66.9837L30.646 67.0481V67.0658L30.6431 67.1124L30.6402 67.1708V67.1763L30.6345 67.2407V67.2701L30.6287 67.305L30.6229 67.3694L30.6172 67.4275C30.5732 67.9463 30.4536 68.5182 30.3019 69.0078L30.2961 69.0136L30.2788 69.072L30.2731 69.1012L30.2616 69.1301L30.2406 69.1887V69.1943L30.2203 69.2469C29.8235 70.3842 29.1765 71.4103 28.3483 72.2387L28.3166 72.2681L28.3014 72.2796L28.2928 72.2915L28.2525 72.3265L28.2344 72.3438L28.2143 72.3674L28.1738 72.4023L28.1674 72.4079L28.1329 72.443L28.0975 72.4722L28.0918 72.478L28.0486 72.5187L28.0276 72.5364L28.0075 72.5536L27.9635 72.5945H27.9577L27.9232 72.6295L27.8878 72.6589L27.8821 72.6644L27.8387 72.6994L27.8149 72.717L27.7505 72.7756L27.7419 72.7812L27.7074 72.8106L27.672 72.8395L27.6663 72.8455L27.6202 72.8805L27.5964 72.8979L27.5762 72.9094L27.5322 72.9444L27.5236 72.9505L27.4862 72.9795L27.448 73.0087L27.4422 73.0145L27.3982 73.0439L27.3723 73.0615L27.3522 73.0788L27.3053 73.1138V75.2776H63.3746V70.4136L63.374 6.90972Z" fill="white"/>
</svg>
