<svg width="47" height="80" viewBox="0 0 47 80" fill="none" xmlns="http://www.w3.org/2000/svg">
<path fill-rule="evenodd" clip-rule="evenodd" d="M4.01569 58.3814L3.71618 66.8637L6.9555 68.1679L9.97396 60.5883C9.48398 60.7471 8.97303 60.8317 8.45804 60.8393C7.57051 60.8368 6.69799 60.6102 5.92141 60.1805C5.14482 59.7508 4.48932 59.132 4.01569 58.3814ZM38.3958 60.8385C37.8181 60.8315 37.2455 60.7283 36.7017 60.5331L39.7386 68.1679L42.9779 66.8637L42.6884 58.5972C42.2043 59.2872 41.5616 59.851 40.8143 60.241C40.067 60.631 39.2371 60.8359 38.3941 60.8385H38.3958ZM3.45433 76.1307L5.26473 70.815L3.61077 69.9976L3.45433 76.1307ZM44.3081 75.423C44.5093 75.3681 44.6819 75.2385 44.7908 75.0606C44.8996 74.8827 44.9364 74.67 44.8937 74.4659L43.1552 69.8512L41.482 70.5615L43.2213 75.1762C43.3363 75.3488 43.5133 75.4706 43.7155 75.5164C43.9178 75.5621 44.13 75.5292 44.3081 75.423ZM8.45804 52.8263C8.99219 52.8239 9.51506 52.98 9.96039 53.2749C10.4057 53.5699 10.7535 53.9904 10.9596 54.4832C11.1658 54.9759 11.221 55.5188 11.1183 56.043C11.0156 56.5672 10.7597 57.0491 10.3828 57.4277C10.006 57.8063 9.52529 58.0645 9.00158 58.1696C8.47787 58.2748 7.93475 58.2221 7.44101 58.0182C6.94728 57.8144 6.52516 57.4686 6.22814 57.0246C5.93111 56.5807 5.77255 56.0585 5.77255 55.5244C5.77156 55.1709 5.84025 54.8206 5.97471 54.4936C6.10916 54.1666 6.30674 53.8694 6.55614 53.6188C6.80554 53.3682 7.10189 53.1693 7.42823 53.0333C7.75457 52.8973 8.1045 52.827 8.45804 52.8263ZM38.3941 52.8263C38.9284 52.8235 39.4514 52.9794 39.8969 53.2741C40.3425 53.5689 40.6905 53.9893 40.8969 54.482C41.1033 54.9748 41.1588 55.5177 41.0563 56.042C40.9538 56.5663 40.698 57.0484 40.3212 57.4271C39.9444 57.8059 39.4637 58.0642 38.94 58.1695C38.4162 58.2748 37.873 58.2222 37.3792 58.0184C36.8854 57.8146 36.4631 57.4688 36.166 57.0248C35.8689 56.5808 35.7103 56.0586 35.7103 55.5244C35.7093 55.171 35.778 54.8209 35.9123 54.494C36.0467 54.1671 36.2441 53.87 36.4933 53.6194C36.7426 53.3689 37.0387 53.1699 37.3648 53.0338C37.691 52.8977 38.0408 52.8272 38.3941 52.8263ZM23.7536 12.3215C24.518 12.3246 25.2805 12.3974 26.0317 12.539V10.4676H28.6352V0H19.5213V10.4676H22.1248V12.4378C22.6641 12.364 23.2076 12.3252 23.7519 12.3215H23.7536ZM13.6642 25.078C13.6657 27.1564 14.305 29.1844 15.4958 30.888C16.6865 32.5916 18.3713 33.8887 20.3227 34.6043C22.3978 35.3592 24.6639 35.4089 26.7701 34.7458C28.8763 34.0826 30.705 32.7435 31.9732 30.9358C32.9032 29.6415 33.5137 28.1455 33.755 26.5701C33.9962 24.9947 33.8614 23.3846 33.3615 21.8713C32.8615 20.3579 32.0107 18.9843 30.8784 17.8627C29.7462 16.741 28.3646 15.9032 26.8466 15.4175C25.3287 14.9318 23.7173 14.8122 22.1443 15.0682C20.5712 15.3243 19.0811 15.9489 17.7955 16.891C16.51 17.8331 15.4656 19.0659 14.7475 20.4888C14.0295 21.9117 13.6583 23.4842 13.6642 25.078ZM23.7519 20.4967C24.6587 20.4919 25.5465 20.7564 26.3028 21.2567C27.0591 21.757 27.6498 22.4705 28.0002 23.3069C28.3505 24.1433 28.4447 25.0648 28.2707 25.9547C28.0968 26.8447 27.6625 27.663 27.023 28.3058C26.3835 28.9487 25.5676 29.3873 24.6786 29.566C23.7896 29.7447 22.8676 29.6554 22.0293 29.3095C21.1911 28.9636 20.4745 28.3767 19.9702 27.6231C19.4659 26.8694 19.1967 25.9831 19.1967 25.0763C19.1935 23.865 19.6717 22.702 20.526 21.8432C21.3802 20.9844 22.5406 20.5001 23.7519 20.4967ZM0 41.8677V45.793H3.90275V44.4846H9.32643L6.94797 50.4554C7.43653 50.2979 7.94564 50.2134 8.45888 50.2044C9.39226 50.209 10.3077 50.4613 11.1116 50.9357C11.9155 51.41 12.579 52.0893 13.0342 52.9042L16.389 44.4804H22.1248V48.5279C22.1241 48.8415 22.248 49.1425 22.4692 49.3648C22.6904 49.5871 22.9908 49.7125 23.3044 49.7134H23.5495C23.8629 49.7122 24.1631 49.5868 24.3841 49.3645C24.6052 49.1422 24.7289 48.8413 24.7283 48.5279V44.4846H30.3101L33.7309 53.074C34.2603 51.9971 35.1502 51.1397 36.246 50.6506C37.3418 50.1616 38.5743 50.0718 39.7294 50.3969L37.3735 44.4804H42.9511V45.7889H46.8555V41.8677H42.9503V43.1762H36.8506L33.0759 33.7C31.5501 35.3753 29.6038 36.6116 27.4389 37.2806L29.788 43.1762H24.7274V40.4363C24.7281 40.1228 24.6043 39.8219 24.3833 39.5997C24.1623 39.3774 23.8621 39.2519 23.5487 39.2508H23.3035C22.9899 39.2517 22.6895 39.3771 22.4683 39.5994C22.2471 39.8217 22.1233 40.1227 22.1239 40.4363V43.1753H16.9102L19.3581 37.0288C17.2058 36.2269 15.3105 34.8575 13.8734 33.0658L9.8468 43.1762H3.90275V41.8677H0Z" fill="white"/>
<line x1="3.76465" y1="79.5" x2="44.2352" y2="79.5" stroke="white" stroke-dasharray="2 2"/>
</svg>
