<svg width="63" height="80" viewBox="0 0 63 80" fill="none" xmlns="http://www.w3.org/2000/svg">
<path d="M47.8687 0.742569C45.5867 1.36707 35.1553 4.16583 8.89982 11.2059C6.24078 11.9163 4.04464 12.5195 4.02332 12.5301C3.98011 12.5621 7.73723 26.589 7.81242 26.6648C7.86628 26.7186 10.3424 26.0835 10.4389 25.9864C10.4602 25.9651 9.99733 24.1134 9.39471 21.8741C8.79209 19.6347 8.3073 17.7405 8.3073 17.6653C8.3073 17.5901 8.35051 17.5469 8.40437 17.5789C8.58729 17.6973 9.54565 17.3208 9.96535 16.9763C10.7621 16.3198 11.1605 14.802 10.7296 13.9946L10.5786 13.6826L11.0309 13.5642C11.2783 13.489 19.1371 11.39 28.4917 8.8813L45.5003 4.31676L45.5648 4.7258C45.6512 5.36097 46.1893 6.12519 46.7813 6.49102C47.4377 6.90006 48.5465 7.00779 49.1171 6.7278C49.3112 6.63073 49.4829 6.57687 49.5155 6.59875C49.5587 6.65261 52.982 19.3447 52.982 19.4844C52.982 19.5169 52.7884 19.5814 52.5516 19.6134C50.8935 19.8289 49.8606 21.745 50.5496 23.3492C50.6035 23.4783 47.977 24.2212 35.5324 27.5474C27.2433 29.7648 20.4181 31.6058 20.3642 31.6378C20.289 31.6916 20.8484 34.1459 20.9668 34.3075C20.9881 34.3507 29.0618 32.1871 49.3219 26.7074C53.671 25.5235 57.2233 24.5225 57.2233 24.4686C57.1481 24.0489 50.6674 -0.0109901 50.6136 0.000232697C50.5816 -0.000328064 49.3545 0.344189 47.8687 0.742569Z" fill="white"/>
<path d="M36.7807 7.68621C32.518 8.83814 25.1761 10.8082 20.4611 12.0678L11.892 14.3605L11.8275 15.0927C11.7198 16.3737 10.9449 17.612 9.85751 18.2466C9.5994 18.3976 9.41592 18.5805 9.4378 18.645C9.47035 18.7202 9.90071 20.3457 10.4068 22.2731C10.9236 24.1892 11.3433 25.7715 11.354 25.7822C11.3646 25.7929 12.8936 25.3945 14.7559 24.8996C16.6182 24.4041 18.1578 24.0063 18.1685 24.0276C18.1898 24.049 18.6101 25.5454 19.0943 27.3651C19.5892 29.1841 20.0414 30.6699 20.106 30.6699C20.1705 30.6699 26.7802 28.9041 34.7893 26.7406C42.7985 24.5764 49.3543 22.8106 49.3757 22.8106C49.3863 22.8106 49.4295 22.4661 49.4621 22.0571C49.5698 20.7222 50.3447 19.4951 51.4214 18.9245C51.7446 18.7522 51.8843 18.6125 51.8518 18.5047C51.8086 18.3757 49.4941 9.74207 49.0962 8.24562L48.9885 7.84724H48.2989C47.8686 7.84724 47.3838 7.7614 47.0073 7.62112C46.3401 7.37368 45.3818 6.56626 45.0698 5.9743C44.9514 5.75884 44.7898 5.58658 44.6933 5.59724C44.6069 5.5978 41.0434 6.54494 36.7807 7.68621ZM32.8513 12.2934C34.7136 12.9499 36.2852 14.5215 36.9417 16.3838C37.2756 17.3096 37.3614 19.1612 37.114 20.119C36.6298 22.0352 35.3056 23.6932 33.5937 24.5113C32.4743 25.0387 31.8066 25.2003 30.6658 25.2003C29.5246 25.211 28.8249 25.0494 27.7055 24.5113C26.0368 23.7258 24.7451 22.1429 24.2284 20.2806C23.9377 19.1826 23.9703 17.5245 24.3254 16.4915C25.0683 14.3493 26.8335 12.7131 29.0835 12.0992C30.0206 11.8411 31.8397 11.9382 32.8513 12.2934Z" fill="white"/>
<path d="M12.9901 25.9431C10.385 26.6428 8.17816 27.2348 8.09232 27.246C8.00647 27.2673 10.7188 28.8928 14.1208 30.8522C17.5227 32.8222 20.3215 34.3938 20.3428 34.34C20.3753 34.2541 17.9424 25.1144 17.8128 24.8451C17.7376 24.6947 17.1131 24.8344 12.9901 25.9431Z" fill="white"/>
<path d="M50.9368 26.9553C47.5888 27.8592 39.5797 30.0121 33.1209 31.7454C26.6727 33.468 21.1717 34.9425 20.9029 35.0177L20.4187 35.158L14.3364 31.6376C10.9883 29.7002 8.23278 28.128 8.22212 28.1499C8.17892 28.1824 11.3115 39.9587 11.3873 40.0238C11.4086 40.0451 13.6266 39.4857 16.307 38.7642C18.9767 38.0431 29.4507 35.2225 39.5595 32.5096C49.6783 29.7967 57.9781 27.5472 57.9994 27.5147C58.0319 27.4934 57.9242 26.9766 57.7626 26.3734C57.5045 25.4263 57.44 25.286 57.2458 25.2967C57.1157 25.3079 54.2849 26.0508 50.9368 26.9553Z" fill="white"/>
<path d="M43.9929 31.9608C36.3496 34.0167 26.0153 36.8048 21.0097 38.1402C16.0042 39.4857 11.8274 40.6051 11.7196 40.6376C11.5799 40.6808 11.5474 40.756 11.6012 40.9283C11.6338 41.0573 11.6764 41.1757 11.6871 41.1869C11.7196 41.2195 51.5279 30.562 55.4466 29.4746C56.9644 29.0549 58.2454 28.6778 58.2886 28.6352C58.4176 28.5061 58.256 28.1936 58.0518 28.2048C57.9553 28.2037 51.6362 29.8937 43.9929 31.9608Z" fill="white"/>
<path d="M30.333 18.9064L31.4127 18.6065C31.9029 18.4704 32.2454 18.2479 32.4402 17.9391C32.6266 17.6399 32.6627 17.2847 32.5485 16.8734C32.4342 16.462 32.2201 16.1763 31.9061 16.0162C31.5799 15.852 31.1718 15.838 30.6816 15.9741L29.6019 16.274L30.333 18.9064ZM31.077 21.5851L31.3797 22.6751L30.2281 22.995L29.9253 21.905L28.933 22.1806L28.7046 21.358L29.6969 21.0824L29.4527 20.2032L28.4604 20.4788L28.1919 19.5122L29.1842 19.2366L28.1675 15.5759L30.7228 14.8662C31.4289 14.67 32.0605 14.7309 32.6177 15.0487C33.1661 15.3616 33.5345 15.8574 33.723 16.5361C33.9106 17.2113 33.8462 17.8236 33.5299 18.373C33.2061 18.9355 32.6878 19.3157 31.9748 19.5137L30.6072 19.8936L30.8485 20.7625L32.936 20.1827L33.1644 21.0054L31.077 21.5851Z" fill="white"/>
<path d="M38.6004 78.0978C38.3977 78.7245 37.2833 79.2468 37.2833 79.2468C35.4596 79.8735 33.2307 78.8289 32.3188 77.6799L32.5215 77.3666C33.2307 76.4265 33.4333 75.2775 33.1294 74.2329L38.6004 78.0978Z" fill="white"/>
<path d="M51.4678 70.9948C51.1639 71.517 50.556 72.1438 49.2389 72.4571C49.2389 72.4571 48.631 72.6661 47.5165 72.3527L40.3232 67.3388C40.1206 67.2344 39.9179 67.2344 39.8166 67.4433C39.7153 67.5477 39.7153 67.8611 39.9179 67.9656L47.2126 73.0839C47.4152 73.6062 47.4152 74.4418 46.706 74.8596C46.706 74.8596 45.3889 76.2175 42.4508 75.173L35.1561 70.0547C35.0548 69.9502 34.7509 69.9502 34.6496 70.1591C34.5482 70.368 34.5482 70.5769 34.7509 70.6814L42.0455 75.7997C42.856 77.1576 41.9442 79.3512 39.0061 77.6799C39.0061 77.6799 34.4469 74.4418 32.6233 73.1883C32.4206 72.875 32.1167 72.5616 31.8127 72.2482C31.0022 71.6215 30.0904 71.4126 29.1786 71.517C28.7733 71.6215 28.2667 71.726 27.9628 71.9349C27.7602 71.2037 27.2536 70.4725 26.6457 69.9502C25.126 68.6967 22.8971 69.0101 21.6813 70.5769C21.4787 70.1591 21.0734 69.7413 20.6681 69.4279C19.7563 68.6967 18.5405 68.4878 17.5274 68.8012C17.3247 68.1745 16.9195 67.5477 16.3116 67.1299C14.8932 66.0854 13.0695 66.1898 11.7524 67.2344L15.1971 55.4309C16.3116 57.1022 18.2366 57.3111 18.7432 57.4156C20.6681 57.6245 22.0865 57.2067 23.4036 56.7888C24.0115 56.5799 24.6194 56.371 25.2273 56.2666C26.9496 55.9532 29.6851 55.8487 31.0022 56.4755C33.3325 57.52 36.3719 58.8779 38.6008 60.7581C39.5127 61.4893 40.3232 62.4294 41.235 63.3695C42.0455 64.3096 42.9574 65.2497 43.9705 66.0854C48.4284 69.9502 50.0494 71.0992 51.0625 71.0992C51.2652 71.0992 51.3665 70.9948 51.4678 70.9948Z" fill="white"/>
<path d="M52.8862 68.2792C52.3797 68.4881 51.7718 68.8014 51.1639 69.2193C50.7586 69.5326 45.7942 65.25 45.1863 64.7277C43.2614 63.0564 41.7416 60.9673 39.8167 59.4005C37.4864 57.4158 34.5483 55.9534 31.7115 54.8044C29.9891 54.0732 26.8484 54.1777 25.0247 54.5955C22.7958 55.0133 21.3774 56.0579 19.0471 55.7445C18.2366 55.6401 17.3248 55.4311 16.7169 54.7C15.5011 53.2376 16.0077 52.193 17.5274 51.6708C19.7563 50.9396 21.7826 50.2084 23.9102 49.0594C24.5181 48.746 25.5313 48.8505 26.1392 48.8505C27.5576 48.8505 28.8747 48.9549 30.1918 49.0594C31.8128 49.1638 33.5351 49.0594 35.1562 49.5816C36.372 49.9995 37.4864 50.6262 38.7022 51.1485C40.2219 51.7752 41.8429 52.193 43.464 52.5064C43.7679 52.5064 45.6929 52.6108 47.1113 52.6108L52.8862 68.2792Z" fill="white"/>
<path d="M12.5629 72.0397C11.7524 71.4129 11.5498 70.055 12.1577 69.2194L12.3603 68.906C12.9682 68.0704 14.2853 67.8615 15.0958 68.4882C15.9063 69.1149 16.1089 70.4728 15.501 71.3085L15.2984 71.6219C14.6905 72.562 13.3734 72.6664 12.5629 72.0397Z" fill="white"/>
<path d="M16.5146 74.9643C15.7041 74.3375 15.5014 72.9796 16.1093 72.144L16.8185 71.2039C17.4264 70.3682 18.7435 70.1593 19.554 70.786C20.3645 71.4128 20.5672 72.7707 19.9593 73.6063L19.2501 74.5464C18.6422 75.4865 17.4264 75.6954 16.5146 74.9643Z" fill="white"/>
<path d="M20.5678 78.0979C19.7573 77.4711 19.5546 76.1132 20.1625 75.2776L22.7967 71.7261C23.4046 70.8904 24.7217 70.6815 25.5322 71.3083C26.3427 71.935 26.5454 73.2929 25.9375 74.1286L23.3033 77.68C22.6954 78.6201 21.3783 78.7246 20.5678 78.0979Z" fill="white"/>
<path d="M26.4423 79.5605C25.6318 78.9338 25.4292 77.5759 26.037 76.7402L28.0633 73.9199C28.6712 73.0843 29.9883 72.8754 30.7988 73.5021C31.6094 74.1288 31.812 75.4868 31.2041 76.3224L29.1778 79.1427C28.4686 80.0828 27.2528 80.2917 26.4423 79.5605Z" fill="white"/>
<path d="M62.7143 44.2544L49.6441 49.3727C48.8336 49.6861 48.4283 50.5217 48.7323 51.3574L54.5072 67.2346C54.8111 68.0702 55.6217 68.4881 56.4322 68.1747L62.7137 65.7722L62.7143 44.2544ZM57.4459 65.0404C56.4328 65.0404 55.6222 64.2048 55.6222 63.1602C55.6222 62.1157 56.4328 61.28 57.4459 61.28C58.4591 61.28 59.2696 62.1157 59.2696 63.1602C59.1683 64.2048 58.3577 65.0404 57.4459 65.0404Z" fill="white"/>
<path d="M14.1841 51.9841L9.32095 68.1741C9.11832 69.0097 8.20649 69.4276 7.49729 69.2186L0 66.7117V45.7156L13.2716 49.9982C13.9808 50.3116 14.4874 51.1473 14.1835 51.9829L14.1841 51.9841Z" fill="white"/>
</svg>
