<svg width="93" height="80" viewBox="0 0 93 80" fill="none" xmlns="http://www.w3.org/2000/svg">
<rect x="3.87598" y="36" width="55.0402" height="17.0547" fill="white"/>
<path d="M67.4491 66.6896L68.125 66.2918V64.9282H66.9658V65.5564C66.9658 65.6035 66.9535 65.6491 66.9296 65.6897L66.334 66.6896L67.4491 66.6896Z" fill="white"/>
<path d="M66.4456 64.4102V62.2996L66.2515 62.2126C66.2522 62.2228 66.2631 62.23 66.2631 62.2409V64.4109L66.4456 64.4102Z" fill="white"/>
<path d="M65.817 69.4925C65.8178 69.4903 65.8163 69.4874 65.817 69.4852L66.2554 68.5086C66.2583 68.502 66.2655 68.502 66.2677 68.4962C66.2699 68.4912 66.267 68.4861 66.2699 68.4803L66.8205 67.5659C66.8213 67.5652 66.8227 67.5652 66.8227 67.5638C66.8234 67.563 66.8227 67.5616 66.8234 67.5609L67.048 67.208H66.0257L65.6308 67.8717L65.2765 68.681C65.2758 68.6832 65.2736 68.6839 65.2722 68.6854C65.2715 68.6861 65.2722 68.6883 65.2722 68.6904L64.8838 69.4911L64.4672 70.4351L64.3027 70.9604H65.2439L65.2801 70.851C65.2809 70.8481 65.2845 70.8481 65.2852 70.8445C65.2859 70.8416 65.2845 70.8394 65.2852 70.8365L65.812 69.4954C65.8141 69.4939 65.8163 69.4939 65.817 69.4925Z" fill="white"/>
<path d="M67.2339 70.9318L67.907 69.7167L68.099 69.4979L66.3985 69.4595L66.292 69.6993H66.2905L65.7949 70.9615H67.2244L67.2339 70.9318Z" fill="white"/>
<path d="M66.9648 61.8228L67.4054 61.8423L68.1241 61.7923V47.2935H67.7416V47.5347C67.7416 47.6782 67.6249 47.7941 67.4822 47.7941H66.9648V61.8228Z" fill="white"/>
<path d="M68.7088 68.8005L66.6939 68.8013L66.6294 68.9447L68.5451 68.9875L68.7088 68.8005Z" fill="white"/>
<path d="M79.2647 69.2287L78.8662 68.7512H77.5635L77.9692 69.1997L79.2647 69.2287Z" fill="white"/>
<path d="M67.262 67.8415L66.9961 68.2827L69.3024 68.2805V66.3816L68.6438 66.3555V66.4417C68.6438 66.454 68.6322 66.4613 68.6315 66.4728C68.6271 66.5069 68.6119 66.5323 68.5938 66.5634C68.5771 66.5924 68.5634 66.6178 68.538 66.638C68.5286 66.6453 68.5279 66.6598 68.517 66.6663L67.7055 67.143L67.262 67.8415Z" fill="white"/>
<path d="M79.0978 70.8815C79.1021 70.8909 79.1137 70.8938 79.1166 70.9047L79.1355 70.9627H80.7092L79.7071 69.7585L78.4355 69.7295L79.0942 70.8511C79.0985 70.8612 79.0934 70.8721 79.0978 70.8815Z" fill="white"/>
<path d="M69.3022 64.9292H68.6436V65.8356L69.3022 65.861V64.9292Z" fill="white"/>
<path d="M69.8218 66.4021V67.9599L69.8486 67.9403L71.0818 67.4462C71.1028 67.4382 71.1231 67.4324 71.1448 67.4295L72.3475 67.2788L72.3707 67.281C72.3751 67.281 72.3772 67.2766 72.3809 67.2766H73.9597C73.9647 67.2766 73.9669 67.2817 73.972 67.2817C73.977 67.2817 73.9799 67.2773 73.9857 67.2773L75.2008 67.4027C75.2153 67.4049 75.224 67.4186 75.237 67.4222C75.2508 67.4251 75.2638 67.4172 75.2776 67.423L76.4043 67.9113C76.4137 67.9157 76.4159 67.9273 76.4238 67.9309C76.4318 67.936 76.4427 67.9309 76.4506 67.9374L76.8644 68.2294L78.4352 68.2287L77.1527 66.6883L69.8218 66.4021Z" fill="white"/>
<path d="M63.641 48.6589C63.6106 48.6705 63.5816 48.6836 63.5498 48.6836C63.5266 48.6836 63.5027 48.6807 63.4802 48.6742C63.4773 48.6734 63.4751 48.6698 63.4722 48.6691V62.3522C63.4722 62.4957 63.3556 62.6116 63.2128 62.6116H63.0962V64.0346H63.6418L63.641 48.6589Z" fill="white"/>
<path d="M63.3855 46.2865L63.6282 40.9053H63.0942V46.3893C63.1102 46.3813 63.1203 46.3646 63.1377 46.3589L63.3855 46.2865Z" fill="white"/>
<path d="M66.6685 42.2615L66.8047 41.9217L66.9213 41.421L66.9126 41.2341L66.6395 40.7907L66.4598 40.6639L66.212 40.5747L66.0135 40.5552L64.1499 40.8667L63.8594 47.318L66.4786 42.5368L66.6685 42.2615Z" fill="white"/>
<path d="M66.4458 61.7298V46.8672H64.9858V60.0475L65.0358 60.288L65.3771 60.98L65.9241 61.4944L66.4458 61.7298Z" fill="white"/>
<path d="M65.6725 61.9505C65.6464 61.9389 65.6218 61.9237 65.6022 61.9034L64.9885 61.3267C64.9653 61.3049 64.9472 61.2796 64.9327 61.2521L64.5567 60.4884C64.5465 60.4666 64.5393 60.4449 64.535 60.4232L64.4726 60.0971L64.4683 47.29L64.1611 47.8523V64.2958C64.1611 64.3407 64.1328 64.3748 64.1133 64.411H64.769V62.241C64.769 62.0975 64.8857 61.9816 65.0284 61.9816H65.7406L65.6725 61.9505Z" fill="white"/>
<path d="M65.9634 46.3477H66.7061C66.8495 46.3477 66.9654 46.4643 66.9654 46.607V47.2736H67.2234V46.3027H65.9634L65.9634 46.3477Z" fill="white"/>
<path d="M65.2866 62.4998H65.7438V63.233H65.2866V62.4998Z" fill="white"/>
<path d="M65.2866 63.7517H65.7438V64.5589H65.2866V63.7517Z" fill="white"/>
<path d="M89.3623 65.5435H91.1852V67.5172H89.3623V65.5435Z" fill="white"/>
<path d="M88.9247 68.5777C88.9247 68.6495 88.8957 68.7139 88.8486 68.7603V69.3226C88.8725 69.3153 88.8892 69.2943 88.9153 69.2943H91.5983L91.5259 68.4734H88.9241V68.5777L88.9247 68.5777Z" fill="white"/>
<path d="M88.9243 65.0982L88.9362 65.0933H88.9243V65.0982Z" fill="white"/>
<path d="M88.9244 60.2854L91.056 59.7586L91.0277 58.5566L88.9243 58.5298L88.9244 60.2854Z" fill="white"/>
<path d="M88.9243 60.8212V64.5742H91.1813L90.8096 60.3552L88.9243 60.8212Z" fill="white"/>
<path d="M89.121 58.0108L91.0157 58.0354L90.9932 57.0486H88.8936L89.121 58.0108Z" fill="white"/>
<path d="M86.8932 71.9889L87.212 71.481H81.646L81.8402 71.9889H86.8932Z" fill="white"/>
<path d="M91.7048 67.7764C91.7048 67.8366 91.6758 67.8873 91.6403 67.9322L91.712 67.9315V65.1746L91.657 65.0928H91.6113C91.6664 65.1406 91.7048 65.2051 91.7048 65.284V67.7764Z" fill="white"/>
<path d="M68.9443 47.034V59.0239H72.2504L72.233 45.9821C72.233 45.9133 72.2598 45.8474 72.3091 45.7981C72.3576 45.7496 72.4235 45.722 72.4931 45.722H83.4287L84.1815 45.7597C84.2155 45.7604 84.2488 45.7699 84.2815 45.7843L84.9075 46.0858C84.9386 46.1002 84.9669 46.122 84.9893 46.1481L85.4654 46.6871C85.4893 46.7139 85.5081 46.7473 85.5197 46.7828L85.7646 47.6384L87.1202 52.1987L85.6204 46.2212L85.5994 45.9074L85.6117 45.6676L85.6806 45.3698C85.69 45.3365 85.7037 45.3053 85.724 45.2785L85.8631 45.0909C85.8827 45.0641 85.9081 45.0423 85.9349 45.0242L86.3341 44.7924C86.3602 44.7764 86.3913 44.7677 86.421 44.7619L86.6058 44.7337L86.2037 44.5105L85.6791 44.241L84.977 43.999L84.2974 43.8048L83.3968 43.6469L82.6324 43.5606L81.739 43.5244H81.7383C81.7376 43.5244 81.7376 43.5237 81.7376 43.5237H81.7274L68.8827 43.5599L68.6436 45.9966V46.7733H68.6841C68.8283 46.7748 68.9443 46.8906 68.9443 47.034Z" fill="white"/>
<path d="M88.0215 68.8376H88.3287V70.962H88.0215V68.8376Z" fill="white"/>
<path d="M86.2515 45.4351L86.1711 45.5423L86.1232 45.743L86.1182 45.9082L86.1298 46.1437L88.741 56.53H90.9162L86.9681 45.2714L86.9537 45.2388L86.545 45.2649L86.2515 45.4351Z" fill="white"/>
<path d="M72.0829 63.492V62.9385H69.342L69.3354 63.45L72.0829 63.492Z" fill="white"/>
<path d="M69.8215 64.6699V65.882L77.2879 66.1762C77.2901 66.1762 77.2908 66.1784 77.293 66.1784C77.3292 66.1806 77.3582 66.2066 77.3915 66.224C77.4184 66.2385 77.4495 66.2429 77.4705 66.2653C77.4727 66.2675 77.4756 66.2661 77.4778 66.2697L79.1732 68.3057C79.1761 68.3086 79.1783 68.3122 79.1804 68.3151L81.386 70.9626H87.5027V68.8375H80.0472C79.9371 68.8375 79.8393 68.7679 79.803 68.6643L79.5654 67.9883L79.0785 67.008L78.3598 66.1835L77.4258 65.5632L76.3912 65.2031L74.6421 65.0039L72.52 65.0061C72.3765 65.0061 72.2606 64.8894 72.2606 64.7467V64.0163L69.072 63.9678C68.9285 63.9656 68.814 63.8483 68.8162 63.7048L68.8285 62.6774C68.8307 62.5354 68.9459 62.4209 69.0879 62.4209H72.2613V62.1506H68.8957C68.8878 62.1644 68.8856 62.1796 68.8747 62.1912C68.8515 62.2158 68.8175 62.2202 68.7856 62.2347C68.7573 62.247 68.7378 62.2724 68.7044 62.2738L68.6465 62.2782V64.412H69.5645C69.705 64.4105 69.8217 64.5264 69.8217 64.6699L69.8215 64.6699Z" fill="white"/>
<path d="M73.2569 59.543H68.9429V61.6297H73.2364L73.2569 59.543Z" fill="white"/>
<path d="M88.4054 58.3448L85.0392 46.9882L84.6342 46.531L84.1031 46.2753L83.4155 46.2412H72.7524L72.7698 59.0236H73.5197C73.5886 59.0236 73.656 59.0519 73.7045 59.1004C73.753 59.149 73.7806 59.2156 73.7791 59.2852L73.7545 61.8899C73.7538 62.0334 73.6371 62.1479 73.4951 62.1479H72.7785V64.4838H74.6733L76.5063 64.6991L77.654 65.1012L78.6727 65.7692C78.6937 65.7815 78.7104 65.796 78.7256 65.8149L79.49 66.6916C79.5045 66.7082 79.5168 66.7271 79.5277 66.7474L80.0407 67.7871L80.2298 68.3189H88.404L88.4048 58.3449L88.4054 58.3448ZM73.9761 54.8765L73.8043 54.7381L73.7638 54.6736L73.742 47.3963L73.7725 47.3485L81.8148 47.3108V55.4178L80.1636 55.3047H80.1629L74.2259 54.9048L73.9761 54.8765ZM84.2103 47.4579L84.29 47.5535L85.4681 52.4666L86.0123 54.7497V54.9844L85.8782 55.317L85.5956 55.5924L85.4094 55.6423H85.0747L82.3346 55.4532V47.3079L83.7576 47.3014L84.0814 47.3804L84.2103 47.4579Z" fill="white"/>
<path d="M68.1241 62.3123L67.4119 62.3608L66.9648 62.3427V64.4105H68.1241V62.3123Z" fill="white"/>
<path d="M54.2635 70.9612H57.8659V69.8671C57.8659 69.7236 57.9826 69.6077 58.1253 69.6077H60.5177C60.6612 69.6077 60.7771 69.7244 60.7771 69.8671V70.9612H63.76L63.9774 70.2663C63.9796 70.2612 63.9854 70.2598 63.9868 70.2547C63.989 70.2497 63.9846 70.2446 63.9868 70.2388L64.4128 69.2737C64.4136 69.2715 64.4157 69.2715 64.4172 69.2708C64.4179 69.2686 64.4165 69.2664 64.4172 69.2657L64.6418 68.8027L42.0332 68.8151C42.0491 68.8484 42.0745 68.8766 42.0745 68.9158V70.6235H54.002C54.1455 70.6235 54.2614 70.7402 54.2614 70.8829L54.2621 70.9611L54.2635 70.9612Z" fill="white"/>
<path d="M54.2632 71.4807V73.0037H58.6293L57.9562 71.4807H54.2632Z" fill="white"/>
<path d="M60.6924 71.4807L60.0649 73.0037H63.182L63.4856 71.8444L63.4899 71.8386V71.8328L63.5986 71.4807H60.6924Z" fill="white"/>
<path d="M58.3848 70.1284V71.1674L59.0571 72.6904C59.0745 72.6933 59.0854 72.7078 59.1006 72.7143C59.1129 72.7187 59.1253 72.7114 59.1368 72.7172C59.1492 72.7245 59.1513 72.7404 59.1629 72.7484C59.1948 72.7723 59.2158 72.7991 59.2332 72.8346C59.2354 72.8389 59.2397 72.8411 59.2412 72.8447C59.2463 72.8302 59.2644 72.823 59.2723 72.8085C59.2897 72.7795 59.3064 72.7578 59.3347 72.7368C59.3484 72.7266 59.3506 72.7085 59.3658 72.7006C59.3846 72.6911 59.4035 72.7013 59.4216 72.6977C59.4404 72.6926 59.4528 72.6759 59.4723 72.6745L59.6375 72.6701L60.2555 71.1703V70.1284L58.3848 70.1284Z" fill="white"/>
<path d="M59.6183 74.3207C59.5937 74.2961 59.5915 74.2577 59.5777 74.2243C59.5661 74.1953 59.5422 74.1736 59.5422 74.1403C59.5422 74.1396 59.5429 74.1381 59.5429 74.1374C59.5429 74.1367 59.5422 74.1352 59.5422 74.1345L59.5538 73.6722L59.4814 73.5244H59.0039L58.9351 73.6541V74.37H59.7277C59.7205 74.3678 59.7139 74.3634 59.7081 74.3605C59.677 74.3468 59.6408 74.3446 59.6183 74.3207Z" fill="white"/>
<path d="M33.7339 71.1431H37.0103V71.6502H33.7339V71.1431Z" fill="white"/>
<path d="M42.0752 71.6495H45.298C45.3531 71.6495 45.4074 71.6669 45.4516 71.7002L46.6283 72.5646C46.6949 72.6132 46.7355 72.69 46.7355 72.7733V75.0564H53.7432V71.2199L53.744 71.1431H42.0752L42.0752 71.6495Z" fill="white"/>
<path d="M33.2145 70.8833C33.2145 70.7398 33.3311 70.6239 33.4739 70.6239H37.0096V68.9154C37.0096 68.877 37.0356 68.8502 37.0501 68.8176L26.0522 68.8241L26.2964 69.2524L26.7449 70.7348L26.7681 70.9377L33.2129 70.9406V70.8833L33.2145 70.8833Z" fill="white"/>
<path d="M33.7486 72.1687L32.6943 72.9541V75.0488L33.7377 75.7088H45.221L46.2172 75.0524V72.9049L45.2137 72.1687L33.7486 72.1687Z" fill="white"/>
<path d="M87.2568 72.3861C87.209 72.4622 87.1257 72.5079 87.0366 72.5079H81.6625C81.5546 72.5079 81.4589 72.4412 81.4205 72.3405L81.0923 71.4812H79.3013L79.5295 72.1949C79.5324 72.205 79.5252 72.2137 79.5273 72.2238C79.5295 72.2333 79.5396 72.2398 79.5411 72.2485L79.6114 73.0035H90.0216V71.4805H87.827L87.2568 72.3861Z" fill="white"/>
<path d="M78.6305 71.0911L77.9813 69.9847L77.1539 69.0725L76.1728 68.3798L75.107 67.919L74.7549 67.8821L74.8281 67.9132L75.9214 68.6639L76.8314 69.6565L77.4929 70.8593L77.9132 72.196L78.0863 73.5951L77.9233 75.0341L77.5255 76.3571L76.906 77.5425L75.9931 78.5829L74.9099 79.3625L74.8911 79.3698L75.1179 79.3364L76.2272 78.9198L77.1879 78.2185L77.9922 77.27L78.6283 76.1774L79.0254 74.95L79.1471 73.6263L79.0254 72.3257L78.6305 71.0911Z" fill="white"/>
<path d="M37.5288 69.1753H41.5558V71.5128H37.5288V69.1753Z" fill="white"/>
<path d="M91.8698 69.9099C91.7995 69.9033 91.7423 69.8686 91.6995 69.8157H89.1753V70.9626H90.2802C90.4237 70.9626 90.5396 71.0793 90.5396 71.222V72.8914H91.2417L92.2503 71.7734V70.149L91.8698 69.9099Z" fill="white"/>
<path d="M65.0752 71.4807H64.1427L63.9891 71.9756V71.9763L63.5507 73.6551V73.6558L63.1392 75.3672L64.0637 75.3911L64.26 74.3905L64.2644 74.384L64.2629 74.376L64.5636 73.1863L64.5651 73.1834V73.1783L64.9042 72.0017L64.9071 71.9973V71.993L65.0752 71.4807Z" fill="white"/>
<path d="M76.4822 77.2495L77.0459 76.1613L77.4154 74.9281L77.569 73.5957L77.406 72.3045L77.0154 71.0605L76.409 69.9556L75.5801 69.0542L74.5737 68.3673L73.5391 67.9196L72.3508 67.7979L71.2394 67.9435L70.0924 68.3956L69.7881 68.6166C69.7541 68.7195 69.6736 68.8028 69.5599 68.8028H69.5331L69.1353 69.0919L68.8411 69.4281C68.8368 69.4332 68.8339 69.4375 68.8288 69.4418L68.326 70.0186L67.7058 71.138L67.3391 72.3524L67.1855 73.6725L67.2979 74.5869V74.5876L67.3486 75.0013L67.7275 76.2475L68.3796 77.3561L69.1889 78.2683L70.1431 78.9457L71.2981 79.3595L72.4001 79.5058L73.6043 79.3356L74.6607 78.9132L75.6453 78.2024L76.4822 77.2495ZM74.8346 73.8674L74.6621 74.7296L74.2709 75.5005L73.6673 76.1041L72.9464 76.4533L72.1733 76.5323L71.4118 76.341L70.7669 75.8882L70.2286 75.223L69.9323 74.4036L69.8707 73.7167L69.9859 72.8248L70.3771 72.0437L70.9249 71.4264L71.6342 71.0439L72.387 70.9316L73.1753 71.0663L73.86 71.4815L74.394 72.1169L74.7143 72.9306L74.8346 73.8674Z" fill="white"/>
<path d="M65.4018 72.1446L65.1548 73.0025H66.7459L66.8364 72.2424L67.0676 71.4795H65.6207L65.4018 72.1446Z" fill="white"/>
<path d="M3.98062 69.5648C3.99945 69.6003 4.00742 69.6394 4.00742 69.68V70.8827C4.00742 70.8994 3.99293 70.9095 3.99004 70.9255L11.6731 70.9298L11.9506 69.7821L12.3868 68.8315L3.61475 68.8359L3.98062 69.5648Z" fill="white"/>
<path d="M0 70.9243H0.550664C0.547766 70.9084 0.534 70.8997 0.534 70.8838V69.631C0.534 69.5897 0.544144 69.5491 0.562982 69.5115L0.91221 68.8376H1.41513e-06L0 70.9243Z" fill="white"/>
<path d="M1.91935 64.4492H4.06392V64.1782H1.40186V65.0977L1.6924 64.5818C1.73949 64.4999 1.82588 64.4492 1.91935 64.4492Z" fill="white"/>
<path d="M3.48873 70.6238V69.7421L3.2134 69.1899L1.30199 69.2117L1.05273 69.6942V70.6238H3.48873Z" fill="white"/>
<path d="M4.40345 65.254H4.32448C4.18102 65.254 4.0651 65.1373 4.0651 64.9946V64.9678H2.07115L1.60889 65.7872H4.40208V65.254L4.40345 65.254Z" fill="white"/>
<path d="M59.5737 65.8011H62.5749V65.2222C62.548 65.2316 62.527 65.254 62.4966 65.254H59.5745L59.5752 65.8011H59.5737Z" fill="white"/>
<path d="M59.3161 63.659H61.9251V62.3526C61.9251 62.2092 62.0417 62.0933 62.1845 62.0933H62.5757V55.01L0.000976562 55.0093V63.6589L59.3161 63.659Z" fill="white"/>
<path d="M59.0559 64.1782H4.92432V64.7361H17.9922L17.9958 64.7383L18.9363 64.6129L20.4651 64.7129L20.5506 64.7361H59.057L59.0559 64.1782Z" fill="white"/>
<path d="M62.5747 62.6108H62.4429V63.6578H62.5747V62.6108Z" fill="white"/>
<path d="M59.5737 64.1782H62.2358V64.7361H59.5737V64.1782Z" fill="white"/>
<path d="M12.9742 68.8303H12.9532L12.8931 68.9622L12.9742 68.8303Z" fill="white"/>
<path d="M25.4595 68.8247L25.479 68.8559L25.4609 68.8247H25.4595Z" fill="white"/>
<path d="M18.9506 65.1299L17.5363 65.3168L16.1872 65.8052L14.9402 66.5362L13.8933 67.4825L13.2847 68.3128H13.3716L14.236 67.4202L15.5025 66.5486L16.9262 65.9472L18.4137 65.6313L19.9461 65.6262L21.4633 65.9327L22.8661 66.5239L24.1492 67.3868L25.0738 68.3063H25.1636L25.1064 68.2056L24.1818 67.118L23.0443 66.2536L21.78 65.6023L20.3773 65.2226L18.9506 65.1299Z" fill="white"/>
<path d="M65.1638 67.6467C65.166 67.6416 65.1732 67.6402 65.1754 67.6351C65.1783 67.63 65.1746 67.6235 65.1775 67.6184L66.4448 65.4869V64.929H66.2165C66.1731 65.013 66.1021 65.0797 66.0028 65.0797H65.0261C64.9254 65.0797 64.8544 65.013 64.8124 64.929H63.0945V66.06C63.0945 66.2034 62.9778 66.3194 62.8351 66.3194H59.3152C59.1717 66.3194 59.0558 66.2027 59.0558 66.06V65.255L22.228 65.2557L23.3206 65.818L24.5357 66.7454L25.5291 67.9105L25.7544 68.3053L64.884 68.2836L65.1638 67.6467Z" fill="white"/>
<path d="M14.6363 66.1166L15.9688 65.3341L16.1912 65.2544H4.92381V66.047C4.92381 66.1905 4.80716 66.3064 4.66443 66.3064L1.31849 66.3071L0.18457 68.3178L12.6461 68.3113L13.5112 67.1331L14.6363 66.1166Z" fill="white"/>
<path d="M24.786 70.6664L23.9977 69.4572L22.9862 68.4805L21.7697 67.7552L20.4083 67.3046L18.9853 67.1799L17.5789 67.369L16.2588 67.848L15.0495 68.6478L14.0765 69.6564L13.3367 70.849L12.8737 72.209L12.723 73.5624C12.7223 73.5748 12.7209 73.5871 12.7223 73.6008L12.7382 73.9573L12.9665 75.3651L13.494 76.67L14.3199 77.8518L15.3597 78.8154L16.6146 79.5146L17.9514 79.9138L19.3816 80L20.7807 79.7964L22.1102 79.2675L23.2695 78.4669L24.2281 77.4206L24.9657 76.1672L25.404 74.8275L25.5026 73.4197L25.2997 72.0104L24.786 70.6664ZM21.3705 76.2925L20.5459 76.7925L19.6048 77.0352L18.6252 76.9997L17.7101 76.7099L16.9196 76.1404L16.3038 75.384L15.9437 74.4529L15.8618 73.6284L15.9915 72.6539L16.3863 71.7482L17.0355 71.0179L17.8637 70.4926L18.7947 70.2122L19.7555 70.2245L20.6988 70.5281L21.5132 71.0744L22.1175 71.8178L22.5145 72.7278L22.6312 73.7045L22.4682 74.6703L22.0255 75.5788L21.3705 76.2925Z" fill="white"/>
<path d="M91.9838 14.3162L91.9714 14.0309L89.2401 13.1684C89.1722 12.714 89.0781 12.2591 88.9604 11.814L91.0773 9.82559L91.0537 9.76297C90.6825 8.76818 90.2039 7.81051 89.6335 6.91659L89.479 6.67661L86.6825 7.29493C86.4057 6.94659 86.1162 6.61849 85.821 6.31889L86.774 3.61762L86.5535 3.43689C85.7325 2.75744 84.8404 2.16687 83.9013 1.68054L83.6478 1.55005L81.5353 3.48413C81.128 3.32402 80.7136 3.18491 80.2981 3.07054L79.7723 0.255658L79.4911 0.206912C78.4575 0.0321769 77.3786 -0.0330676 76.3165 0.0156782L76.0319 0.028802L75.1693 2.76007C74.7369 2.82419 74.3079 2.91118 73.8912 3.01842L72.0308 0.846233L71.7634 0.945974C70.7688 1.31719 69.8106 1.79528 68.9166 2.36673L68.6766 2.52046L69.2954 5.31735C68.9462 5.5952 68.6181 5.88505 68.3188 6.17903L65.619 5.22736L65.4368 5.44634C64.7576 6.26677 64.1669 7.15919 63.6802 8.09849L63.5497 8.35159L65.484 10.4642C65.3235 10.871 65.1847 11.2865 65.07 11.7012L62.2555 12.2265L62.2067 12.5077C62.0308 13.5498 61.9667 14.6173 62.0162 15.6815L62.0289 15.9679L64.7602 16.8304C64.8244 17.2623 64.9114 17.692 65.019 18.1083L62.8476 19.9677L62.9462 20.2358C63.3175 21.2299 63.7957 22.1875 64.3668 23.0815L64.521 23.3229L67.3186 22.7042C67.5958 23.0533 67.8853 23.3807 68.1797 23.6803L67.2271 26.3804L67.4461 26.5627C68.2697 27.2429 69.1622 27.8342 70.0987 28.3183L70.3522 28.4495L72.4662 26.515C72.8727 26.6759 73.2878 26.8143 73.7019 26.9286L74.2276 29.7458L74.5089 29.7926C75.3216 29.9299 76.1564 30 76.99 30C77.2214 30 77.4547 29.9944 77.6838 29.9839L77.9692 29.9711L78.8329 27.2402C79.2661 27.1757 79.6951 27.0891 80.1102 26.9815L81.9711 29.1548L82.2381 29.0536C83.2341 28.6816 84.1923 28.2032 85.0853 27.6336L85.3256 27.4791L84.7072 24.683C85.0556 24.4055 85.3838 24.116 85.6834 23.8216L88.3847 24.7737L88.5658 24.554C89.2469 23.7302 89.8379 22.8374 90.3221 21.9022L90.4529 21.6487L88.5186 19.5365C88.6795 19.1282 88.8186 18.7135 88.9326 18.2991L91.7486 17.7738L91.7963 17.4926C91.9692 16.4483 92.0333 15.3807 91.9838 14.3162ZM84.0213 13.5595C83.2773 14.3031 82.2883 14.7126 81.236 14.7126C80.6728 14.7122 80.1076 14.5899 79.5972 14.3578L71.1881 22.7654C70.9271 23.0267 70.5794 23.1703 70.2104 23.1703C69.8414 23.1703 69.4941 23.0267 69.2331 22.7654C68.9717 22.5051 68.8273 22.1572 68.8273 21.7882C68.8273 21.4189 68.9713 21.0713 69.2324 20.8103L77.6411 12.402C76.9615 10.9093 77.2781 9.1409 78.4395 7.97962C79.1832 7.23644 80.1721 6.82735 81.2248 6.82735C81.7866 6.82735 82.3521 6.94959 82.8614 7.18094L82.9941 7.24094L80.18 10.0543L81.9452 11.8197L84.7594 9.00629L84.8194 9.13828C85.4967 10.6284 85.1756 12.4046 84.0213 13.5595Z" fill="white"/>
</svg>
