<svg width="50" height="80" viewBox="0 0 50 80" fill="none" xmlns="http://www.w3.org/2000/svg">
<path d="M0.00729933 68.0949L1.1067 74.4508C1.11227 74.4897 1.13762 74.5231 1.17348 74.5392C1.20935 74.5553 1.25078 74.5522 1.28417 74.5305L6.88636 71.348C6.99581 71.272 7.0867 71.1718 7.15225 71.0556L8.80073 67.5718L7.67473 63.2904L11.4596 61.9251L12.3463 60.0813L11.2295 56.7393L11.9035 55.2942L14.6873 54.559L13.4729 51.8105L14.6254 49.3638L17.3381 49.4967L20.8836 42.0148L22.0269 42.5466L23.2061 40.0645L23.6494 40.5252L23.6488 40.5264C24.3296 41.235 25.1347 41.8119 26.0245 42.2281C27.8417 43.0888 29.9132 43.2465 31.8399 42.6714L31.6804 40.8987C29.3437 39.9761 27.3075 38.4253 25.7963 36.4182C24.2851 34.4116 23.3582 32.0261 23.117 29.5255C22.8888 26.9507 23.4088 24.3648 24.6152 22.0789C23.9474 21.4581 23.4929 20.6419 23.3179 19.7466C23.1429 18.8519 23.2555 17.9243 23.6401 17.0977C24.1311 16.0675 25.0103 15.2737 26.085 14.8903C27.1596 14.5063 28.3432 14.5638 29.3751 15.0498C29.9075 15.3008 30.3818 15.6601 30.767 16.1047C31.4812 15.7621 32.2219 15.4808 32.9831 15.2625C32.1916 14.4037 31.2438 13.7031 30.1906 13.1973C28.0135 12.1714 25.5178 12.0509 23.2516 12.8615C20.9849 13.6721 19.1323 15.3485 18.0996 17.5231C17.8115 18.1346 17.5945 18.7771 17.4529 19.4375L17.3465 19.9514L16.8593 19.7566H16.8586C14.2004 18.7703 11.2207 19.2254 8.97796 20.9611C6.73587 22.6968 5.54803 25.467 5.83613 28.2878C6.12489 31.1086 7.84884 33.5808 10.3964 34.8267C11.285 35.2478 12.2434 35.5032 13.224 35.5799L13.8714 35.6331L12.6477 38.133L13.7824 38.6648L0.060172 67.7055C0.00699459 67.8279 -0.0115539 67.9633 0.00699499 68.0956L0.00729933 68.0949Z" fill="white"/>
<path d="M49.1811 27.1325C48.9264 24.504 47.8499 22.0232 46.1049 20.0408C45.9367 20.2621 45.7771 20.4928 45.5997 20.7055C44.1602 22.4418 42.3157 23.7965 40.2281 24.6505C39.9115 25.4024 39.3977 26.0553 38.741 26.5389C38.0837 27.0231 37.3083 27.3199 36.4958 27.3984H36.079C35.5262 27.3922 34.9796 27.284 34.4658 27.0794L34.0583 26.8753C33.9254 26.8042 33.7838 26.7424 33.6595 26.6626C32.5663 25.9713 31.823 24.8428 31.6196 23.5654C31.4155 22.2879 31.7711 20.985 32.5953 19.9876C33.176 19.284 33.9588 18.7763 34.838 18.5339C34.984 18.495 35.1318 18.4653 35.2814 18.4455C35.4057 18.4455 35.5207 18.3923 35.645 18.3837V18.3831C35.6685 18.3787 35.6926 18.3787 35.7161 18.3831C36.5292 18.3169 37.3454 18.4764 38.0739 18.8443C39.1529 18.3787 40.107 17.6652 40.8577 16.7612C40.9244 16.6789 40.9863 16.593 41.0438 16.504C39.2457 15.8151 37.3145 15.5455 35.3971 15.715C35.096 15.715 34.7942 15.7947 34.5104 15.8479L34.0404 15.9277C33.8846 15.9567 33.7307 15.9951 33.5798 16.0433C32.7741 16.2362 31.99 16.5095 31.2394 16.8589C31.1065 16.9207 30.9735 16.9832 30.8492 17.0537L30.4504 17.2577C28.4983 18.3491 26.869 19.9357 25.7256 21.8581C25.6459 21.991 25.5661 22.106 25.495 22.2389C25.4239 22.3719 25.3621 22.5048 25.3002 22.6378V22.6384C24.2274 24.7439 23.7729 27.1102 23.9881 29.4636C24.2138 31.8454 25.1073 34.1147 26.5659 36.0105C28.024 37.9064 29.9884 39.3519 32.2324 40.1812L32.4896 40.2789L32.6844 42.3799V42.7874H32.8792L33.9254 42.6897V42.7608L36.8594 74.673V74.6724C36.8693 74.8066 36.9225 74.9339 37.0103 75.036L41.1853 79.9554C41.2119 79.9857 41.2515 80.0018 41.2916 80C41.3257 79.9975 41.356 79.9771 41.3714 79.9468L44.5892 74.3354C44.6535 74.2198 44.6814 74.0868 44.669 73.9545L44.3147 70.1252L41.2118 66.9691L43.7915 63.8756L43.6054 61.8456L40.9459 59.5318L40.795 57.9452L42.8164 55.8708L40.379 54.0981L40.1311 51.4386L42.5333 50.171L41.7709 41.936L43.0206 41.821L42.7992 39.3124L43.0385 39.1708L43.0379 39.1701C45.0896 37.9434 46.7542 36.1638 47.8406 34.0349C48.927 31.9054 49.3913 29.5137 49.1811 27.1325L49.1811 27.1325Z" fill="white"/>
<path d="M33.9842 0.0512379C31.177 0.22066 28.5286 1.41159 26.5382 3.39837C24.5478 5.38576 23.3532 8.03213 23.1787 10.8388C24.0537 10.6342 24.9423 10.492 25.8376 10.4134C26.1301 6.15863 29.3831 3.07379 34.2587 2.63041H34.2593C36.5292 2.41956 38.7979 3.0484 40.6356 4.39824C42.4732 5.74745 43.7525 7.72432 44.2306 9.95343C44.7086 12.1832 44.3524 14.5099 43.2301 16.4948C43.159 16.6191 43.0792 16.7427 42.9995 16.867C42.9197 16.9913 42.84 17.1243 42.7515 17.2479C42.6631 17.3722 42.4504 17.6733 42.2816 17.8774C41.5328 18.7579 40.6325 19.4967 39.6221 20.0582L39.2233 20.2623L38.7978 20.4571C38.1319 20.7545 37.4325 20.969 36.7147 21.0952C36.8884 21.9417 37.0152 22.7968 37.0956 23.657C37.9847 23.5037 38.8534 23.2483 39.684 22.8946L40.1274 22.6998C40.2782 22.638 40.4198 22.5489 40.5707 22.4785C41.9719 21.7463 43.2128 20.7428 44.2226 19.5266C44.4353 19.2694 44.63 19.0035 44.8254 18.7289L45.0827 18.348L45.3133 17.9758V17.9752C46.8159 15.4474 47.329 12.4521 46.7534 9.56768C46.1777 6.68371 44.5545 4.11522 42.1963 2.35784C39.838 0.599981 36.9126 -0.221884 33.9841 0.05149L33.9842 0.0512379Z" fill="white"/>
</svg>
